0
SECTION
2
HEADER
9
$EXTMIN
10
7512575.903460
20
4691701.753154
30
0.000000
9
$EXTMAX
10
7512638.303000
20
4691749.326768
30
647.071000
9
$AUNITS
70
3
9
$INSUNITS
70
6
9
$CLAYER
8
0
9
$PDMODE
70
0
9
$PDSIZE
40
0.935993
0
ENDSEC
0
SECTION
2
TABLES
0
TABLE
2
LTYPE
70
5
0
LTYPE
2
DASHED
70
0
3
Dashed __ __ __ __ __ __ __ __ __ __ __ __ __ _
72
65
73
2
40
0.750000
49
0.500000
49
-0.250000
0
LTYPE
2
DOTTED
70
0
3
Dotted . . . . . . . . . . . . . . . . . . . .
72
65
73
2
40
0.100000
49
0
49
-0.100000
0
LTYPE
2
DASHDOTTED
70
0
3
DashDotted _ . _ . _ . _ . _ . _ . _ . _ . _
72
65
73
4
40
0.200000
49
0.100000
49
-0.050000
49
0
49
-0.050000
0
LTYPE
2
DASHDOTDOTTED
70
0
3
DashDotDotted _ .. _ .. _ .. _ .. _ .. _ .. _
72
65
73
6
40
0.250000
49
0.100000
49
-0.050000
49
0
49
-0.050000
49
0
49
-0.050000
0
LTYPE
2
DASHED_CUSTOM
70
0
3
Dashed_Custom (It depends on MINMAX values) _ _
72
65
73
2
40
1.000000
49
0.666667
49
-0.333333
0
ENDTAB
0
TABLE
2
LAYER
70
4
0
LAYER
2
0
70
64
62
8
6
Continuous
0
LAYER
62
6
2
PNTATTRS
70
64
6
Continuous
0
LAYER
62
1
2
PNTDESC
70
64
6
Continuous
0
LAYER
62
2
2
PNTELEV
70
64
6
Continuous
0
LAYER
62
3
2
PNTNO
70
64
6
Continuous
0
ENDTAB
0
TABLE
2
LAYER
0
ENDTAB
0
TABLE
2
STYLE
70
8
0
STYLE
2
STANDARD
70
0
40
0
41
1
50
0
71
0
42
4
3
txt
4

0
STYLE
2
PTXT
70
0
40
0
41
1
50
0
71
0
42
1
3
TXT
4

0
STYLE
2
PTXT
70
0
40
0
41
1
50
0
71
0
42
4
3
MONOTXT.SHX
4

0
ENDTAB
0
ENDSEC
0
SECTION
2
ENTITIES
0
TEXT
8
PNTNO
10
7512587.749000
20
4691715.069000
40
0.062400
62
8
1
P1
0
TEXT
8
PNTELEV
10
7512587.749000
20
4691714.991001
40
0.062400
1
611.096
0
TEXT
8
PNTDESC
10
7512587.749000
20
4691714.913001
40
0.062400
62
8
1

0
TEXT
8
PNTATTRS
10
7512587.749000
20
4691714.835002
40
0.062400
62
8
1

0
POINT
8
0
10
7512587.749000
20
4691715.069000
30
611.096000
0
TEXT
8
PNTNO
10
7512599.073000
20
4691703.183000
40
0.062400
62
8
1
P2
0
TEXT
8
PNTELEV
10
7512599.073000
20
4691703.105001
40
0.062400
1
611.533
0
TEXT
8
PNTDESC
10
7512599.073000
20
4691703.027001
40
0.062400
62
8
1

0
TEXT
8
PNTATTRS
10
7512599.073000
20
4691702.949002
40
0.062400
62
8
1

0
POINT
8
0
10
7512599.073000
20
4691703.183000
30
611.533000
0
TEXT
8
PNTNO
10
7512603.420335
20
4691709.922593
40
0.062400
62
8
1
FS1
0
TEXT
8
PNTELEV
10
7512603.420335
20
4691709.844593
40
0.062400
1
608.266
0
TEXT
8
PNTDESC
10
7512603.420335
20
4691709.766594
40
0.062400
62
8
1

0
TEXT
8
PNTATTRS
10
7512603.420335
20
4691709.688595
40
0.062400
62
8
1

0
POINT
8
0
10
7512603.420335
20
4691709.922593
30
608.266019
0
TEXT
8
PNTNO
10
7512590.470677
20
4691745.620947
40
0.062400
62
8
1
001
0
TEXT
8
PNTELEV
10
7512590.470677
20
4691745.542948
40
0.062400
1
608.365
0
TEXT
8
PNTDESC
10
7512590.470677
20
4691745.464949
40
0.062400
62
8
1
E0
0
TEXT
8
PNTATTRS
10
7512590.470677
20
4691745.386949
40
0.062400
62
8
1

0
POINT
8
0
10
7512590.470677
20
4691745.620947
30
608.365399
0
TEXT
8
PNTNO
10
7512594.981643
20
4691745.723812
40
0.062400
62
8
1
002
0
TEXT
8
PNTELEV
10
7512594.981643
20
4691745.645813
40
0.062400
1
608.329
0
TEXT
8
PNTDESC
10
7512594.981643
20
4691745.567814
40
0.062400
62
8
1
E0
0
TEXT
8
PNTATTRS
10
7512594.981643
20
4691745.489814
40
0.062400
62
8
1

0
POINT
8
0
10
7512594.981643
20
4691745.723812
30
608.328697
0
TEXT
8
PNTNO
10
7512598.287930
20
4691742.994171
40
0.062400
62
8
1
003
0
TEXT
8
PNTELEV
10
7512598.287930
20
4691742.916172
40
0.062400
1
608.280
0
TEXT
8
PNTDESC
10
7512598.287930
20
4691742.838173
40
0.062400
62
8
1
E0
0
TEXT
8
PNTATTRS
10
7512598.287930
20
4691742.760173
40
0.062400
62
8
1

0
POINT
8
0
10
7512598.287930
20
4691742.994171
30
608.279842
0
TEXT
8
PNTNO
10
7512601.329157
20
4691740.188236
40
0.062400
62
8
1
004
0
TEXT
8
PNTELEV
10
7512601.329157
20
4691740.110236
40
0.062400
1
608.358
0
TEXT
8
PNTDESC
10
7512601.329157
20
4691740.032237
40
0.062400
62
8
1
E0
0
TEXT
8
PNTATTRS
10
7512601.329157
20
4691739.954237
40
0.062400
62
8
1

0
POINT
8
0
10
7512601.329157
20
4691740.188236
30
608.357900
0
TEXT
8
PNTNO
10
7512606.951918
20
4691735.806496
40
0.062400
62
8
1
005
0
TEXT
8
PNTELEV
10
7512606.951918
20
4691735.728497
40
0.062400
1
608.379
0
TEXT
8
PNTDESC
10
7512606.951918
20
4691735.650497
40
0.062400
62
8
1
E0
0
TEXT
8
PNTATTRS
10
7512606.951918
20
4691735.572498
40
0.062400
62
8
1

0
POINT
8
0
10
7512606.951918
20
4691735.806496
30
608.378678
0
TEXT
8
PNTNO
10
7512618.558543
20
4691725.857145
40
0.062400
62
8
1
006
0
TEXT
8
PNTELEV
10
7512618.558543
20
4691725.779146
40
0.062400
1
608.412
0
TEXT
8
PNTDESC
10
7512618.558543
20
4691725.701146
40
0.062400
62
8
1
E0
0
TEXT
8
PNTATTRS
10
7512618.558543
20
4691725.623147
40
0.062400
62
8
1

0
POINT
8
0
10
7512618.558543
20
4691725.857145
30
608.412476
0
TEXT
8
PNTNO
10
7512612.144914
20
4691718.397668
40
0.062400
62
8
1
007
0
TEXT
8
PNTELEV
10
7512612.144914
20
4691718.319669
40
0.062400
1
608.301
0
TEXT
8
PNTDESC
10
7512612.144914
20
4691718.241669
40
0.062400
62
8
1
E0
0
TEXT
8
PNTATTRS
10
7512612.144914
20
4691718.163670
40
0.062400
62
8
1

0
POINT
8
0
10
7512612.144914
20
4691718.397668
30
608.300911
0
TEXT
8
PNTNO
10
7512612.003401
20
4691717.405468
40
0.062400
62
8
1
008
0
TEXT
8
PNTELEV
10
7512612.003401
20
4691717.327468
40
0.062400
1
608.297
0
TEXT
8
PNTDESC
10
7512612.003401
20
4691717.249469
40
0.062400
62
8
1
E0
0
TEXT
8
PNTATTRS
10
7512612.003401
20
4691717.171470
40
0.062400
62
8
1

0
POINT
8
0
10
7512612.003401
20
4691717.405468
30
608.297262
0
TEXT
8
PNTNO
10
7512612.266910
20
4691716.806576
40
0.062400
62
8
1
009
0
TEXT
8
PNTELEV
10
7512612.266910
20
4691716.728577
40
0.062400
1
608.328
0
TEXT
8
PNTDESC
10
7512612.266910
20
4691716.650577
40
0.062400
62
8
1
E0
0
TEXT
8
PNTATTRS
10
7512612.266910
20
4691716.572578
40
0.062400
62
8
1

0
POINT
8
0
10
7512612.266910
20
4691716.806576
30
608.328123
0
TEXT
8
PNTNO
10
7512612.603096
20
4691716.444962
40
0.062400
62
8
1
010
0
TEXT
8
PNTELEV
10
7512612.603096
20
4691716.366963
40
0.062400
1
608.278
0
TEXT
8
PNTDESC
10
7512612.603096
20
4691716.288963
40
0.062400
62
8
1
E0
0
TEXT
8
PNTATTRS
10
7512612.603096
20
4691716.210964
40
0.062400
62
8
1

0
POINT
8
0
10
7512612.603096
20
4691716.444962
30
608.277773
0
TEXT
8
PNTNO
10
7512607.840716
20
4691710.607301
40
0.062400
62
8
1
011
0
TEXT
8
PNTELEV
10
7512607.840716
20
4691710.529301
40
0.062400
1
608.346
0
TEXT
8
PNTDESC
10
7512607.840716
20
4691710.451302
40
0.062400
62
8
1
E0
0
TEXT
8
PNTATTRS
10
7512607.840716
20
4691710.373302
40
0.062400
62
8
1

0
POINT
8
0
10
7512607.840716
20
4691710.607301
30
608.346229
0
TEXT
8
PNTNO
10
7512605.948107
20
4691707.902714
40
0.062400
62
8
1
012
0
TEXT
8
PNTELEV
10
7512605.948107
20
4691707.824714
40
0.062400
1
608.396
0
TEXT
8
PNTDESC
10
7512605.948107
20
4691707.746715
40
0.062400
62
8
1
E0
0
TEXT
8
PNTATTRS
10
7512605.948107
20
4691707.668715
40
0.062400
62
8
1

0
POINT
8
0
10
7512605.948107
20
4691707.902714
30
608.395666
0
TEXT
8
PNTNO
10
7512604.629566
20
4691706.855969
40
0.062400
62
8
1
013
0
TEXT
8
PNTELEV
10
7512604.629566
20
4691706.777970
40
0.062400
1
608.412
0
TEXT
8
PNTDESC
10
7512604.629566
20
4691706.699970
40
0.062400
62
8
1
E0
0
TEXT
8
PNTATTRS
10
7512604.629566
20
4691706.621971
40
0.062400
62
8
1

0
POINT
8
0
10
7512604.629566
20
4691706.855969
30
608.411705
0
TEXT
8
PNTNO
10
7512603.389505
20
4691705.370303
40
0.062400
62
8
1
014
0
TEXT
8
PNTELEV
10
7512603.389505
20
4691705.292304
40
0.062400
1
608.400
0
TEXT
8
PNTDESC
10
7512603.389505
20
4691705.214304
40
0.062400
62
8
1
E0
0
TEXT
8
PNTATTRS
10
7512603.389505
20
4691705.136305
40
0.062400
62
8
1

0
POINT
8
0
10
7512603.389505
20
4691705.370303
30
608.400213
0
TEXT
8
PNTNO
10
7512602.521815
20
4691704.144986
40
0.062400
62
8
1
015
0
TEXT
8
PNTELEV
10
7512602.521815
20
4691704.066987
40
0.062400
1
608.410
0
TEXT
8
PNTDESC
10
7512602.521815
20
4691703.988988
40
0.062400
62
8
1
E0
0
TEXT
8
PNTATTRS
10
7512602.521815
20
4691703.910988
40
0.062400
62
8
1

0
POINT
8
0
10
7512602.521815
20
4691704.144986
30
608.409941
0
TEXT
8
PNTNO
10
7512600.026822
20
4691707.269008
40
0.062400
62
8
1
016
0
TEXT
8
PNTELEV
10
7512600.026822
20
4691707.191009
40
0.062400
1
608.490
0
TEXT
8
PNTDESC
10
7512600.026822
20
4691707.113009
40
0.062400
62
8
1
PUSET
0
TEXT
8
PNTATTRS
10
7512600.026822
20
4691707.035010
40
0.062400
62
8
1

0
POINT
8
0
10
7512600.026822
20
4691707.269008
30
608.490060
0
TEXT
8
PNTNO
10
7512594.130351
20
4691710.983239
40
0.062400
62
8
1
017
0
TEXT
8
PNTELEV
10
7512594.130351
20
4691710.905240
40
0.062400
1
608.387
0
TEXT
8
PNTDESC
10
7512594.130351
20
4691710.827241
40
0.062400
62
8
1
E0
0
TEXT
8
PNTATTRS
10
7512594.130351
20
4691710.749241
40
0.062400
62
8
1

0
POINT
8
0
10
7512594.130351
20
4691710.983239
30
608.387183
0
TEXT
8
PNTNO
10
7512584.796668
20
4691718.688203
40
0.062400
62
8
1
018
0
TEXT
8
PNTELEV
10
7512584.796668
20
4691718.610203
40
0.062400
1
608.710
0
TEXT
8
PNTDESC
10
7512584.796668
20
4691718.532204
40
0.062400
62
8
1
E0
0
TEXT
8
PNTATTRS
10
7512584.796668
20
4691718.454204
40
0.062400
62
8
1

0
POINT
8
0
10
7512584.796668
20
4691718.688203
30
608.709506
0
TEXT
8
PNTNO
10
7512587.758214
20
4691722.419276
40
0.062400
62
8
1
019
0
TEXT
8
PNTELEV
10
7512587.758214
20
4691722.341276
40
0.062400
1
608.438
0
TEXT
8
PNTDESC
10
7512587.758214
20
4691722.263277
40
0.062400
62
8
1
E0
0
TEXT
8
PNTATTRS
10
7512587.758214
20
4691722.185278
40
0.062400
62
8
1

0
POINT
8
0
10
7512587.758214
20
4691722.419276
30
608.437964
0
TEXT
8
PNTNO
10
7512587.365631
20
4691723.218224
40
0.062400
62
8
1
020
0
TEXT
8
PNTELEV
10
7512587.365631
20
4691723.140224
40
0.062400
1
608.390
0
TEXT
8
PNTDESC
10
7512587.365631
20
4691723.062225
40
0.062400
62
8
1
E0
0
TEXT
8
PNTATTRS
10
7512587.365631
20
4691722.984225
40
0.062400
62
8
1

0
POINT
8
0
10
7512587.365631
20
4691723.218224
30
608.390455
0
TEXT
8
PNTNO
10
7512582.280143
20
4691727.401085
40
0.062400
62
8
1
021
0
TEXT
8
PNTELEV
10
7512582.280143
20
4691727.323086
40
0.062400
1
608.473
0
TEXT
8
PNTDESC
10
7512582.280143
20
4691727.245086
40
0.062400
62
8
1
E0
0
TEXT
8
PNTATTRS
10
7512582.280143
20
4691727.167087
40
0.062400
62
8
1

0
POINT
8
0
10
7512582.280143
20
4691727.401085
30
608.472981
0
TEXT
8
PNTNO
10
7512578.160470
20
4691730.762898
40
0.062400
62
8
1
022
0
TEXT
8
PNTELEV
10
7512578.160470
20
4691730.684899
40
0.062400
1
608.840
0
TEXT
8
PNTDESC
10
7512578.160470
20
4691730.606900
40
0.062400
62
8
1
E0
0
TEXT
8
PNTATTRS
10
7512578.160470
20
4691730.528900
40
0.062400
62
8
1

0
POINT
8
0
10
7512578.160470
20
4691730.762898
30
608.840353
0
TEXT
8
PNTNO
10
7512577.375297
20
4691731.689742
40
0.062400
62
8
1
023
0
TEXT
8
PNTELEV
10
7512577.375297
20
4691731.611743
40
0.062400
1
608.694
0
TEXT
8
PNTDESC
10
7512577.375297
20
4691731.533743
40
0.062400
62
8
1
E0
0
TEXT
8
PNTATTRS
10
7512577.375297
20
4691731.455744
40
0.062400
62
8
1

0
POINT
8
0
10
7512577.375297
20
4691731.689742
30
608.693588
0
TEXT
8
PNTNO
10
7512577.897107
20
4691733.469923
40
0.062400
62
8
1
024
0
TEXT
8
PNTELEV
10
7512577.897107
20
4691733.391923
40
0.062400
1
608.778
0
TEXT
8
PNTDESC
10
7512577.897107
20
4691733.313924
40
0.062400
62
8
1
E0
0
TEXT
8
PNTATTRS
10
7512577.897107
20
4691733.235924
40
0.062400
62
8
1

0
POINT
8
0
10
7512577.897107
20
4691733.469923
30
608.778445
0
TEXT
8
PNTNO
10
7512578.928742
20
4691733.727369
40
0.062400
62
8
1
025
0
TEXT
8
PNTELEV
10
7512578.928742
20
4691733.649369
40
0.062400
1
608.715
0
TEXT
8
PNTDESC
10
7512578.928742
20
4691733.571370
40
0.062400
62
8
1
E0
0
TEXT
8
PNTATTRS
10
7512578.928742
20
4691733.493370
40
0.062400
62
8
1

0
POINT
8
0
10
7512578.928742
20
4691733.727369
30
608.715167
0
TEXT
8
PNTNO
10
7512578.928980
20
4691733.727599
40
0.062400
62
8
1
026
0
TEXT
8
PNTELEV
10
7512578.928980
20
4691733.649600
40
0.062400
1
608.715
0
TEXT
8
PNTDESC
10
7512578.928980
20
4691733.571600
40
0.062400
62
8
1
OBJEKT
0
TEXT
8
PNTATTRS
10
7512578.928980
20
4691733.493601
40
0.062400
62
8
1

0
POINT
8
0
10
7512578.928980
20
4691733.727599
30
608.714836
0
TEXT
8
PNTNO
10
7512580.032519
20
4691732.874982
40
0.062400
62
8
1
027
0
TEXT
8
PNTELEV
10
7512580.032519
20
4691732.796982
40
0.062400
1
608.328
0
TEXT
8
PNTDESC
10
7512580.032519
20
4691732.718983
40
0.062400
62
8
1
OBJEKT
0
TEXT
8
PNTATTRS
10
7512580.032519
20
4691732.640984
40
0.062400
62
8
1

0
POINT
8
0
10
7512580.032519
20
4691732.874982
30
608.328480
0
TEXT
8
PNTNO
10
7512577.807539
20
4691730.262688
40
0.062400
62
8
1
028
0
TEXT
8
PNTELEV
10
7512577.807539
20
4691730.184688
40
0.062400
1
612.207
0
TEXT
8
PNTDESC
10
7512577.807539
20
4691730.106689
40
0.062400
62
8
1
E2
0
TEXT
8
PNTATTRS
10
7512577.807539
20
4691730.028689
40
0.062400
62
8
1

0
POINT
8
0
10
7512577.807539
20
4691730.262688
30
612.207495
0
TEXT
8
PNTNO
10
7512575.903460
20
4691728.085953
40
0.062400
62
8
1
029
0
TEXT
8
PNTELEV
10
7512575.903460
20
4691728.007954
40
0.062400
1
612.184
0
TEXT
8
PNTDESC
10
7512575.903460
20
4691727.929954
40
0.062400
62
8
1
E2
0
TEXT
8
PNTATTRS
10
7512575.903460
20
4691727.851955
40
0.062400
62
8
1

0
POINT
8
0
10
7512575.903460
20
4691728.085953
30
612.184077
0
TEXT
8
PNTNO
10
7512578.802931
20
4691729.455089
40
0.062400
62
8
1
030
0
TEXT
8
PNTELEV
10
7512578.802931
20
4691729.377089
40
0.062400
1
611.246
0
TEXT
8
PNTDESC
10
7512578.802931
20
4691729.299090
40
0.062400
62
8
1
E2
0
TEXT
8
PNTATTRS
10
7512578.802931
20
4691729.221090
40
0.062400
62
8
1

0
POINT
8
0
10
7512578.802931
20
4691729.455089
30
611.246107
0
TEXT
8
PNTNO
10
7512581.789738
20
4691726.987185
40
0.062400
62
8
1
031
0
TEXT
8
PNTELEV
10
7512581.789738
20
4691726.909185
40
0.062400
1
610.767
0
TEXT
8
PNTDESC
10
7512581.789738
20
4691726.831186
40
0.062400
62
8
1
E2
0
TEXT
8
PNTATTRS
10
7512581.789738
20
4691726.753186
40
0.062400
62
8
1

0
POINT
8
0
10
7512581.789738
20
4691726.987185
30
610.766573
0
TEXT
8
PNTNO
10
7512584.827609
20
4691724.363357
40
0.062400
62
8
1
032
0
TEXT
8
PNTELEV
10
7512584.827609
20
4691724.285358
40
0.062400
1
610.916
0
TEXT
8
PNTDESC
10
7512584.827609
20
4691724.207358
40
0.062400
62
8
1
E2
0
TEXT
8
PNTATTRS
10
7512584.827609
20
4691724.129359
40
0.062400
62
8
1

0
POINT
8
0
10
7512584.827609
20
4691724.363357
30
610.916196
0
TEXT
8
PNTNO
10
7512586.919434
20
4691722.629733
40
0.062400
62
8
1
033
0
TEXT
8
PNTELEV
10
7512586.919434
20
4691722.551734
40
0.062400
1
610.826
0
TEXT
8
PNTDESC
10
7512586.919434
20
4691722.473734
40
0.062400
62
8
1
E2
0
TEXT
8
PNTATTRS
10
7512586.919434
20
4691722.395735
40
0.062400
62
8
1

0
POINT
8
0
10
7512586.919434
20
4691722.629733
30
610.825673
0
TEXT
8
PNTNO
10
7512584.022273
20
4691718.807351
40
0.062400
62
8
1
034
0
TEXT
8
PNTELEV
10
7512584.022273
20
4691718.729352
40
0.062400
1
611.207
0
TEXT
8
PNTDESC
10
7512584.022273
20
4691718.651352
40
0.062400
62
8
1
E2
0
TEXT
8
PNTATTRS
10
7512584.022273
20
4691718.573353
40
0.062400
62
8
1

0
POINT
8
0
10
7512584.022273
20
4691718.807351
30
611.206727
0
TEXT
8
PNTNO
10
7512587.862482
20
4691715.325693
40
0.062400
62
8
1
035
0
TEXT
8
PNTELEV
10
7512587.862482
20
4691715.247693
40
0.062400
1
611.002
0
TEXT
8
PNTDESC
10
7512587.862482
20
4691715.169694
40
0.062400
62
8
1
E2
0
TEXT
8
PNTATTRS
10
7512587.862482
20
4691715.091694
40
0.062400
62
8
1

0
POINT
8
0
10
7512587.862482
20
4691715.325693
30
611.001876
0
TEXT
8
PNTNO
10
7512590.264343
20
4691713.269081
40
0.062400
62
8
1
036
0
TEXT
8
PNTELEV
10
7512590.264343
20
4691713.191081
40
0.062400
1
611.252
0
TEXT
8
PNTDESC
10
7512590.264343
20
4691713.113082
40
0.062400
62
8
1
E2
0
TEXT
8
PNTATTRS
10
7512590.264343
20
4691713.035082
40
0.062400
62
8
1

0
POINT
8
0
10
7512590.264343
20
4691713.269081
30
611.251659
0
TEXT
8
PNTNO
10
7512595.067231
20
4691709.375017
40
0.062400
62
8
1
037
0
TEXT
8
PNTELEV
10
7512595.067231
20
4691709.297018
40
0.062400
1
611.103
0
TEXT
8
PNTDESC
10
7512595.067231
20
4691709.219018
40
0.062400
62
8
1
E2
0
TEXT
8
PNTATTRS
10
7512595.067231
20
4691709.141019
40
0.062400
62
8
1

0
POINT
8
0
10
7512595.067231
20
4691709.375017
30
611.103235
0
TEXT
8
PNTNO
10
7512592.961238
20
4691707.599500
40
0.062400
62
8
1
038
0
TEXT
8
PNTELEV
10
7512592.961238
20
4691707.521501
40
0.062400
1
611.260
0
TEXT
8
PNTDESC
10
7512592.961238
20
4691707.443501
40
0.062400
62
8
1
E2
0
TEXT
8
PNTATTRS
10
7512592.961238
20
4691707.365502
40
0.062400
62
8
1

0
POINT
8
0
10
7512592.961238
20
4691707.599500
30
611.260277
0
TEXT
8
PNTNO
10
7512599.157205
20
4691705.571588
40
0.062400
62
8
1
039
0
TEXT
8
PNTELEV
10
7512599.157205
20
4691705.493588
40
0.062400
1
611.018
0
TEXT
8
PNTDESC
10
7512599.157205
20
4691705.415589
40
0.062400
62
8
1
E2
0
TEXT
8
PNTATTRS
10
7512599.157205
20
4691705.337589
40
0.062400
62
8
1

0
POINT
8
0
10
7512599.157205
20
4691705.571588
30
611.017598
0
TEXT
8
PNTNO
10
7512602.542835
20
4691703.875724
40
0.062400
62
8
1
040
0
TEXT
8
PNTELEV
10
7512602.542835
20
4691703.797724
40
0.062400
1
611.129
0
TEXT
8
PNTDESC
10
7512602.542835
20
4691703.719725
40
0.062400
62
8
1
E2
0
TEXT
8
PNTATTRS
10
7512602.542835
20
4691703.641725
40
0.062400
62
8
1

0
POINT
8
0
10
7512602.542835
20
4691703.875724
30
611.129395
0
TEXT
8
PNTNO
10
7512600.574817
20
4691701.753154
40
0.062400
62
8
1
041
0
TEXT
8
PNTELEV
10
7512600.574817
20
4691701.675154
40
0.062400
1
611.145
0
TEXT
8
PNTDESC
10
7512600.574817
20
4691701.597155
40
0.062400
62
8
1
E2
0
TEXT
8
PNTATTRS
10
7512600.574817
20
4691701.519156
40
0.062400
62
8
1

0
POINT
8
0
10
7512600.574817
20
4691701.753154
30
611.145265
0
TEXT
8
PNTNO
10
7512593.010906
20
4691747.660132
40
0.062400
62
8
1
042
0
TEXT
8
PNTELEV
10
7512593.010906
20
4691747.582132
40
0.062400
1
611.907
0
TEXT
8
PNTDESC
10
7512593.010906
20
4691747.504133
40
0.062400
62
8
1
E2
0
TEXT
8
PNTATTRS
10
7512593.010906
20
4691747.426134
40
0.062400
62
8
1

0
POINT
8
0
10
7512593.010906
20
4691747.660132
30
611.906546
0
TEXT
8
PNTNO
10
7512594.496234
20
4691749.326768
40
0.062400
62
8
1
043
0
TEXT
8
PNTELEV
10
7512594.496234
20
4691749.248769
40
0.062400
1
612.016
0
TEXT
8
PNTDESC
10
7512594.496234
20
4691749.170769
40
0.062400
62
8
1
E2
0
TEXT
8
PNTATTRS
10
7512594.496234
20
4691749.092770
40
0.062400
62
8
1

0
POINT
8
0
10
7512594.496234
20
4691749.326768
30
612.016345
0
TEXT
8
PNTNO
10
7512596.900925
20
4691745.031616
40
0.062400
62
8
1
044
0
TEXT
8
PNTELEV
10
7512596.900925
20
4691744.953617
40
0.062400
1
611.496
0
TEXT
8
PNTDESC
10
7512596.900925
20
4691744.875617
40
0.062400
62
8
1
E2
0
TEXT
8
PNTATTRS
10
7512596.900925
20
4691744.797618
40
0.062400
62
8
1

0
POINT
8
0
10
7512596.900925
20
4691745.031616
30
611.495857
0
TEXT
8
PNTNO
10
7512601.398949
20
4691742.203756
40
0.062400
62
8
1
045
0
TEXT
8
PNTELEV
10
7512601.398949
20
4691742.125757
40
0.062400
1
611.409
0
TEXT
8
PNTDESC
10
7512601.398949
20
4691742.047757
40
0.062400
62
8
1
E2
0
TEXT
8
PNTATTRS
10
7512601.398949
20
4691741.969758
40
0.062400
62
8
1

0
POINT
8
0
10
7512601.398949
20
4691742.203756
30
611.409331
0
TEXT
8
PNTNO
10
7512601.674113
20
4691740.993692
40
0.062400
62
8
1
046
0
TEXT
8
PNTELEV
10
7512601.674113
20
4691740.915693
40
0.062400
1
611.290
0
TEXT
8
PNTDESC
10
7512601.674113
20
4691740.837693
40
0.062400
62
8
1
E2
0
TEXT
8
PNTATTRS
10
7512601.674113
20
4691740.759694
40
0.062400
62
8
1

0
POINT
8
0
10
7512601.674113
20
4691740.993692
30
611.290080
0
TEXT
8
PNTNO
10
7512606.631507
20
4691737.214682
40
0.062400
62
8
1
047
0
TEXT
8
PNTELEV
10
7512606.631507
20
4691737.136683
40
0.062400
1
611.123
0
TEXT
8
PNTDESC
10
7512606.631507
20
4691737.058683
40
0.062400
62
8
1
E2
0
TEXT
8
PNTATTRS
10
7512606.631507
20
4691736.980684
40
0.062400
62
8
1

0
POINT
8
0
10
7512606.631507
20
4691737.214682
30
611.123167
0
TEXT
8
PNTNO
10
7512612.453392
20
4691732.012124
40
0.062400
62
8
1
048
0
TEXT
8
PNTELEV
10
7512612.453392
20
4691731.934125
40
0.062400
1
611.001
0
TEXT
8
PNTDESC
10
7512612.453392
20
4691731.856126
40
0.062400
62
8
1
E2
0
TEXT
8
PNTATTRS
10
7512612.453392
20
4691731.778126
40
0.062400
62
8
1

0
POINT
8
0
10
7512612.453392
20
4691732.012124
30
611.000724
0
TEXT
8
PNTNO
10
7512619.403119
20
4691725.889898
40
0.062400
62
8
1
049
0
TEXT
8
PNTELEV
10
7512619.403119
20
4691725.811899
40
0.062400
1
611.056
0
TEXT
8
PNTDESC
10
7512619.403119
20
4691725.733899
40
0.062400
62
8
1
E2
0
TEXT
8
PNTATTRS
10
7512619.403119
20
4691725.655900
40
0.062400
62
8
1

0
POINT
8
0
10
7512619.403119
20
4691725.889898
30
611.055756
0
TEXT
8
PNTNO
10
7512621.073427
20
4691727.461385
40
0.062400
62
8
1
050
0
TEXT
8
PNTELEV
10
7512621.073427
20
4691727.383385
40
0.062400
1
611.058
0
TEXT
8
PNTDESC
10
7512621.073427
20
4691727.305386
40
0.062400
62
8
1
E2
0
TEXT
8
PNTATTRS
10
7512621.073427
20
4691727.227387
40
0.062400
62
8
1

0
POINT
8
0
10
7512621.073427
20
4691727.461385
30
611.057862
0
TEXT
8
PNTNO
10
7512616.290906
20
4691722.273182
40
0.062400
62
8
1
051
0
TEXT
8
PNTELEV
10
7512616.290906
20
4691722.195183
40
0.062400
1
611.112
0
TEXT
8
PNTDESC
10
7512616.290906
20
4691722.117183
40
0.062400
62
8
1
E2
0
TEXT
8
PNTATTRS
10
7512616.290906
20
4691722.039184
40
0.062400
62
8
1

0
POINT
8
0
10
7512616.290906
20
4691722.273182
30
611.111751
0
TEXT
8
PNTNO
10
7512617.268927
20
4691721.310111
40
0.062400
62
8
1
052
0
TEXT
8
PNTELEV
10
7512617.268927
20
4691721.232111
40
0.062400
1
611.108
0
TEXT
8
PNTDESC
10
7512617.268927
20
4691721.154112
40
0.062400
62
8
1
E2
0
TEXT
8
PNTATTRS
10
7512617.268927
20
4691721.076113
40
0.062400
62
8
1

0
POINT
8
0
10
7512617.268927
20
4691721.310111
30
611.108088
0
TEXT
8
PNTNO
10
7512612.933371
20
4691718.286054
40
0.062400
62
8
1
053
0
TEXT
8
PNTELEV
10
7512612.933371
20
4691718.208054
40
0.062400
1
611.152
0
TEXT
8
PNTDESC
10
7512612.933371
20
4691718.130055
40
0.062400
62
8
1
E2
0
TEXT
8
PNTATTRS
10
7512612.933371
20
4691718.052056
40
0.062400
62
8
1

0
POINT
8
0
10
7512612.933371
20
4691718.286054
30
611.152088
0
TEXT
8
PNTNO
10
7512612.739308
20
4691717.441240
40
0.062400
62
8
1
054
0
TEXT
8
PNTELEV
10
7512612.739308
20
4691717.363241
40
0.062400
1
611.142
0
TEXT
8
PNTDESC
10
7512612.739308
20
4691717.285241
40
0.062400
62
8
1
E2
0
TEXT
8
PNTATTRS
10
7512612.739308
20
4691717.207242
40
0.062400
62
8
1

0
POINT
8
0
10
7512612.739308
20
4691717.441240
30
611.142367
0
TEXT
8
PNTNO
10
7512613.056410
20
4691716.549416
40
0.062400
62
8
1
055
0
TEXT
8
PNTELEV
10
7512613.056410
20
4691716.471417
40
0.062400
1
611.200
0
TEXT
8
PNTDESC
10
7512613.056410
20
4691716.393418
40
0.062400
62
8
1
E2
0
TEXT
8
PNTATTRS
10
7512613.056410
20
4691716.315418
40
0.062400
62
8
1

0
POINT
8
0
10
7512613.056410
20
4691716.549416
30
611.200140
0
TEXT
8
PNTNO
10
7512638.303000
20
4691739.721000
40
0.062400
62
8
1
PS2
0
TEXT
8
PNTELEV
10
7512638.303000
20
4691739.643001
40
0.062400
1
646.382
0
TEXT
8
PNTDESC
10
7512638.303000
20
4691739.565001
40
0.062400
62
8
1

0
TEXT
8
PNTATTRS
10
7512638.303000
20
4691739.487002
40
0.062400
62
8
1

0
POINT
8
0
10
7512638.303000
20
4691739.721000
30
646.382000
0
TEXT
8
PNTNO
10
7512582.757000
20
4691736.384000
40
0.062400
62
8
1
PS1
0
TEXT
8
PNTELEV
10
7512582.757000
20
4691736.306001
40
0.062400
1
647.071
0
TEXT
8
PNTDESC
10
7512582.757000
20
4691736.228001
40
0.062400
62
8
1

0
TEXT
8
PNTATTRS
10
7512582.757000
20
4691736.150002
40
0.062400
62
8
1

0
POINT
8
0
10
7512582.757000
20
4691736.384000
30
647.071000
0
TEXT
8
PNTNO
10
7512603.419713
20
4691709.932510
40
0.062400
62
8
1
FS2
0
TEXT
8
PNTELEV
10
7512603.419713
20
4691709.854511
40
0.062400
1
608.232
0
TEXT
8
PNTDESC
10
7512603.419713
20
4691709.776511
40
0.062400
62
8
1

0
TEXT
8
PNTATTRS
10
7512603.419713
20
4691709.698512
40
0.062400
62
8
1

0
POINT
8
0
10
7512603.419713
20
4691709.932510
30
608.231750
0
TEXT
8
PNTNO
10
7512602.239437
20
4691713.101188
40
0.062400
62
8
1
B1-FS1
0
TEXT
8
PNTELEV
10
7512602.239437
20
4691713.023188
40
0.062400
1
608.269
0
TEXT
8
PNTDESC
10
7512602.239437
20
4691712.945189
40
0.062400
62
8
1

0
TEXT
8
PNTATTRS
10
7512602.239437
20
4691712.867189
40
0.062400
62
8
1

0
POINT
8
0
10
7512602.239437
20
4691713.101188
30
608.269320
0
TEXT
8
PNTNO
10
7512602.264000
20
4691707.121000
40
0.062400
62
8
1
1
0
TEXT
8
PNTELEV
10
7512602.264000
20
4691707.043001
40
0.062400
1
0.000
0
TEXT
8
PNTDESC
10
7512602.264000
20
4691706.965001
40
0.062400
62
8
1

0
TEXT
8
PNTATTRS
10
7512602.264000
20
4691706.887002
40
0.062400
62
8
1

0
POINT
8
0
10
7512602.264000
20
4691707.121000
30
0.000000
0
TEXT
8
PNTNO
10
7512602.106000
20
4691706.927000
40
0.062400
62
8
1
2
0
TEXT
8
PNTELEV
10
7512602.106000
20
4691706.849001
40
0.062400
1
0.000
0
TEXT
8
PNTDESC
10
7512602.106000
20
4691706.771001
40
0.062400
62
8
1

0
TEXT
8
PNTATTRS
10
7512602.106000
20
4691706.693002
40
0.062400
62
8
1

0
POINT
8
0
10
7512602.106000
20
4691706.927000
30
0.000000
0
TEXT
8
PNTNO
10
7512601.796000
20
4691707.181000
40
0.062400
62
8
1
3
0
TEXT
8
PNTELEV
10
7512601.796000
20
4691707.103001
40
0.062400
1
0.000
0
TEXT
8
PNTDESC
10
7512601.796000
20
4691707.025001
40
0.062400
62
8
1

0
TEXT
8
PNTATTRS
10
7512601.796000
20
4691706.947002
40
0.062400
62
8
1

0
POINT
8
0
10
7512601.796000
20
4691707.181000
30
0.000000
0
TEXT
8
PNTNO
10
7512601.954000
20
4691707.374000
40
0.062400
62
8
1
4
0
TEXT
8
PNTELEV
10
7512601.954000
20
4691707.296001
40
0.062400
1
0.000
0
TEXT
8
PNTDESC
10
7512601.954000
20
4691707.218001
40
0.062400
62
8
1

0
TEXT
8
PNTATTRS
10
7512601.954000
20
4691707.140002
40
0.062400
62
8
1

0
POINT
8
0
10
7512601.954000
20
4691707.374000
30
0.000000
0
TEXT
8
PNTNO
10
7512602.726000
20
4691707.686000
40
0.062400
62
8
1
5
0
TEXT
8
PNTELEV
10
7512602.726000
20
4691707.608001
40
0.062400
1
0.000
0
TEXT
8
PNTDESC
10
7512602.726000
20
4691707.530001
40
0.062400
62
8
1

0
TEXT
8
PNTATTRS
10
7512602.726000
20
4691707.452002
40
0.062400
62
8
1

0
POINT
8
0
10
7512602.726000
20
4691707.686000
30
0.000000
0
TEXT
8
PNTNO
10
7512602.417000
20
4691707.939000
40
0.062400
62
8
1
6
0
TEXT
8
PNTELEV
10
7512602.417000
20
4691707.861001
40
0.062400
1
0.000
0
TEXT
8
PNTDESC
10
7512602.417000
20
4691707.783001
40
0.062400
62
8
1

0
TEXT
8
PNTATTRS
10
7512602.417000
20
4691707.705002
40
0.062400
62
8
1

0
POINT
8
0
10
7512602.417000
20
4691707.939000
30
0.000000
0
TEXT
8
PNTNO
10
7512603.810000
20
4691709.642000
40
0.062400
62
8
1
7
0
TEXT
8
PNTELEV
10
7512603.810000
20
4691709.564001
40
0.062400
1
0.000
0
TEXT
8
PNTDESC
10
7512603.810000
20
4691709.486001
40
0.062400
62
8
1

0
TEXT
8
PNTATTRS
10
7512603.810000
20
4691709.408002
40
0.062400
62
8
1

0
POINT
8
0
10
7512603.810000
20
4691709.642000
30
0.000000
0
TEXT
8
PNTNO
10
7512604.120000
20
4691709.388000
40
0.062400
62
8
1
8
0
TEXT
8
PNTELEV
10
7512604.120000
20
4691709.310001
40
0.062400
1
0.000
0
TEXT
8
PNTDESC
10
7512604.120000
20
4691709.232001
40
0.062400
62
8
1

0
TEXT
8
PNTATTRS
10
7512604.120000
20
4691709.154002
40
0.062400
62
8
1

0
POINT
8
0
10
7512604.120000
20
4691709.388000
30
0.000000
0
TEXT
8
PNTNO
10
7512604.734000
20
4691710.139000
40
0.062400
62
8
1
9
0
TEXT
8
PNTELEV
10
7512604.734000
20
4691710.061001
40
0.062400
1
0.000
0
TEXT
8
PNTDESC
10
7512604.734000
20
4691709.983001
40
0.062400
62
8
1

0
TEXT
8
PNTATTRS
10
7512604.734000
20
4691709.905002
40
0.062400
62
8
1

0
POINT
8
0
10
7512604.734000
20
4691710.139000
30
0.000000
0
TEXT
8
PNTNO
10
7512604.424000
20
4691710.392000
40
0.062400
62
8
1
10
0
TEXT
8
PNTELEV
10
7512604.424000
20
4691710.314001
40
0.062400
1
0.000
0
TEXT
8
PNTDESC
10
7512604.424000
20
4691710.236001
40
0.062400
62
8
1

0
TEXT
8
PNTATTRS
10
7512604.424000
20
4691710.158002
40
0.062400
62
8
1

0
POINT
8
0
10
7512604.424000
20
4691710.392000
30
0.000000
0
TEXT
8
PNTNO
10
7512605.184000
20
4691711.321000
40
0.062400
62
8
1
11
0
TEXT
8
PNTELEV
10
7512605.184000
20
4691711.243001
40
0.062400
1
0.000
0
TEXT
8
PNTDESC
10
7512605.184000
20
4691711.165001
40
0.062400
62
8
1

0
TEXT
8
PNTATTRS
10
7512605.184000
20
4691711.087002
40
0.062400
62
8
1

0
POINT
8
0
10
7512605.184000
20
4691711.321000
30
0.000000
0
TEXT
8
PNTNO
10
7512605.494000
20
4691711.068000
40
0.062400
62
8
1
12
0
TEXT
8
PNTELEV
10
7512605.494000
20
4691710.990001
40
0.062400
1
0.000
0
TEXT
8
PNTDESC
10
7512605.494000
20
4691710.912001
40
0.062400
62
8
1

0
TEXT
8
PNTATTRS
10
7512605.494000
20
4691710.834002
40
0.062400
62
8
1

0
POINT
8
0
10
7512605.494000
20
4691711.068000
30
0.000000
0
TEXT
8
PNTNO
10
7512607.666000
20
4691713.722000
40
0.062400
62
8
1
13
0
TEXT
8
PNTELEV
10
7512607.666000
20
4691713.644001
40
0.062400
1
0.000
0
TEXT
8
PNTDESC
10
7512607.666000
20
4691713.566001
40
0.062400
62
8
1

0
TEXT
8
PNTATTRS
10
7512607.666000
20
4691713.488002
40
0.062400
62
8
1

0
POINT
8
0
10
7512607.666000
20
4691713.722000
30
0.000000
0
TEXT
8
PNTNO
10
7512607.357000
20
4691713.976000
40
0.062400
62
8
1
14
0
TEXT
8
PNTELEV
10
7512607.357000
20
4691713.898001
40
0.062400
1
0.000
0
TEXT
8
PNTDESC
10
7512607.357000
20
4691713.820001
40
0.062400
62
8
1

0
TEXT
8
PNTATTRS
10
7512607.357000
20
4691713.742002
40
0.062400
62
8
1

0
POINT
8
0
10
7512607.357000
20
4691713.976000
30
0.000000
0
TEXT
8
PNTNO
10
7512608.750000
20
4691715.678000
40
0.062400
62
8
1
15
0
TEXT
8
PNTELEV
10
7512608.750000
20
4691715.600001
40
0.062400
1
0.000
0
TEXT
8
PNTDESC
10
7512608.750000
20
4691715.522001
40
0.062400
62
8
1

0
TEXT
8
PNTATTRS
10
7512608.750000
20
4691715.444002
40
0.062400
62
8
1

0
POINT
8
0
10
7512608.750000
20
4691715.678000
30
0.000000
0
TEXT
8
PNTNO
10
7512609.062000
20
4691715.423000
40
0.062400
62
8
1
16
0
TEXT
8
PNTELEV
10
7512609.062000
20
4691715.345001
40
0.062400
1
0.000
0
TEXT
8
PNTDESC
10
7512609.062000
20
4691715.267001
40
0.062400
62
8
1

0
TEXT
8
PNTATTRS
10
7512609.062000
20
4691715.189002
40
0.062400
62
8
1

0
POINT
8
0
10
7512609.062000
20
4691715.423000
30
0.000000
0
TEXT
8
PNTNO
10
7512607.508000
20
4691716.371000
40
0.062400
62
8
1
17
0
TEXT
8
PNTELEV
10
7512607.508000
20
4691716.293001
40
0.062400
1
0.000
0
TEXT
8
PNTDESC
10
7512607.508000
20
4691716.215001
40
0.062400
62
8
1

0
TEXT
8
PNTATTRS
10
7512607.508000
20
4691716.137002
40
0.062400
62
8
1

0
POINT
8
0
10
7512607.508000
20
4691716.371000
30
0.000000
0
TEXT
8
PNTNO
10
7512607.199000
20
4691716.625000
40
0.062400
62
8
1
18
0
TEXT
8
PNTELEV
10
7512607.199000
20
4691716.547001
40
0.062400
1
0.000
0
TEXT
8
PNTDESC
10
7512607.199000
20
4691716.469001
40
0.062400
62
8
1

0
TEXT
8
PNTATTRS
10
7512607.199000
20
4691716.391002
40
0.062400
62
8
1

0
POINT
8
0
10
7512607.199000
20
4691716.625000
30
0.000000
0
TEXT
8
PNTNO
10
7512607.959000
20
4691717.553000
40
0.062400
62
8
1
19
0
TEXT
8
PNTELEV
10
7512607.959000
20
4691717.475001
40
0.062400
1
0.000
0
TEXT
8
PNTDESC
10
7512607.959000
20
4691717.397001
40
0.062400
62
8
1

0
TEXT
8
PNTATTRS
10
7512607.959000
20
4691717.319002
40
0.062400
62
8
1

0
POINT
8
0
10
7512607.959000
20
4691717.553000
30
0.000000
0
TEXT
8
PNTNO
10
7512608.268000
20
4691717.300000
40
0.062400
62
8
1
20
0
TEXT
8
PNTELEV
10
7512608.268000
20
4691717.222001
40
0.062400
1
0.000
0
TEXT
8
PNTDESC
10
7512608.268000
20
4691717.144001
40
0.062400
62
8
1

0
TEXT
8
PNTATTRS
10
7512608.268000
20
4691717.066002
40
0.062400
62
8
1

0
POINT
8
0
10
7512608.268000
20
4691717.300000
30
0.000000
0
TEXT
8
PNTNO
10
7512611.367000
20
4691721.087000
40
0.062400
62
8
1
21
0
TEXT
8
PNTELEV
10
7512611.367000
20
4691721.009001
40
0.062400
1
0.000
0
TEXT
8
PNTDESC
10
7512611.367000
20
4691720.931001
40
0.062400
62
8
1

0
TEXT
8
PNTATTRS
10
7512611.367000
20
4691720.853002
40
0.062400
62
8
1

0
POINT
8
0
10
7512611.367000
20
4691721.087000
30
0.000000
0
TEXT
8
PNTNO
10
7512611.058000
20
4691721.341000
40
0.062400
62
8
1
22
0
TEXT
8
PNTELEV
10
7512611.058000
20
4691721.263001
40
0.062400
1
0.000
0
TEXT
8
PNTDESC
10
7512611.058000
20
4691721.185001
40
0.062400
62
8
1

0
TEXT
8
PNTATTRS
10
7512611.058000
20
4691721.107002
40
0.062400
62
8
1

0
POINT
8
0
10
7512611.058000
20
4691721.341000
30
0.000000
0
TEXT
8
PNTNO
10
7512611.818000
20
4691722.269000
40
0.062400
62
8
1
23
0
TEXT
8
PNTELEV
10
7512611.818000
20
4691722.191001
40
0.062400
1
0.000
0
TEXT
8
PNTDESC
10
7512611.818000
20
4691722.113001
40
0.062400
62
8
1

0
TEXT
8
PNTATTRS
10
7512611.818000
20
4691722.035002
40
0.062400
62
8
1

0
POINT
8
0
10
7512611.818000
20
4691722.269000
30
0.000000
0
TEXT
8
PNTNO
10
7512612.127000
20
4691722.016000
40
0.062400
62
8
1
24
0
TEXT
8
PNTELEV
10
7512612.127000
20
4691721.938001
40
0.062400
1
0.000
0
TEXT
8
PNTDESC
10
7512612.127000
20
4691721.860001
40
0.062400
62
8
1

0
TEXT
8
PNTATTRS
10
7512612.127000
20
4691721.782002
40
0.062400
62
8
1

0
POINT
8
0
10
7512612.127000
20
4691722.016000
30
0.000000
0
TEXT
8
PNTNO
10
7512613.429000
20
4691723.606000
40
0.062400
62
8
1
25
0
TEXT
8
PNTELEV
10
7512613.429000
20
4691723.528001
40
0.062400
1
0.000
0
TEXT
8
PNTDESC
10
7512613.429000
20
4691723.450001
40
0.062400
62
8
1

0
TEXT
8
PNTATTRS
10
7512613.429000
20
4691723.372002
40
0.062400
62
8
1

0
POINT
8
0
10
7512613.429000
20
4691723.606000
30
0.000000
0
TEXT
8
PNTNO
10
7512613.119000
20
4691723.860000
40
0.062400
62
8
1
26
0
TEXT
8
PNTELEV
10
7512613.119000
20
4691723.782001
40
0.062400
1
0.000
0
TEXT
8
PNTDESC
10
7512613.119000
20
4691723.704001
40
0.062400
62
8
1

0
TEXT
8
PNTATTRS
10
7512613.119000
20
4691723.626002
40
0.062400
62
8
1

0
POINT
8
0
10
7512613.119000
20
4691723.860000
30
0.000000
0
TEXT
8
PNTNO
10
7512614.512000
20
4691725.562000
40
0.062400
62
8
1
27
0
TEXT
8
PNTELEV
10
7512614.512000
20
4691725.484001
40
0.062400
1
0.000
0
TEXT
8
PNTDESC
10
7512614.512000
20
4691725.406001
40
0.062400
62
8
1

0
TEXT
8
PNTATTRS
10
7512614.512000
20
4691725.328002
40
0.062400
62
8
1

0
POINT
8
0
10
7512614.512000
20
4691725.562000
30
0.000000
0
TEXT
8
PNTNO
10
7512614.822000
20
4691725.309000
40
0.062400
62
8
1
28
0
TEXT
8
PNTELEV
10
7512614.822000
20
4691725.231001
40
0.062400
1
0.000
0
TEXT
8
PNTDESC
10
7512614.822000
20
4691725.153001
40
0.062400
62
8
1

0
TEXT
8
PNTATTRS
10
7512614.822000
20
4691725.075002
40
0.062400
62
8
1

0
POINT
8
0
10
7512614.822000
20
4691725.309000
30
0.000000
0
TEXT
8
PNTNO
10
7512615.424000
20
4691726.044000
40
0.062400
62
8
1
29
0
TEXT
8
PNTELEV
10
7512615.424000
20
4691725.966001
40
0.062400
1
0.000
0
TEXT
8
PNTDESC
10
7512615.424000
20
4691725.888001
40
0.062400
62
8
1

0
TEXT
8
PNTATTRS
10
7512615.424000
20
4691725.810002
40
0.062400
62
8
1

0
POINT
8
0
10
7512615.424000
20
4691726.044000
30
0.000000
0
TEXT
8
PNTNO
10
7512615.114000
20
4691726.297000
40
0.062400
62
8
1
30
0
TEXT
8
PNTELEV
10
7512615.114000
20
4691726.219001
40
0.062400
1
0.000
0
TEXT
8
PNTDESC
10
7512615.114000
20
4691726.141001
40
0.062400
62
8
1

0
TEXT
8
PNTATTRS
10
7512615.114000
20
4691726.063002
40
0.062400
62
8
1

0
POINT
8
0
10
7512615.114000
20
4691726.297000
30
0.000000
0
TEXT
8
PNTNO
10
7512615.272000
20
4691726.491000
40
0.062400
62
8
1
31
0
TEXT
8
PNTELEV
10
7512615.272000
20
4691726.413001
40
0.062400
1
0.000
0
TEXT
8
PNTDESC
10
7512615.272000
20
4691726.335001
40
0.062400
62
8
1

0
TEXT
8
PNTATTRS
10
7512615.272000
20
4691726.257002
40
0.062400
62
8
1

0
POINT
8
0
10
7512615.272000
20
4691726.491000
30
0.000000
0
TEXT
8
PNTNO
10
7512615.582000
20
4691726.238000
40
0.062400
62
8
1
32
0
TEXT
8
PNTELEV
10
7512615.582000
20
4691726.160001
40
0.062400
1
0.000
0
TEXT
8
PNTDESC
10
7512615.582000
20
4691726.082001
40
0.062400
62
8
1

0
TEXT
8
PNTATTRS
10
7512615.582000
20
4691726.004002
40
0.062400
62
8
1

0
POINT
8
0
10
7512615.582000
20
4691726.238000
30
0.000000
0
TEXT
8
PNTNO
10
7512612.293000
20
4691728.929000
40
0.062400
62
8
1
33
0
TEXT
8
PNTELEV
10
7512612.293000
20
4691728.851001
40
0.062400
1
0.000
0
TEXT
8
PNTDESC
10
7512612.293000
20
4691728.773001
40
0.062400
62
8
1

0
TEXT
8
PNTATTRS
10
7512612.293000
20
4691728.695002
40
0.062400
62
8
1

0
POINT
8
0
10
7512612.293000
20
4691728.929000
30
0.000000
0
TEXT
8
PNTNO
10
7512612.134000
20
4691728.736000
40
0.062400
62
8
1
34
0
TEXT
8
PNTELEV
10
7512612.134000
20
4691728.658001
40
0.062400
1
0.000
0
TEXT
8
PNTDESC
10
7512612.134000
20
4691728.580001
40
0.062400
62
8
1

0
TEXT
8
PNTATTRS
10
7512612.134000
20
4691728.502002
40
0.062400
62
8
1

0
POINT
8
0
10
7512612.134000
20
4691728.736000
30
0.000000
0
TEXT
8
PNTNO
10
7512611.902000
20
4691728.926000
40
0.062400
62
8
1
35
0
TEXT
8
PNTELEV
10
7512611.902000
20
4691728.848001
40
0.062400
1
0.000
0
TEXT
8
PNTDESC
10
7512611.902000
20
4691728.770001
40
0.062400
62
8
1

0
TEXT
8
PNTATTRS
10
7512611.902000
20
4691728.692002
40
0.062400
62
8
1

0
POINT
8
0
10
7512611.902000
20
4691728.926000
30
0.000000
0
TEXT
8
PNTNO
10
7512612.061000
20
4691729.119000
40
0.062400
62
8
1
36
0
TEXT
8
PNTELEV
10
7512612.061000
20
4691729.041001
40
0.062400
1
0.000
0
TEXT
8
PNTDESC
10
7512612.061000
20
4691728.963001
40
0.062400
62
8
1

0
TEXT
8
PNTATTRS
10
7512612.061000
20
4691728.885002
40
0.062400
62
8
1

0
POINT
8
0
10
7512612.061000
20
4691729.119000
30
0.000000
0
TEXT
8
PNTNO
10
7512611.301000
20
4691728.190000
40
0.062400
62
8
1
37
0
TEXT
8
PNTELEV
10
7512611.301000
20
4691728.112001
40
0.062400
1
0.000
0
TEXT
8
PNTDESC
10
7512611.301000
20
4691728.034001
40
0.062400
62
8
1

0
TEXT
8
PNTATTRS
10
7512611.301000
20
4691727.956002
40
0.062400
62
8
1

0
POINT
8
0
10
7512611.301000
20
4691728.190000
30
0.000000
0
TEXT
8
PNTNO
10
7512611.533000
20
4691728.000000
40
0.062400
62
8
1
38
0
TEXT
8
PNTELEV
10
7512611.533000
20
4691727.922001
40
0.062400
1
0.000
0
TEXT
8
PNTDESC
10
7512611.533000
20
4691727.844001
40
0.062400
62
8
1

0
TEXT
8
PNTATTRS
10
7512611.533000
20
4691727.766002
40
0.062400
62
8
1

0
POINT
8
0
10
7512611.533000
20
4691728.000000
30
0.000000
0
TEXT
8
PNTNO
10
7512610.773000
20
4691727.072000
40
0.062400
62
8
1
39
0
TEXT
8
PNTELEV
10
7512610.773000
20
4691726.994001
40
0.062400
1
0.000
0
TEXT
8
PNTDESC
10
7512610.773000
20
4691726.916001
40
0.062400
62
8
1

0
TEXT
8
PNTATTRS
10
7512610.773000
20
4691726.838002
40
0.062400
62
8
1

0
POINT
8
0
10
7512610.773000
20
4691727.072000
30
0.000000
0
TEXT
8
PNTNO
10
7512610.541000
20
4691727.262000
40
0.062400
62
8
1
40
0
TEXT
8
PNTELEV
10
7512610.541000
20
4691727.184001
40
0.062400
1
0.000
0
TEXT
8
PNTDESC
10
7512610.541000
20
4691727.106001
40
0.062400
62
8
1

0
TEXT
8
PNTATTRS
10
7512610.541000
20
4691727.028002
40
0.062400
62
8
1

0
POINT
8
0
10
7512610.541000
20
4691727.262000
30
0.000000
0
TEXT
8
PNTNO
10
7512608.395000
20
4691724.166000
40
0.062400
62
8
1
41
0
TEXT
8
PNTELEV
10
7512608.395000
20
4691724.088001
40
0.062400
1
0.000
0
TEXT
8
PNTDESC
10
7512608.395000
20
4691724.010001
40
0.062400
62
8
1

0
TEXT
8
PNTATTRS
10
7512608.395000
20
4691723.932002
40
0.062400
62
8
1

0
POINT
8
0
10
7512608.395000
20
4691724.166000
30
0.000000
0
TEXT
8
PNTNO
10
7512607.698000
20
4691724.736000
40
0.062400
62
8
1
42
0
TEXT
8
PNTELEV
10
7512607.698000
20
4691724.658001
40
0.062400
1
0.000
0
TEXT
8
PNTDESC
10
7512607.698000
20
4691724.580001
40
0.062400
62
8
1

0
TEXT
8
PNTATTRS
10
7512607.698000
20
4691724.502002
40
0.062400
62
8
1

0
POINT
8
0
10
7512607.698000
20
4691724.736000
30
0.000000
0
TEXT
8
PNTNO
10
7512607.382000
20
4691724.349000
40
0.062400
62
8
1
43
0
TEXT
8
PNTELEV
10
7512607.382000
20
4691724.271001
40
0.062400
1
0.000
0
TEXT
8
PNTDESC
10
7512607.382000
20
4691724.193001
40
0.062400
62
8
1

0
TEXT
8
PNTATTRS
10
7512607.382000
20
4691724.115002
40
0.062400
62
8
1

0
POINT
8
0
10
7512607.382000
20
4691724.349000
30
0.000000
0
TEXT
8
PNTNO
10
7512608.078000
20
4691723.779000
40
0.062400
62
8
1
44
0
TEXT
8
PNTELEV
10
7512608.078000
20
4691723.701001
40
0.062400
1
0.000
0
TEXT
8
PNTDESC
10
7512608.078000
20
4691723.623001
40
0.062400
62
8
1

0
TEXT
8
PNTATTRS
10
7512608.078000
20
4691723.545002
40
0.062400
62
8
1

0
POINT
8
0
10
7512608.078000
20
4691723.779000
30
0.000000
0
TEXT
8
PNTNO
10
7512604.821000
20
4691719.798000
40
0.062400
62
8
1
45
0
TEXT
8
PNTELEV
10
7512604.821000
20
4691719.720001
40
0.062400
1
0.000
0
TEXT
8
PNTDESC
10
7512604.821000
20
4691719.642001
40
0.062400
62
8
1

0
TEXT
8
PNTATTRS
10
7512604.821000
20
4691719.564002
40
0.062400
62
8
1

0
POINT
8
0
10
7512604.821000
20
4691719.798000
30
0.000000
0
TEXT
8
PNTNO
10
7512603.582000
20
4691720.811000
40
0.062400
62
8
1
46
0
TEXT
8
PNTELEV
10
7512603.582000
20
4691720.733001
40
0.062400
1
0.000
0
TEXT
8
PNTDESC
10
7512603.582000
20
4691720.655001
40
0.062400
62
8
1

0
TEXT
8
PNTATTRS
10
7512603.582000
20
4691720.577002
40
0.062400
62
8
1

0
POINT
8
0
10
7512603.582000
20
4691720.811000
30
0.000000
0
TEXT
8
PNTNO
10
7512603.392000
20
4691720.579000
40
0.062400
62
8
1
47
0
TEXT
8
PNTELEV
10
7512603.392000
20
4691720.501001
40
0.062400
1
0.000
0
TEXT
8
PNTDESC
10
7512603.392000
20
4691720.423001
40
0.062400
62
8
1

0
TEXT
8
PNTATTRS
10
7512603.392000
20
4691720.345002
40
0.062400
62
8
1

0
POINT
8
0
10
7512603.392000
20
4691720.579000
30
0.000000
0
TEXT
8
PNTNO
10
7512604.631000
20
4691719.566000
40
0.062400
62
8
1
48
0
TEXT
8
PNTELEV
10
7512604.631000
20
4691719.488001
40
0.062400
1
0.000
0
TEXT
8
PNTDESC
10
7512604.631000
20
4691719.410001
40
0.062400
62
8
1

0
TEXT
8
PNTATTRS
10
7512604.631000
20
4691719.332002
40
0.062400
62
8
1

0
POINT
8
0
10
7512604.631000
20
4691719.566000
30
0.000000
0
TEXT
8
PNTNO
10
7512599.573000
20
4691715.912000
40
0.062400
62
8
1
49
0
TEXT
8
PNTELEV
10
7512599.573000
20
4691715.834001
40
0.062400
1
0.000
0
TEXT
8
PNTDESC
10
7512599.573000
20
4691715.756001
40
0.062400
62
8
1

0
TEXT
8
PNTATTRS
10
7512599.573000
20
4691715.678002
40
0.062400
62
8
1

0
POINT
8
0
10
7512599.573000
20
4691715.912000
30
0.000000
0
TEXT
8
PNTNO
10
7512599.805000
20
4691715.723000
40
0.062400
62
8
1
50
0
TEXT
8
PNTELEV
10
7512599.805000
20
4691715.645001
40
0.062400
1
0.000
0
TEXT
8
PNTDESC
10
7512599.805000
20
4691715.567001
40
0.062400
62
8
1

0
TEXT
8
PNTATTRS
10
7512599.805000
20
4691715.489002
40
0.062400
62
8
1

0
POINT
8
0
10
7512599.805000
20
4691715.723000
30
0.000000
0
TEXT
8
PNTNO
10
7512599.045000
20
4691714.794000
40
0.062400
62
8
1
51
0
TEXT
8
PNTELEV
10
7512599.045000
20
4691714.716001
40
0.062400
1
0.000
0
TEXT
8
PNTDESC
10
7512599.045000
20
4691714.638001
40
0.062400
62
8
1

0
TEXT
8
PNTATTRS
10
7512599.045000
20
4691714.560002
40
0.062400
62
8
1

0
POINT
8
0
10
7512599.045000
20
4691714.794000
30
0.000000
0
TEXT
8
PNTNO
10
7512598.814000
20
4691714.984000
40
0.062400
62
8
1
52
0
TEXT
8
PNTELEV
10
7512598.814000
20
4691714.906001
40
0.062400
1
0.000
0
TEXT
8
PNTDESC
10
7512598.814000
20
4691714.828001
40
0.062400
62
8
1

0
TEXT
8
PNTATTRS
10
7512598.814000
20
4691714.750002
40
0.062400
62
8
1

0
POINT
8
0
10
7512598.814000
20
4691714.984000
30
0.000000
0
TEXT
8
PNTNO
10
7512597.566000
20
4691713.459000
40
0.062400
62
8
1
53
0
TEXT
8
PNTELEV
10
7512597.566000
20
4691713.381001
40
0.062400
1
0.000
0
TEXT
8
PNTDESC
10
7512597.566000
20
4691713.303001
40
0.062400
62
8
1

0
TEXT
8
PNTATTRS
10
7512597.566000
20
4691713.225002
40
0.062400
62
8
1

0
POINT
8
0
10
7512597.566000
20
4691713.459000
30
0.000000
0
TEXT
8
PNTNO
10
7512597.797000
20
4691713.270000
40
0.062400
62
8
1
54
0
TEXT
8
PNTELEV
10
7512597.797000
20
4691713.192001
40
0.062400
1
0.000
0
TEXT
8
PNTDESC
10
7512597.797000
20
4691713.114001
40
0.062400
62
8
1

0
TEXT
8
PNTATTRS
10
7512597.797000
20
4691713.036002
40
0.062400
62
8
1

0
POINT
8
0
10
7512597.797000
20
4691713.270000
30
0.000000
0
TEXT
8
PNTNO
10
7512597.037000
20
4691712.341000
40
0.062400
62
8
1
55
0
TEXT
8
PNTELEV
10
7512597.037000
20
4691712.263001
40
0.062400
1
0.000
0
TEXT
8
PNTDESC
10
7512597.037000
20
4691712.185001
40
0.062400
62
8
1

0
TEXT
8
PNTATTRS
10
7512597.037000
20
4691712.107002
40
0.062400
62
8
1

0
POINT
8
0
10
7512597.037000
20
4691712.341000
30
0.000000
0
TEXT
8
PNTNO
10
7512596.806000
20
4691712.530000
40
0.062400
62
8
1
56
0
TEXT
8
PNTELEV
10
7512596.806000
20
4691712.452001
40
0.062400
1
0.000
0
TEXT
8
PNTDESC
10
7512596.806000
20
4691712.374001
40
0.062400
62
8
1

0
TEXT
8
PNTATTRS
10
7512596.806000
20
4691712.296002
40
0.062400
62
8
1

0
POINT
8
0
10
7512596.806000
20
4691712.530000
30
0.000000
0
TEXT
8
PNTNO
10
7512596.576000
20
4691711.775000
40
0.062400
62
8
1
57
0
TEXT
8
PNTELEV
10
7512596.576000
20
4691711.697001
40
0.062400
1
0.000
0
TEXT
8
PNTDESC
10
7512596.576000
20
4691711.619001
40
0.062400
62
8
1

0
TEXT
8
PNTATTRS
10
7512596.576000
20
4691711.541002
40
0.062400
62
8
1

0
POINT
8
0
10
7512596.576000
20
4691711.775000
30
0.000000
0
TEXT
8
PNTNO
10
7512596.418000
20
4691711.582000
40
0.062400
62
8
1
58
0
TEXT
8
PNTELEV
10
7512596.418000
20
4691711.504001
40
0.062400
1
0.000
0
TEXT
8
PNTDESC
10
7512596.418000
20
4691711.426001
40
0.062400
62
8
1

0
TEXT
8
PNTATTRS
10
7512596.418000
20
4691711.348002
40
0.062400
62
8
1

0
POINT
8
0
10
7512596.418000
20
4691711.582000
30
0.000000
0
TEXT
8
PNTNO
10
7512596.185000
20
4691711.772000
40
0.062400
62
8
1
59
0
TEXT
8
PNTELEV
10
7512596.185000
20
4691711.694001
40
0.062400
1
0.000
0
TEXT
8
PNTDESC
10
7512596.185000
20
4691711.616001
40
0.062400
62
8
1

0
TEXT
8
PNTATTRS
10
7512596.185000
20
4691711.538002
40
0.062400
62
8
1

0
POINT
8
0
10
7512596.185000
20
4691711.772000
30
0.000000
0
TEXT
8
PNTNO
10
7512596.344000
20
4691711.965000
40
0.062400
62
8
1
60
0
TEXT
8
PNTELEV
10
7512596.344000
20
4691711.887001
40
0.062400
1
0.000
0
TEXT
8
PNTDESC
10
7512596.344000
20
4691711.809001
40
0.062400
62
8
1

0
TEXT
8
PNTATTRS
10
7512596.344000
20
4691711.731002
40
0.062400
62
8
1

0
POINT
8
0
10
7512596.344000
20
4691711.965000
30
0.000000
0
TEXT
8
PNTNO
10
7512591.387000
20
4691715.698000
40
0.062400
62
8
1
61
0
TEXT
8
PNTELEV
10
7512591.387000
20
4691715.620001
40
0.062400
1
0.000
0
TEXT
8
PNTDESC
10
7512591.387000
20
4691715.542001
40
0.062400
62
8
1

0
TEXT
8
PNTATTRS
10
7512591.387000
20
4691715.464002
40
0.062400
62
8
1

0
POINT
8
0
10
7512591.387000
20
4691715.698000
30
0.000000
0
TEXT
8
PNTNO
10
7512591.545000
20
4691715.892000
40
0.062400
62
8
1
62
0
TEXT
8
PNTELEV
10
7512591.545000
20
4691715.814001
40
0.062400
1
0.000
0
TEXT
8
PNTDESC
10
7512591.545000
20
4691715.736001
40
0.062400
62
8
1

0
TEXT
8
PNTATTRS
10
7512591.545000
20
4691715.658002
40
0.062400
62
8
1

0
POINT
8
0
10
7512591.545000
20
4691715.892000
30
0.000000
0
TEXT
8
PNTNO
10
7512591.313000
20
4691716.082000
40
0.062400
62
8
1
63
0
TEXT
8
PNTELEV
10
7512591.313000
20
4691716.004001
40
0.062400
1
0.000
0
TEXT
8
PNTDESC
10
7512591.313000
20
4691715.926001
40
0.062400
62
8
1

0
TEXT
8
PNTATTRS
10
7512591.313000
20
4691715.848002
40
0.062400
62
8
1

0
POINT
8
0
10
7512591.313000
20
4691716.082000
30
0.000000
0
TEXT
8
PNTNO
10
7512591.155000
20
4691715.888000
40
0.062400
62
8
1
64
0
TEXT
8
PNTELEV
10
7512591.155000
20
4691715.810001
40
0.062400
1
0.000
0
TEXT
8
PNTDESC
10
7512591.155000
20
4691715.732001
40
0.062400
62
8
1

0
TEXT
8
PNTATTRS
10
7512591.155000
20
4691715.654002
40
0.062400
62
8
1

0
POINT
8
0
10
7512591.155000
20
4691715.888000
30
0.000000
0
TEXT
8
PNTNO
10
7512591.698000
20
4691716.710000
40
0.062400
62
8
1
65
0
TEXT
8
PNTELEV
10
7512591.698000
20
4691716.632001
40
0.062400
1
0.000
0
TEXT
8
PNTDESC
10
7512591.698000
20
4691716.554001
40
0.062400
62
8
1

0
TEXT
8
PNTATTRS
10
7512591.698000
20
4691716.476002
40
0.062400
62
8
1

0
POINT
8
0
10
7512591.698000
20
4691716.710000
30
0.000000
0
TEXT
8
PNTNO
10
7512592.085000
20
4691716.394000
40
0.062400
62
8
1
66
0
TEXT
8
PNTELEV
10
7512592.085000
20
4691716.316001
40
0.062400
1
0.000
0
TEXT
8
PNTDESC
10
7512592.085000
20
4691716.238001
40
0.062400
62
8
1

0
TEXT
8
PNTATTRS
10
7512592.085000
20
4691716.160002
40
0.062400
62
8
1

0
POINT
8
0
10
7512592.085000
20
4691716.394000
30
0.000000
0
TEXT
8
PNTNO
10
7512592.465000
20
4691716.858000
40
0.062400
62
8
1
67
0
TEXT
8
PNTELEV
10
7512592.465000
20
4691716.780001
40
0.062400
1
0.000
0
TEXT
8
PNTDESC
10
7512592.465000
20
4691716.702001
40
0.062400
62
8
1

0
TEXT
8
PNTATTRS
10
7512592.465000
20
4691716.624002
40
0.062400
62
8
1

0
POINT
8
0
10
7512592.465000
20
4691716.858000
30
0.000000
0
TEXT
8
PNTNO
10
7512592.078000
20
4691717.175000
40
0.062400
62
8
1
68
0
TEXT
8
PNTELEV
10
7512592.078000
20
4691717.097001
40
0.062400
1
0.000
0
TEXT
8
PNTDESC
10
7512592.078000
20
4691717.019001
40
0.062400
62
8
1

0
TEXT
8
PNTATTRS
10
7512592.078000
20
4691716.941002
40
0.062400
62
8
1

0
POINT
8
0
10
7512592.078000
20
4691717.175000
30
0.000000
0
TEXT
8
PNTNO
10
7512593.938000
20
4691718.974000
40
0.062400
62
8
1
69
0
TEXT
8
PNTELEV
10
7512593.938000
20
4691718.896001
40
0.062400
1
0.000
0
TEXT
8
PNTDESC
10
7512593.938000
20
4691718.818001
40
0.062400
62
8
1

0
TEXT
8
PNTATTRS
10
7512593.938000
20
4691718.740002
40
0.062400
62
8
1

0
POINT
8
0
10
7512593.938000
20
4691718.974000
30
0.000000
0
TEXT
8
PNTNO
10
7512593.707000
20
4691719.163000
40
0.062400
62
8
1
70
0
TEXT
8
PNTELEV
10
7512593.707000
20
4691719.085001
40
0.062400
1
0.000
0
TEXT
8
PNTDESC
10
7512593.707000
20
4691719.007001
40
0.062400
62
8
1

0
TEXT
8
PNTATTRS
10
7512593.707000
20
4691718.929002
40
0.062400
62
8
1

0
POINT
8
0
10
7512593.707000
20
4691719.163000
30
0.000000
0
TEXT
8
PNTNO
10
7512594.467000
20
4691720.091000
40
0.062400
62
8
1
71
0
TEXT
8
PNTELEV
10
7512594.467000
20
4691720.013001
40
0.062400
1
0.000
0
TEXT
8
PNTDESC
10
7512594.467000
20
4691719.935001
40
0.062400
62
8
1

0
TEXT
8
PNTATTRS
10
7512594.467000
20
4691719.857002
40
0.062400
62
8
1

0
POINT
8
0
10
7512594.467000
20
4691720.091000
30
0.000000
0
TEXT
8
PNTNO
10
7512594.698000
20
4691719.902000
40
0.062400
62
8
1
72
0
TEXT
8
PNTELEV
10
7512594.698000
20
4691719.824001
40
0.062400
1
0.000
0
TEXT
8
PNTDESC
10
7512594.698000
20
4691719.746001
40
0.062400
62
8
1

0
TEXT
8
PNTATTRS
10
7512594.698000
20
4691719.668002
40
0.062400
62
8
1

0
POINT
8
0
10
7512594.698000
20
4691719.902000
30
0.000000
0
TEXT
8
PNTNO
10
7512603.462000
20
4691727.621000
40
0.062400
62
8
1
73
0
TEXT
8
PNTELEV
10
7512603.462000
20
4691727.543001
40
0.062400
1
0.000
0
TEXT
8
PNTDESC
10
7512603.462000
20
4691727.465001
40
0.062400
62
8
1

0
TEXT
8
PNTATTRS
10
7512603.462000
20
4691727.387002
40
0.062400
62
8
1

0
POINT
8
0
10
7512603.462000
20
4691727.621000
30
0.000000
0
TEXT
8
PNTNO
10
7512602.765000
20
4691728.191000
40
0.062400
62
8
1
74
0
TEXT
8
PNTELEV
10
7512602.765000
20
4691728.113001
40
0.062400
1
0.000
0
TEXT
8
PNTDESC
10
7512602.765000
20
4691728.035001
40
0.062400
62
8
1

0
TEXT
8
PNTATTRS
10
7512602.765000
20
4691727.957002
40
0.062400
62
8
1

0
POINT
8
0
10
7512602.765000
20
4691728.191000
30
0.000000
0
TEXT
8
PNTNO
10
7512603.019000
20
4691728.501000
40
0.062400
62
8
1
75
0
TEXT
8
PNTELEV
10
7512603.019000
20
4691728.423001
40
0.062400
1
0.000
0
TEXT
8
PNTDESC
10
7512603.019000
20
4691728.345001
40
0.062400
62
8
1

0
TEXT
8
PNTATTRS
10
7512603.019000
20
4691728.267002
40
0.062400
62
8
1

0
POINT
8
0
10
7512603.019000
20
4691728.501000
30
0.000000
0
TEXT
8
PNTNO
10
7512603.715000
20
4691727.931000
40
0.062400
62
8
1
76
0
TEXT
8
PNTELEV
10
7512603.715000
20
4691727.853001
40
0.062400
1
0.000
0
TEXT
8
PNTDESC
10
7512603.715000
20
4691727.775001
40
0.062400
62
8
1

0
TEXT
8
PNTATTRS
10
7512603.715000
20
4691727.697002
40
0.062400
62
8
1

0
POINT
8
0
10
7512603.715000
20
4691727.931000
30
0.000000
0
TEXT
8
PNTNO
10
7512606.125000
20
4691730.875000
40
0.062400
62
8
1
77
0
TEXT
8
PNTELEV
10
7512606.125000
20
4691730.797001
40
0.062400
1
0.000
0
TEXT
8
PNTDESC
10
7512606.125000
20
4691730.719001
40
0.062400
62
8
1

0
TEXT
8
PNTATTRS
10
7512606.125000
20
4691730.641002
40
0.062400
62
8
1

0
POINT
8
0
10
7512606.125000
20
4691730.875000
30
0.000000
0
TEXT
8
PNTNO
10
7512605.893000
20
4691731.065000
40
0.062400
62
8
1
78
0
TEXT
8
PNTELEV
10
7512605.893000
20
4691730.987001
40
0.062400
1
0.000
0
TEXT
8
PNTDESC
10
7512605.893000
20
4691730.909001
40
0.062400
62
8
1

0
TEXT
8
PNTATTRS
10
7512605.893000
20
4691730.831002
40
0.062400
62
8
1

0
POINT
8
0
10
7512605.893000
20
4691731.065000
30
0.000000
0
TEXT
8
PNTNO
10
7512606.653000
20
4691731.994000
40
0.062400
62
8
1
79
0
TEXT
8
PNTELEV
10
7512606.653000
20
4691731.916001
40
0.062400
1
0.000
0
TEXT
8
PNTDESC
10
7512606.653000
20
4691731.838001
40
0.062400
62
8
1

0
TEXT
8
PNTATTRS
10
7512606.653000
20
4691731.760002
40
0.062400
62
8
1

0
POINT
8
0
10
7512606.653000
20
4691731.994000
30
0.000000
0
TEXT
8
PNTNO
10
7512606.885000
20
4691731.804000
40
0.062400
62
8
1
80
0
TEXT
8
PNTELEV
10
7512606.885000
20
4691731.726001
40
0.062400
1
0.000
0
TEXT
8
PNTDESC
10
7512606.885000
20
4691731.648001
40
0.062400
62
8
1

0
TEXT
8
PNTATTRS
10
7512606.885000
20
4691731.570002
40
0.062400
62
8
1

0
POINT
8
0
10
7512606.885000
20
4691731.804000
30
0.000000
0
TEXT
8
PNTNO
10
7512607.486000
20
4691732.539000
40
0.062400
62
8
1
81
0
TEXT
8
PNTELEV
10
7512607.486000
20
4691732.461001
40
0.062400
1
0.000
0
TEXT
8
PNTDESC
10
7512607.486000
20
4691732.383001
40
0.062400
62
8
1

0
TEXT
8
PNTATTRS
10
7512607.486000
20
4691732.305002
40
0.062400
62
8
1

0
POINT
8
0
10
7512607.486000
20
4691732.539000
30
0.000000
0
TEXT
8
PNTNO
10
7512607.645000
20
4691732.733000
40
0.062400
62
8
1
82
0
TEXT
8
PNTELEV
10
7512607.645000
20
4691732.655001
40
0.062400
1
0.000
0
TEXT
8
PNTDESC
10
7512607.645000
20
4691732.577001
40
0.062400
62
8
1

0
TEXT
8
PNTATTRS
10
7512607.645000
20
4691732.499002
40
0.062400
62
8
1

0
POINT
8
0
10
7512607.645000
20
4691732.733000
30
0.000000
0
TEXT
8
PNTNO
10
7512607.413000
20
4691732.923000
40
0.062400
62
8
1
83
0
TEXT
8
PNTELEV
10
7512607.413000
20
4691732.845001
40
0.062400
1
0.000
0
TEXT
8
PNTDESC
10
7512607.413000
20
4691732.767001
40
0.062400
62
8
1

0
TEXT
8
PNTATTRS
10
7512607.413000
20
4691732.689002
40
0.062400
62
8
1

0
POINT
8
0
10
7512607.413000
20
4691732.923000
30
0.000000
0
TEXT
8
PNTNO
10
7512607.254000
20
4691732.729000
40
0.062400
62
8
1
84
0
TEXT
8
PNTELEV
10
7512607.254000
20
4691732.651001
40
0.062400
1
0.000
0
TEXT
8
PNTDESC
10
7512607.254000
20
4691732.573001
40
0.062400
62
8
1

0
TEXT
8
PNTATTRS
10
7512607.254000
20
4691732.495002
40
0.062400
62
8
1

0
POINT
8
0
10
7512607.254000
20
4691732.729000
30
0.000000
0
TEXT
8
PNTNO
10
7512604.336000
20
4691735.440000
40
0.062400
62
8
1
85
0
TEXT
8
PNTELEV
10
7512604.336000
20
4691735.362001
40
0.062400
1
0.000
0
TEXT
8
PNTDESC
10
7512604.336000
20
4691735.284001
40
0.062400
62
8
1

0
TEXT
8
PNTATTRS
10
7512604.336000
20
4691735.206002
40
0.062400
62
8
1

0
POINT
8
0
10
7512604.336000
20
4691735.440000
30
0.000000
0
TEXT
8
PNTNO
10
7512604.104000
20
4691735.630000
40
0.062400
62
8
1
86
0
TEXT
8
PNTELEV
10
7512604.104000
20
4691735.552001
40
0.062400
1
0.000
0
TEXT
8
PNTDESC
10
7512604.104000
20
4691735.474001
40
0.062400
62
8
1

0
TEXT
8
PNTATTRS
10
7512604.104000
20
4691735.396002
40
0.062400
62
8
1

0
POINT
8
0
10
7512604.104000
20
4691735.630000
30
0.000000
0
TEXT
8
PNTNO
10
7512603.946000
20
4691735.437000
40
0.062400
62
8
1
87
0
TEXT
8
PNTELEV
10
7512603.946000
20
4691735.359001
40
0.062400
1
0.000
0
TEXT
8
PNTDESC
10
7512603.946000
20
4691735.281001
40
0.062400
62
8
1

0
TEXT
8
PNTATTRS
10
7512603.946000
20
4691735.203002
40
0.062400
62
8
1

0
POINT
8
0
10
7512603.946000
20
4691735.437000
30
0.000000
0
TEXT
8
PNTNO
10
7512604.178000
20
4691735.247000
40
0.062400
62
8
1
88
0
TEXT
8
PNTELEV
10
7512604.178000
20
4691735.169001
40
0.062400
1
0.000
0
TEXT
8
PNTDESC
10
7512604.178000
20
4691735.091001
40
0.062400
62
8
1

0
TEXT
8
PNTATTRS
10
7512604.178000
20
4691735.013002
40
0.062400
62
8
1

0
POINT
8
0
10
7512604.178000
20
4691735.247000
30
0.000000
0
TEXT
8
PNTNO
10
7512603.576000
20
4691734.511000
40
0.062400
62
8
1
89
0
TEXT
8
PNTELEV
10
7512603.576000
20
4691734.433001
40
0.062400
1
0.000
0
TEXT
8
PNTDESC
10
7512603.576000
20
4691734.355001
40
0.062400
62
8
1

0
TEXT
8
PNTATTRS
10
7512603.576000
20
4691734.277002
40
0.062400
62
8
1

0
POINT
8
0
10
7512603.576000
20
4691734.511000
30
0.000000
0
TEXT
8
PNTNO
10
7512603.344000
20
4691734.701000
40
0.062400
62
8
1
90
0
TEXT
8
PNTELEV
10
7512603.344000
20
4691734.623001
40
0.062400
1
0.000
0
TEXT
8
PNTDESC
10
7512603.344000
20
4691734.545001
40
0.062400
62
8
1

0
TEXT
8
PNTATTRS
10
7512603.344000
20
4691734.467002
40
0.062400
62
8
1

0
POINT
8
0
10
7512603.344000
20
4691734.701000
30
0.000000
0
TEXT
8
PNTNO
10
7512602.584000
20
4691733.773000
40
0.062400
62
8
1
91
0
TEXT
8
PNTELEV
10
7512602.584000
20
4691733.695001
40
0.062400
1
0.000
0
TEXT
8
PNTDESC
10
7512602.584000
20
4691733.617001
40
0.062400
62
8
1

0
TEXT
8
PNTATTRS
10
7512602.584000
20
4691733.539002
40
0.062400
62
8
1

0
POINT
8
0
10
7512602.584000
20
4691733.773000
30
0.000000
0
TEXT
8
PNTNO
10
7512602.816000
20
4691733.583000
40
0.062400
62
8
1
92
0
TEXT
8
PNTELEV
10
7512602.816000
20
4691733.505001
40
0.062400
1
0.000
0
TEXT
8
PNTDESC
10
7512602.816000
20
4691733.427001
40
0.062400
62
8
1

0
TEXT
8
PNTATTRS
10
7512602.816000
20
4691733.349002
40
0.062400
62
8
1

0
POINT
8
0
10
7512602.816000
20
4691733.583000
30
0.000000
0
TEXT
8
PNTNO
10
7512599.955000
20
4691731.072000
40
0.062400
62
8
1
93
0
TEXT
8
PNTELEV
10
7512599.955000
20
4691730.994001
40
0.062400
1
0.000
0
TEXT
8
PNTDESC
10
7512599.955000
20
4691730.916001
40
0.062400
62
8
1

0
TEXT
8
PNTATTRS
10
7512599.955000
20
4691730.838002
40
0.062400
62
8
1

0
POINT
8
0
10
7512599.955000
20
4691731.072000
30
0.000000
0
TEXT
8
PNTNO
10
7512600.419000
20
4691730.692000
40
0.062400
62
8
1
94
0
TEXT
8
PNTELEV
10
7512600.419000
20
4691730.614001
40
0.062400
1
0.000
0
TEXT
8
PNTDESC
10
7512600.419000
20
4691730.536001
40
0.062400
62
8
1

0
TEXT
8
PNTATTRS
10
7512600.419000
20
4691730.458002
40
0.062400
62
8
1

0
POINT
8
0
10
7512600.419000
20
4691730.692000
30
0.000000
0
TEXT
8
PNTNO
10
7512600.102000
20
4691730.306000
40
0.062400
62
8
1
95
0
TEXT
8
PNTELEV
10
7512600.102000
20
4691730.228001
40
0.062400
1
0.000
0
TEXT
8
PNTDESC
10
7512600.102000
20
4691730.150001
40
0.062400
62
8
1

0
TEXT
8
PNTATTRS
10
7512600.102000
20
4691730.072002
40
0.062400
62
8
1

0
POINT
8
0
10
7512600.102000
20
4691730.306000
30
0.000000
0
TEXT
8
PNTNO
10
7512599.638000
20
4691730.685000
40
0.062400
62
8
1
96
0
TEXT
8
PNTELEV
10
7512599.638000
20
4691730.607001
40
0.062400
1
0.000
0
TEXT
8
PNTDESC
10
7512599.638000
20
4691730.529001
40
0.062400
62
8
1

0
TEXT
8
PNTATTRS
10
7512599.638000
20
4691730.451002
40
0.062400
62
8
1

0
POINT
8
0
10
7512599.638000
20
4691730.685000
30
0.000000
0
TEXT
8
PNTNO
10
7512591.641000
20
4691722.404000
40
0.062400
62
8
1
97
0
TEXT
8
PNTELEV
10
7512591.641000
20
4691722.326001
40
0.062400
1
0.000
0
TEXT
8
PNTDESC
10
7512591.641000
20
4691722.248001
40
0.062400
62
8
1

0
TEXT
8
PNTATTRS
10
7512591.641000
20
4691722.170002
40
0.062400
62
8
1

0
POINT
8
0
10
7512591.641000
20
4691722.404000
30
0.000000
0
TEXT
8
PNTNO
10
7512591.331000
20
4691722.657000
40
0.062400
62
8
1
98
0
TEXT
8
PNTELEV
10
7512591.331000
20
4691722.579001
40
0.062400
1
0.000
0
TEXT
8
PNTDESC
10
7512591.331000
20
4691722.501001
40
0.062400
62
8
1

0
TEXT
8
PNTATTRS
10
7512591.331000
20
4691722.423002
40
0.062400
62
8
1

0
POINT
8
0
10
7512591.331000
20
4691722.657000
30
0.000000
0
TEXT
8
PNTNO
10
7512590.571000
20
4691721.728000
40
0.062400
62
8
1
99
0
TEXT
8
PNTELEV
10
7512590.571000
20
4691721.650001
40
0.062400
1
0.000
0
TEXT
8
PNTDESC
10
7512590.571000
20
4691721.572001
40
0.062400
62
8
1

0
TEXT
8
PNTATTRS
10
7512590.571000
20
4691721.494002
40
0.062400
62
8
1

0
POINT
8
0
10
7512590.571000
20
4691721.728000
30
0.000000
0
TEXT
8
PNTNO
10
7512590.881000
20
4691721.475000
40
0.062400
62
8
1
100
0
TEXT
8
PNTELEV
10
7512590.881000
20
4691721.397001
40
0.062400
1
0.000
0
TEXT
8
PNTDESC
10
7512590.881000
20
4691721.319001
40
0.062400
62
8
1

0
TEXT
8
PNTATTRS
10
7512590.881000
20
4691721.241002
40
0.062400
62
8
1

0
POINT
8
0
10
7512590.881000
20
4691721.475000
30
0.000000
0
TEXT
8
PNTNO
10
7512589.514000
20
4691720.436000
40
0.062400
62
8
1
101
0
TEXT
8
PNTELEV
10
7512589.514000
20
4691720.358001
40
0.062400
1
0.000
0
TEXT
8
PNTDESC
10
7512589.514000
20
4691720.280001
40
0.062400
62
8
1

0
TEXT
8
PNTATTRS
10
7512589.514000
20
4691720.202002
40
0.062400
62
8
1

0
POINT
8
0
10
7512589.514000
20
4691720.436000
30
0.000000
0
TEXT
8
PNTNO
10
7512589.823000
20
4691720.183000
40
0.062400
62
8
1
102
0
TEXT
8
PNTELEV
10
7512589.823000
20
4691720.105001
40
0.062400
1
0.000
0
TEXT
8
PNTDESC
10
7512589.823000
20
4691720.027001
40
0.062400
62
8
1

0
TEXT
8
PNTATTRS
10
7512589.823000
20
4691719.949002
40
0.062400
62
8
1

0
POINT
8
0
10
7512589.823000
20
4691720.183000
30
0.000000
0
TEXT
8
PNTNO
10
7512588.873000
20
4691719.022000
40
0.062400
62
8
1
103
0
TEXT
8
PNTELEV
10
7512588.873000
20
4691718.944001
40
0.062400
1
0.000
0
TEXT
8
PNTDESC
10
7512588.873000
20
4691718.866001
40
0.062400
62
8
1

0
TEXT
8
PNTATTRS
10
7512588.873000
20
4691718.788002
40
0.062400
62
8
1

0
POINT
8
0
10
7512588.873000
20
4691719.022000
30
0.000000
0
TEXT
8
PNTNO
10
7512588.564000
20
4691719.275000
40
0.062400
62
8
1
104
0
TEXT
8
PNTELEV
10
7512588.564000
20
4691719.197001
40
0.062400
1
0.000
0
TEXT
8
PNTDESC
10
7512588.564000
20
4691719.119001
40
0.062400
62
8
1

0
TEXT
8
PNTATTRS
10
7512588.564000
20
4691719.041002
40
0.062400
62
8
1

0
POINT
8
0
10
7512588.564000
20
4691719.275000
30
0.000000
0
TEXT
8
PNTNO
10
7512588.102000
20
4691718.710000
40
0.062400
62
8
1
105
0
TEXT
8
PNTELEV
10
7512588.102000
20
4691718.632001
40
0.062400
1
0.000
0
TEXT
8
PNTDESC
10
7512588.102000
20
4691718.554001
40
0.062400
62
8
1

0
TEXT
8
PNTATTRS
10
7512588.102000
20
4691718.476002
40
0.062400
62
8
1

0
POINT
8
0
10
7512588.102000
20
4691718.710000
30
0.000000
0
TEXT
8
PNTNO
10
7512587.943000
20
4691718.517000
40
0.062400
62
8
1
106
0
TEXT
8
PNTELEV
10
7512587.943000
20
4691718.439001
40
0.062400
1
0.000
0
TEXT
8
PNTDESC
10
7512587.943000
20
4691718.361001
40
0.062400
62
8
1

0
TEXT
8
PNTATTRS
10
7512587.943000
20
4691718.283002
40
0.062400
62
8
1

0
POINT
8
0
10
7512587.943000
20
4691718.517000
30
0.000000
0
TEXT
8
PNTNO
10
7512588.253000
20
4691718.263000
40
0.062400
62
8
1
107
0
TEXT
8
PNTELEV
10
7512588.253000
20
4691718.185001
40
0.062400
1
0.000
0
TEXT
8
PNTDESC
10
7512588.253000
20
4691718.107001
40
0.062400
62
8
1

0
TEXT
8
PNTATTRS
10
7512588.253000
20
4691718.029002
40
0.062400
62
8
1

0
POINT
8
0
10
7512588.253000
20
4691718.263000
30
0.000000
0
TEXT
8
PNTNO
10
7512588.411000
20
4691718.457000
40
0.062400
62
8
1
108
0
TEXT
8
PNTELEV
10
7512588.411000
20
4691718.379001
40
0.062400
1
0.000
0
TEXT
8
PNTDESC
10
7512588.411000
20
4691718.301001
40
0.062400
62
8
1

0
TEXT
8
PNTATTRS
10
7512588.411000
20
4691718.223002
40
0.062400
62
8
1

0
POINT
8
0
10
7512588.411000
20
4691718.457000
30
0.000000
0
TEXT
8
PNTNO
10
7512599.961000
20
4691724.606000
40
0.062400
62
8
1
109
0
TEXT
8
PNTELEV
10
7512599.961000
20
4691724.528001
40
0.062400
1
0.000
0
TEXT
8
PNTDESC
10
7512599.961000
20
4691724.450001
40
0.062400
62
8
1

0
TEXT
8
PNTATTRS
10
7512599.961000
20
4691724.372002
40
0.062400
62
8
1

0
POINT
8
0
10
7512599.961000
20
4691724.606000
30
0.000000
0
TEXT
8
PNTNO
10
7512600.155000
20
4691724.448000
40
0.062400
62
8
1
110
0
TEXT
8
PNTELEV
10
7512600.155000
20
4691724.370001
40
0.062400
1
0.000
0
TEXT
8
PNTDESC
10
7512600.155000
20
4691724.292001
40
0.062400
62
8
1

0
TEXT
8
PNTATTRS
10
7512600.155000
20
4691724.214002
40
0.062400
62
8
1

0
POINT
8
0
10
7512600.155000
20
4691724.448000
30
0.000000
0
TEXT
8
PNTNO
10
7512598.096000
20
4691721.933000
40
0.062400
62
8
1
111
0
TEXT
8
PNTELEV
10
7512598.096000
20
4691721.855001
40
0.062400
1
0.000
0
TEXT
8
PNTDESC
10
7512598.096000
20
4691721.777001
40
0.062400
62
8
1

0
TEXT
8
PNTATTRS
10
7512598.096000
20
4691721.699002
40
0.062400
62
8
1

0
POINT
8
0
10
7512598.096000
20
4691721.933000
30
0.000000
0
TEXT
8
PNTNO
10
7512598.061000
20
4691722.285000
40
0.062400
62
8
1
112
0
TEXT
8
PNTELEV
10
7512598.061000
20
4691722.207001
40
0.062400
1
0.000
0
TEXT
8
PNTDESC
10
7512598.061000
20
4691722.129001
40
0.062400
62
8
1

0
TEXT
8
PNTATTRS
10
7512598.061000
20
4691722.051002
40
0.062400
62
8
1

0
POINT
8
0
10
7512598.061000
20
4691722.285000
30
0.000000
0
TEXT
8
PNTNO
10
7512595.272000
20
4691724.244000
40
0.062400
62
8
1
113
0
TEXT
8
PNTELEV
10
7512595.272000
20
4691724.166001
40
0.062400
1
0.000
0
TEXT
8
PNTDESC
10
7512595.272000
20
4691724.088001
40
0.062400
62
8
1

0
TEXT
8
PNTATTRS
10
7512595.272000
20
4691724.010002
40
0.062400
62
8
1

0
POINT
8
0
10
7512595.272000
20
4691724.244000
30
0.000000
0
TEXT
8
PNTNO
10
7512595.430000
20
4691724.438000
40
0.062400
62
8
1
114
0
TEXT
8
PNTELEV
10
7512595.430000
20
4691724.360001
40
0.062400
1
0.000
0
TEXT
8
PNTDESC
10
7512595.430000
20
4691724.282001
40
0.062400
62
8
1

0
TEXT
8
PNTATTRS
10
7512595.430000
20
4691724.204002
40
0.062400
62
8
1

0
POINT
8
0
10
7512595.430000
20
4691724.438000
30
0.000000
0
TEXT
8
PNTNO
10
7512597.327000
20
4691726.756000
40
0.062400
62
8
1
115
0
TEXT
8
PNTELEV
10
7512597.327000
20
4691726.678001
40
0.062400
1
0.000
0
TEXT
8
PNTDESC
10
7512597.327000
20
4691726.600001
40
0.062400
62
8
1

0
TEXT
8
PNTATTRS
10
7512597.327000
20
4691726.522002
40
0.062400
62
8
1

0
POINT
8
0
10
7512597.327000
20
4691726.756000
30
0.000000
0
TEXT
8
PNTNO
10
7512597.133000
20
4691726.914000
40
0.062400
62
8
1
116
0
TEXT
8
PNTELEV
10
7512597.133000
20
4691726.836001
40
0.062400
1
0.000
0
TEXT
8
PNTDESC
10
7512597.133000
20
4691726.758001
40
0.062400
62
8
1

0
TEXT
8
PNTATTRS
10
7512597.133000
20
4691726.680002
40
0.062400
62
8
1

0
POINT
8
0
10
7512597.133000
20
4691726.914000
30
0.000000
0
TEXT
8
PNTNO
10
7512593.308000
20
4691722.240000
40
0.062400
62
8
1
117
0
TEXT
8
PNTELEV
10
7512593.308000
20
4691722.162001
40
0.062400
1
0.000
0
TEXT
8
PNTDESC
10
7512593.308000
20
4691722.084001
40
0.062400
62
8
1

0
TEXT
8
PNTATTRS
10
7512593.308000
20
4691722.006002
40
0.062400
62
8
1

0
POINT
8
0
10
7512593.308000
20
4691722.240000
30
0.000000
0
TEXT
8
PNTNO
10
7512593.343000
20
4691721.888000
40
0.062400
62
8
1
118
0
TEXT
8
PNTELEV
10
7512593.343000
20
4691721.810001
40
0.062400
1
0.000
0
TEXT
8
PNTDESC
10
7512593.343000
20
4691721.732001
40
0.062400
62
8
1

0
TEXT
8
PNTATTRS
10
7512593.343000
20
4691721.654002
40
0.062400
62
8
1

0
POINT
8
0
10
7512593.343000
20
4691721.888000
30
0.000000
0
TEXT
8
PNTNO
10
7512590.635000
20
4691724.104000
40
0.062400
62
8
1
119
0
TEXT
8
PNTELEV
10
7512590.635000
20
4691724.026001
40
0.062400
1
0.000
0
TEXT
8
PNTDESC
10
7512590.635000
20
4691723.948001
40
0.062400
62
8
1

0
TEXT
8
PNTATTRS
10
7512590.635000
20
4691723.870002
40
0.062400
62
8
1

0
POINT
8
0
10
7512590.635000
20
4691724.104000
30
0.000000
0
TEXT
8
PNTNO
10
7512590.986000
20
4691724.140000
40
0.062400
62
8
1
120
0
TEXT
8
PNTELEV
10
7512590.986000
20
4691724.062001
40
0.062400
1
0.000
0
TEXT
8
PNTDESC
10
7512590.986000
20
4691723.984001
40
0.062400
62
8
1

0
TEXT
8
PNTATTRS
10
7512590.986000
20
4691723.906002
40
0.062400
62
8
1

0
POINT
8
0
10
7512590.986000
20
4691724.140000
30
0.000000
0
TEXT
8
PNTNO
10
7512594.811000
20
4691728.814000
40
0.062400
62
8
1
121
0
TEXT
8
PNTELEV
10
7512594.811000
20
4691728.736001
40
0.062400
1
0.000
0
TEXT
8
PNTDESC
10
7512594.811000
20
4691728.658001
40
0.062400
62
8
1

0
TEXT
8
PNTATTRS
10
7512594.811000
20
4691728.580002
40
0.062400
62
8
1

0
POINT
8
0
10
7512594.811000
20
4691728.814000
30
0.000000
0
TEXT
8
PNTNO
10
7512594.618000
20
4691728.972000
40
0.062400
62
8
1
122
0
TEXT
8
PNTELEV
10
7512594.618000
20
4691728.894001
40
0.062400
1
0.000
0
TEXT
8
PNTDESC
10
7512594.618000
20
4691728.816001
40
0.062400
62
8
1

0
TEXT
8
PNTATTRS
10
7512594.618000
20
4691728.738002
40
0.062400
62
8
1

0
POINT
8
0
10
7512594.618000
20
4691728.972000
30
0.000000
0
TEXT
8
PNTNO
10
7512587.959000
20
4691725.454000
40
0.062400
62
8
1
123
0
TEXT
8
PNTELEV
10
7512587.959000
20
4691725.376001
40
0.062400
1
0.000
0
TEXT
8
PNTDESC
10
7512587.959000
20
4691725.298001
40
0.062400
62
8
1

0
TEXT
8
PNTATTRS
10
7512587.959000
20
4691725.220002
40
0.062400
62
8
1

0
POINT
8
0
10
7512587.959000
20
4691725.454000
30
0.000000
0
TEXT
8
PNTNO
10
7512587.727000
20
4691725.644000
40
0.062400
62
8
1
124
0
TEXT
8
PNTELEV
10
7512587.727000
20
4691725.566001
40
0.062400
1
0.000
0
TEXT
8
PNTDESC
10
7512587.727000
20
4691725.488001
40
0.062400
62
8
1

0
TEXT
8
PNTATTRS
10
7512587.727000
20
4691725.410002
40
0.062400
62
8
1

0
POINT
8
0
10
7512587.727000
20
4691725.644000
30
0.000000
0
TEXT
8
PNTNO
10
7512587.885000
20
4691725.837000
40
0.062400
62
8
1
125
0
TEXT
8
PNTELEV
10
7512587.885000
20
4691725.759001
40
0.062400
1
0.000
0
TEXT
8
PNTDESC
10
7512587.885000
20
4691725.681001
40
0.062400
62
8
1

0
TEXT
8
PNTATTRS
10
7512587.885000
20
4691725.603002
40
0.062400
62
8
1

0
POINT
8
0
10
7512587.885000
20
4691725.837000
30
0.000000
0
TEXT
8
PNTNO
10
7512588.118000
20
4691725.647000
40
0.062400
62
8
1
126
0
TEXT
8
PNTELEV
10
7512588.118000
20
4691725.569001
40
0.062400
1
0.000
0
TEXT
8
PNTDESC
10
7512588.118000
20
4691725.491001
40
0.062400
62
8
1

0
TEXT
8
PNTATTRS
10
7512588.118000
20
4691725.413002
40
0.062400
62
8
1

0
POINT
8
0
10
7512588.118000
20
4691725.647000
30
0.000000
0
TEXT
8
PNTNO
10
7512588.811000
20
4691726.495000
40
0.062400
62
8
1
127
0
TEXT
8
PNTELEV
10
7512588.811000
20
4691726.417001
40
0.062400
1
0.000
0
TEXT
8
PNTDESC
10
7512588.811000
20
4691726.339001
40
0.062400
62
8
1

0
TEXT
8
PNTATTRS
10
7512588.811000
20
4691726.261002
40
0.062400
62
8
1

0
POINT
8
0
10
7512588.811000
20
4691726.495000
30
0.000000
0
TEXT
8
PNTNO
10
7512588.579000
20
4691726.685000
40
0.062400
62
8
1
128
0
TEXT
8
PNTELEV
10
7512588.579000
20
4691726.607001
40
0.062400
1
0.000
0
TEXT
8
PNTDESC
10
7512588.579000
20
4691726.529001
40
0.062400
62
8
1

0
TEXT
8
PNTATTRS
10
7512588.579000
20
4691726.451002
40
0.062400
62
8
1

0
POINT
8
0
10
7512588.579000
20
4691726.685000
30
0.000000
0
TEXT
8
PNTNO
10
7512589.339000
20
4691727.613000
40
0.062400
62
8
1
129
0
TEXT
8
PNTELEV
10
7512589.339000
20
4691727.535001
40
0.062400
1
0.000
0
TEXT
8
PNTDESC
10
7512589.339000
20
4691727.457001
40
0.062400
62
8
1

0
TEXT
8
PNTATTRS
10
7512589.339000
20
4691727.379002
40
0.062400
62
8
1

0
POINT
8
0
10
7512589.339000
20
4691727.613000
30
0.000000
0
TEXT
8
PNTNO
10
7512589.571000
20
4691727.423000
40
0.062400
62
8
1
130
0
TEXT
8
PNTELEV
10
7512589.571000
20
4691727.345001
40
0.062400
1
0.000
0
TEXT
8
PNTDESC
10
7512589.571000
20
4691727.267001
40
0.062400
62
8
1

0
TEXT
8
PNTATTRS
10
7512589.571000
20
4691727.189002
40
0.062400
62
8
1

0
POINT
8
0
10
7512589.571000
20
4691727.423000
30
0.000000
0
TEXT
8
PNTNO
10
7512590.777000
20
4691728.898000
40
0.062400
62
8
1
131
0
TEXT
8
PNTELEV
10
7512590.777000
20
4691728.820001
40
0.062400
1
0.000
0
TEXT
8
PNTDESC
10
7512590.777000
20
4691728.742001
40
0.062400
62
8
1

0
TEXT
8
PNTATTRS
10
7512590.777000
20
4691728.664002
40
0.062400
62
8
1

0
POINT
8
0
10
7512590.777000
20
4691728.898000
30
0.000000
0
TEXT
8
PNTNO
10
7512590.545000
20
4691729.088000
40
0.062400
62
8
1
132
0
TEXT
8
PNTELEV
10
7512590.545000
20
4691729.010001
40
0.062400
1
0.000
0
TEXT
8
PNTDESC
10
7512590.545000
20
4691728.932001
40
0.062400
62
8
1

0
TEXT
8
PNTATTRS
10
7512590.545000
20
4691728.854002
40
0.062400
62
8
1

0
POINT
8
0
10
7512590.545000
20
4691729.088000
30
0.000000
0
TEXT
8
PNTNO
10
7512591.305000
20
4691730.016000
40
0.062400
62
8
1
133
0
TEXT
8
PNTELEV
10
7512591.305000
20
4691729.938001
40
0.062400
1
0.000
0
TEXT
8
PNTDESC
10
7512591.305000
20
4691729.860001
40
0.062400
62
8
1

0
TEXT
8
PNTATTRS
10
7512591.305000
20
4691729.782002
40
0.062400
62
8
1

0
POINT
8
0
10
7512591.305000
20
4691730.016000
30
0.000000
0
TEXT
8
PNTNO
10
7512591.537000
20
4691729.826000
40
0.062400
62
8
1
134
0
TEXT
8
PNTELEV
10
7512591.537000
20
4691729.748001
40
0.062400
1
0.000
0
TEXT
8
PNTDESC
10
7512591.537000
20
4691729.670001
40
0.062400
62
8
1

0
TEXT
8
PNTATTRS
10
7512591.537000
20
4691729.592002
40
0.062400
62
8
1

0
POINT
8
0
10
7512591.537000
20
4691729.826000
30
0.000000
0
TEXT
8
PNTNO
10
7512595.227000
20
4691734.295000
40
0.062400
62
8
1
135
0
TEXT
8
PNTELEV
10
7512595.227000
20
4691734.217001
40
0.062400
1
0.000
0
TEXT
8
PNTDESC
10
7512595.227000
20
4691734.139001
40
0.062400
62
8
1

0
TEXT
8
PNTATTRS
10
7512595.227000
20
4691734.061002
40
0.062400
62
8
1

0
POINT
8
0
10
7512595.227000
20
4691734.295000
30
0.000000
0
TEXT
8
PNTNO
10
7512594.995000
20
4691734.485000
40
0.062400
62
8
1
136
0
TEXT
8
PNTELEV
10
7512594.995000
20
4691734.407001
40
0.062400
1
0.000
0
TEXT
8
PNTDESC
10
7512594.995000
20
4691734.329001
40
0.062400
62
8
1

0
TEXT
8
PNTATTRS
10
7512594.995000
20
4691734.251002
40
0.062400
62
8
1

0
POINT
8
0
10
7512594.995000
20
4691734.485000
30
0.000000
0
TEXT
8
PNTNO
10
7512595.754000
20
4691735.414000
40
0.062400
62
8
1
137
0
TEXT
8
PNTELEV
10
7512595.754000
20
4691735.336001
40
0.062400
1
0.000
0
TEXT
8
PNTDESC
10
7512595.754000
20
4691735.258001
40
0.062400
62
8
1

0
TEXT
8
PNTATTRS
10
7512595.754000
20
4691735.180002
40
0.062400
62
8
1

0
POINT
8
0
10
7512595.754000
20
4691735.414000
30
0.000000
0
TEXT
8
PNTNO
10
7512595.987000
20
4691735.224000
40
0.062400
62
8
1
138
0
TEXT
8
PNTELEV
10
7512595.987000
20
4691735.146001
40
0.062400
1
0.000
0
TEXT
8
PNTDESC
10
7512595.987000
20
4691735.068001
40
0.062400
62
8
1

0
TEXT
8
PNTATTRS
10
7512595.987000
20
4691734.990002
40
0.062400
62
8
1

0
POINT
8
0
10
7512595.987000
20
4691735.224000
30
0.000000
0
TEXT
8
PNTNO
10
7512597.921000
20
4691737.588000
40
0.062400
62
8
1
139
0
TEXT
8
PNTELEV
10
7512597.921000
20
4691737.510001
40
0.062400
1
0.000
0
TEXT
8
PNTDESC
10
7512597.921000
20
4691737.432001
40
0.062400
62
8
1

0
TEXT
8
PNTATTRS
10
7512597.921000
20
4691737.354002
40
0.062400
62
8
1

0
POINT
8
0
10
7512597.921000
20
4691737.588000
30
0.000000
0
TEXT
8
PNTNO
10
7512597.689000
20
4691737.778000
40
0.062400
62
8
1
140
0
TEXT
8
PNTELEV
10
7512597.689000
20
4691737.700001
40
0.062400
1
0.000
0
TEXT
8
PNTDESC
10
7512597.689000
20
4691737.622001
40
0.062400
62
8
1

0
TEXT
8
PNTATTRS
10
7512597.689000
20
4691737.544002
40
0.062400
62
8
1

0
POINT
8
0
10
7512597.689000
20
4691737.778000
30
0.000000
0
TEXT
8
PNTNO
10
7512598.449000
20
4691738.707000
40
0.062400
62
8
1
141
0
TEXT
8
PNTELEV
10
7512598.449000
20
4691738.629001
40
0.062400
1
0.000
0
TEXT
8
PNTDESC
10
7512598.449000
20
4691738.551001
40
0.062400
62
8
1

0
TEXT
8
PNTATTRS
10
7512598.449000
20
4691738.473002
40
0.062400
62
8
1

0
POINT
8
0
10
7512598.449000
20
4691738.707000
30
0.000000
0
TEXT
8
PNTNO
10
7512598.681000
20
4691738.517000
40
0.062400
62
8
1
142
0
TEXT
8
PNTELEV
10
7512598.681000
20
4691738.439001
40
0.062400
1
0.000
0
TEXT
8
PNTDESC
10
7512598.681000
20
4691738.361001
40
0.062400
62
8
1

0
TEXT
8
PNTATTRS
10
7512598.681000
20
4691738.283002
40
0.062400
62
8
1

0
POINT
8
0
10
7512598.681000
20
4691738.517000
30
0.000000
0
TEXT
8
PNTNO
10
7512599.283000
20
4691739.252000
40
0.062400
62
8
1
143
0
TEXT
8
PNTELEV
10
7512599.283000
20
4691739.174001
40
0.062400
1
0.000
0
TEXT
8
PNTDESC
10
7512599.283000
20
4691739.096001
40
0.062400
62
8
1

0
TEXT
8
PNTATTRS
10
7512599.283000
20
4691739.018002
40
0.062400
62
8
1

0
POINT
8
0
10
7512599.283000
20
4691739.252000
30
0.000000
0
TEXT
8
PNTNO
10
7512599.441000
20
4691739.446000
40
0.062400
62
8
1
144
0
TEXT
8
PNTELEV
10
7512599.441000
20
4691739.368001
40
0.062400
1
0.000
0
TEXT
8
PNTDESC
10
7512599.441000
20
4691739.290001
40
0.062400
62
8
1

0
TEXT
8
PNTATTRS
10
7512599.441000
20
4691739.212002
40
0.062400
62
8
1

0
POINT
8
0
10
7512599.441000
20
4691739.446000
30
0.000000
0
TEXT
8
PNTNO
10
7512599.209000
20
4691739.636000
40
0.062400
62
8
1
145
0
TEXT
8
PNTELEV
10
7512599.209000
20
4691739.558001
40
0.062400
1
0.000
0
TEXT
8
PNTDESC
10
7512599.209000
20
4691739.480001
40
0.062400
62
8
1

0
TEXT
8
PNTATTRS
10
7512599.209000
20
4691739.402002
40
0.062400
62
8
1

0
POINT
8
0
10
7512599.209000
20
4691739.636000
30
0.000000
0
TEXT
8
PNTNO
10
7512599.051000
20
4691739.442000
40
0.062400
62
8
1
146
0
TEXT
8
PNTELEV
10
7512599.051000
20
4691739.364001
40
0.062400
1
0.000
0
TEXT
8
PNTDESC
10
7512599.051000
20
4691739.286001
40
0.062400
62
8
1

0
TEXT
8
PNTATTRS
10
7512599.051000
20
4691739.208002
40
0.062400
62
8
1

0
POINT
8
0
10
7512599.051000
20
4691739.442000
30
0.000000
0
TEXT
8
PNTNO
10
7512594.628000
20
4691743.385000
40
0.062400
62
8
1
147
0
TEXT
8
PNTELEV
10
7512594.628000
20
4691743.307001
40
0.062400
1
0.000
0
TEXT
8
PNTDESC
10
7512594.628000
20
4691743.229001
40
0.062400
62
8
1

0
TEXT
8
PNTATTRS
10
7512594.628000
20
4691743.151002
40
0.062400
62
8
1

0
POINT
8
0
10
7512594.628000
20
4691743.385000
30
0.000000
0
TEXT
8
PNTNO
10
7512594.395000
20
4691743.575000
40
0.062400
62
8
1
148
0
TEXT
8
PNTELEV
10
7512594.395000
20
4691743.497001
40
0.062400
1
0.000
0
TEXT
8
PNTDESC
10
7512594.395000
20
4691743.419001
40
0.062400
62
8
1

0
TEXT
8
PNTATTRS
10
7512594.395000
20
4691743.341002
40
0.062400
62
8
1

0
POINT
8
0
10
7512594.395000
20
4691743.575000
30
0.000000
0
TEXT
8
PNTNO
10
7512594.237000
20
4691743.381000
40
0.062400
62
8
1
149
0
TEXT
8
PNTELEV
10
7512594.237000
20
4691743.303001
40
0.062400
1
0.000
0
TEXT
8
PNTDESC
10
7512594.237000
20
4691743.225001
40
0.062400
62
8
1

0
TEXT
8
PNTATTRS
10
7512594.237000
20
4691743.147002
40
0.062400
62
8
1

0
POINT
8
0
10
7512594.237000
20
4691743.381000
30
0.000000
0
TEXT
8
PNTNO
10
7512594.469000
20
4691743.191000
40
0.062400
62
8
1
150
0
TEXT
8
PNTELEV
10
7512594.469000
20
4691743.113001
40
0.062400
1
0.000
0
TEXT
8
PNTDESC
10
7512594.469000
20
4691743.035001
40
0.062400
62
8
1

0
TEXT
8
PNTATTRS
10
7512594.469000
20
4691742.957002
40
0.062400
62
8
1

0
POINT
8
0
10
7512594.469000
20
4691743.191000
30
0.000000
0
TEXT
8
PNTNO
10
7512593.636000
20
4691742.646000
40
0.062400
62
8
1
151
0
TEXT
8
PNTELEV
10
7512593.636000
20
4691742.568001
40
0.062400
1
0.000
0
TEXT
8
PNTDESC
10
7512593.636000
20
4691742.490001
40
0.062400
62
8
1

0
TEXT
8
PNTATTRS
10
7512593.636000
20
4691742.412002
40
0.062400
62
8
1

0
POINT
8
0
10
7512593.636000
20
4691742.646000
30
0.000000
0
TEXT
8
PNTNO
10
7512593.868000
20
4691742.456000
40
0.062400
62
8
1
152
0
TEXT
8
PNTELEV
10
7512593.868000
20
4691742.378001
40
0.062400
1
0.000
0
TEXT
8
PNTDESC
10
7512593.868000
20
4691742.300001
40
0.062400
62
8
1

0
TEXT
8
PNTATTRS
10
7512593.868000
20
4691742.222002
40
0.062400
62
8
1

0
POINT
8
0
10
7512593.868000
20
4691742.456000
30
0.000000
0
TEXT
8
PNTNO
10
7512593.108000
20
4691741.527000
40
0.062400
62
8
1
153
0
TEXT
8
PNTELEV
10
7512593.108000
20
4691741.449001
40
0.062400
1
0.000
0
TEXT
8
PNTDESC
10
7512593.108000
20
4691741.371001
40
0.062400
62
8
1

0
TEXT
8
PNTATTRS
10
7512593.108000
20
4691741.293002
40
0.062400
62
8
1

0
POINT
8
0
10
7512593.108000
20
4691741.527000
30
0.000000
0
TEXT
8
PNTNO
10
7512592.876000
20
4691741.717000
40
0.062400
62
8
1
154
0
TEXT
8
PNTELEV
10
7512592.876000
20
4691741.639001
40
0.062400
1
0.000
0
TEXT
8
PNTDESC
10
7512592.876000
20
4691741.561001
40
0.062400
62
8
1

0
TEXT
8
PNTATTRS
10
7512592.876000
20
4691741.483002
40
0.062400
62
8
1

0
POINT
8
0
10
7512592.876000
20
4691741.717000
30
0.000000
0
TEXT
8
PNTNO
10
7512590.517000
20
4691738.796000
40
0.062400
62
8
1
155
0
TEXT
8
PNTELEV
10
7512590.517000
20
4691738.718001
40
0.062400
1
0.000
0
TEXT
8
PNTDESC
10
7512590.517000
20
4691738.640001
40
0.062400
62
8
1

0
TEXT
8
PNTATTRS
10
7512590.517000
20
4691738.562002
40
0.062400
62
8
1

0
POINT
8
0
10
7512590.517000
20
4691738.796000
30
0.000000
0
TEXT
8
PNTNO
10
7512590.981000
20
4691738.416000
40
0.062400
62
8
1
156
0
TEXT
8
PNTELEV
10
7512590.981000
20
4691738.338001
40
0.062400
1
0.000
0
TEXT
8
PNTDESC
10
7512590.981000
20
4691738.260001
40
0.062400
62
8
1

0
TEXT
8
PNTATTRS
10
7512590.981000
20
4691738.182002
40
0.062400
62
8
1

0
POINT
8
0
10
7512590.981000
20
4691738.416000
30
0.000000
0
TEXT
8
PNTNO
10
7512590.665000
20
4691738.029000
40
0.062400
62
8
1
157
0
TEXT
8
PNTELEV
10
7512590.665000
20
4691737.951001
40
0.062400
1
0.000
0
TEXT
8
PNTDESC
10
7512590.665000
20
4691737.873001
40
0.062400
62
8
1

0
TEXT
8
PNTATTRS
10
7512590.665000
20
4691737.795002
40
0.062400
62
8
1

0
POINT
8
0
10
7512590.665000
20
4691738.029000
30
0.000000
0
TEXT
8
PNTNO
10
7512590.200000
20
4691738.409000
40
0.062400
62
8
1
158
0
TEXT
8
PNTELEV
10
7512590.200000
20
4691738.331001
40
0.062400
1
0.000
0
TEXT
8
PNTDESC
10
7512590.200000
20
4691738.253001
40
0.062400
62
8
1

0
TEXT
8
PNTATTRS
10
7512590.200000
20
4691738.175002
40
0.062400
62
8
1

0
POINT
8
0
10
7512590.200000
20
4691738.409000
30
0.000000
0
TEXT
8
PNTNO
10
7512586.511000
20
4691733.939000
40
0.062400
62
8
1
159
0
TEXT
8
PNTELEV
10
7512586.511000
20
4691733.861001
40
0.062400
1
0.000
0
TEXT
8
PNTDESC
10
7512586.511000
20
4691733.783001
40
0.062400
62
8
1

0
TEXT
8
PNTATTRS
10
7512586.511000
20
4691733.705002
40
0.062400
62
8
1

0
POINT
8
0
10
7512586.511000
20
4691733.939000
30
0.000000
0
TEXT
8
PNTNO
10
7512586.743000
20
4691733.750000
40
0.062400
62
8
1
160
0
TEXT
8
PNTELEV
10
7512586.743000
20
4691733.672001
40
0.062400
1
0.000
0
TEXT
8
PNTDESC
10
7512586.743000
20
4691733.594001
40
0.062400
62
8
1

0
TEXT
8
PNTATTRS
10
7512586.743000
20
4691733.516002
40
0.062400
62
8
1

0
POINT
8
0
10
7512586.743000
20
4691733.750000
30
0.000000
0
TEXT
8
PNTNO
10
7512585.983000
20
4691732.821000
40
0.062400
62
8
1
161
0
TEXT
8
PNTELEV
10
7512585.983000
20
4691732.743001
40
0.062400
1
0.000
0
TEXT
8
PNTDESC
10
7512585.983000
20
4691732.665001
40
0.062400
62
8
1

0
TEXT
8
PNTATTRS
10
7512585.983000
20
4691732.587002
40
0.062400
62
8
1

0
POINT
8
0
10
7512585.983000
20
4691732.821000
30
0.000000
0
TEXT
8
PNTNO
10
7512585.751000
20
4691733.011000
40
0.062400
62
8
1
162
0
TEXT
8
PNTELEV
10
7512585.751000
20
4691732.933001
40
0.062400
1
0.000
0
TEXT
8
PNTDESC
10
7512585.751000
20
4691732.855001
40
0.062400
62
8
1

0
TEXT
8
PNTATTRS
10
7512585.751000
20
4691732.777002
40
0.062400
62
8
1

0
POINT
8
0
10
7512585.751000
20
4691733.011000
30
0.000000
0
TEXT
8
PNTNO
10
7512584.544000
20
4691731.537000
40
0.062400
62
8
1
163
0
TEXT
8
PNTELEV
10
7512584.544000
20
4691731.459001
40
0.062400
1
0.000
0
TEXT
8
PNTDESC
10
7512584.544000
20
4691731.381001
40
0.062400
62
8
1

0
TEXT
8
PNTATTRS
10
7512584.544000
20
4691731.303002
40
0.062400
62
8
1

0
POINT
8
0
10
7512584.544000
20
4691731.537000
30
0.000000
0
TEXT
8
PNTNO
10
7512584.777000
20
4691731.347000
40
0.062400
62
8
1
164
0
TEXT
8
PNTELEV
10
7512584.777000
20
4691731.269001
40
0.062400
1
0.000
0
TEXT
8
PNTDESC
10
7512584.777000
20
4691731.191001
40
0.062400
62
8
1

0
TEXT
8
PNTATTRS
10
7512584.777000
20
4691731.113002
40
0.062400
62
8
1

0
POINT
8
0
10
7512584.777000
20
4691731.347000
30
0.000000
0
TEXT
8
PNTNO
10
7512584.017000
20
4691730.418000
40
0.062400
62
8
1
165
0
TEXT
8
PNTELEV
10
7512584.017000
20
4691730.340001
40
0.062400
1
0.000
0
TEXT
8
PNTDESC
10
7512584.017000
20
4691730.262001
40
0.062400
62
8
1

0
TEXT
8
PNTATTRS
10
7512584.017000
20
4691730.184002
40
0.062400
62
8
1

0
POINT
8
0
10
7512584.017000
20
4691730.418000
30
0.000000
0
TEXT
8
PNTNO
10
7512583.784000
20
4691730.608000
40
0.062400
62
8
1
166
0
TEXT
8
PNTELEV
10
7512583.784000
20
4691730.530001
40
0.062400
1
0.000
0
TEXT
8
PNTDESC
10
7512583.784000
20
4691730.452001
40
0.062400
62
8
1

0
TEXT
8
PNTATTRS
10
7512583.784000
20
4691730.374002
40
0.062400
62
8
1

0
POINT
8
0
10
7512583.784000
20
4691730.608000
30
0.000000
0
TEXT
8
PNTNO
10
7512583.091000
20
4691729.761000
40
0.062400
62
8
1
167
0
TEXT
8
PNTELEV
10
7512583.091000
20
4691729.683001
40
0.062400
1
0.000
0
TEXT
8
PNTDESC
10
7512583.091000
20
4691729.605001
40
0.062400
62
8
1

0
TEXT
8
PNTATTRS
10
7512583.091000
20
4691729.527002
40
0.062400
62
8
1

0
POINT
8
0
10
7512583.091000
20
4691729.761000
30
0.000000
0
TEXT
8
PNTNO
10
7512583.323000
20
4691729.571000
40
0.062400
62
8
1
168
0
TEXT
8
PNTELEV
10
7512583.323000
20
4691729.493001
40
0.062400
1
0.000
0
TEXT
8
PNTDESC
10
7512583.323000
20
4691729.415001
40
0.062400
62
8
1

0
TEXT
8
PNTATTRS
10
7512583.323000
20
4691729.337002
40
0.062400
62
8
1

0
POINT
8
0
10
7512583.323000
20
4691729.571000
30
0.000000
0
TEXT
8
PNTNO
10
7512583.165000
20
4691729.377000
40
0.062400
62
8
1
169
0
TEXT
8
PNTELEV
10
7512583.165000
20
4691729.299001
40
0.062400
1
0.000
0
TEXT
8
PNTDESC
10
7512583.165000
20
4691729.221001
40
0.062400
62
8
1

0
TEXT
8
PNTATTRS
10
7512583.165000
20
4691729.143002
40
0.062400
62
8
1

0
POINT
8
0
10
7512583.165000
20
4691729.377000
30
0.000000
0
TEXT
8
PNTNO
10
7512582.933000
20
4691729.567000
40
0.062400
62
8
1
170
0
TEXT
8
PNTELEV
10
7512582.933000
20
4691729.489001
40
0.062400
1
0.000
0
TEXT
8
PNTDESC
10
7512582.933000
20
4691729.411001
40
0.062400
62
8
1

0
TEXT
8
PNTATTRS
10
7512582.933000
20
4691729.333002
40
0.062400
62
8
1

0
POINT
8
0
10
7512582.933000
20
4691729.567000
30
0.000000
0
TEXT
8
PNTNO
10
7512579.973000
20
4691731.989000
40
0.062400
62
8
1
171
0
TEXT
8
PNTELEV
10
7512579.973000
20
4691731.911001
40
0.062400
1
0.000
0
TEXT
8
PNTDESC
10
7512579.973000
20
4691731.833001
40
0.062400
62
8
1

0
TEXT
8
PNTATTRS
10
7512579.973000
20
4691731.755002
40
0.062400
62
8
1

0
POINT
8
0
10
7512579.973000
20
4691731.989000
30
0.000000
0
TEXT
8
PNTNO
10
7512579.663000
20
4691732.243000
40
0.062400
62
8
1
172
0
TEXT
8
PNTELEV
10
7512579.663000
20
4691732.165001
40
0.062400
1
0.000
0
TEXT
8
PNTDESC
10
7512579.663000
20
4691732.087001
40
0.062400
62
8
1

0
TEXT
8
PNTATTRS
10
7512579.663000
20
4691732.009002
40
0.062400
62
8
1

0
POINT
8
0
10
7512579.663000
20
4691732.243000
30
0.000000
0
TEXT
8
PNTNO
10
7512579.821000
20
4691732.436000
40
0.062400
62
8
1
173
0
TEXT
8
PNTELEV
10
7512579.821000
20
4691732.358001
40
0.062400
1
0.000
0
TEXT
8
PNTDESC
10
7512579.821000
20
4691732.280001
40
0.062400
62
8
1

0
TEXT
8
PNTATTRS
10
7512579.821000
20
4691732.202002
40
0.062400
62
8
1

0
POINT
8
0
10
7512579.821000
20
4691732.436000
30
0.000000
0
TEXT
8
PNTNO
10
7512580.131000
20
4691732.183000
40
0.062400
62
8
1
174
0
TEXT
8
PNTELEV
10
7512580.131000
20
4691732.105001
40
0.062400
1
0.000
0
TEXT
8
PNTDESC
10
7512580.131000
20
4691732.027001
40
0.062400
62
8
1

0
TEXT
8
PNTATTRS
10
7512580.131000
20
4691731.949002
40
0.062400
62
8
1

0
POINT
8
0
10
7512580.131000
20
4691732.183000
30
0.000000
0
TEXT
8
PNTNO
10
7512580.824000
20
4691733.030000
40
0.062400
62
8
1
175
0
TEXT
8
PNTELEV
10
7512580.824000
20
4691732.952001
40
0.062400
1
0.000
0
TEXT
8
PNTDESC
10
7512580.824000
20
4691732.874001
40
0.062400
62
8
1

0
TEXT
8
PNTATTRS
10
7512580.824000
20
4691732.796002
40
0.062400
62
8
1

0
POINT
8
0
10
7512580.824000
20
4691733.030000
30
0.000000
0
TEXT
8
PNTNO
10
7512580.515000
20
4691733.284000
40
0.062400
62
8
1
176
0
TEXT
8
PNTELEV
10
7512580.515000
20
4691733.206001
40
0.062400
1
0.000
0
TEXT
8
PNTDESC
10
7512580.515000
20
4691733.128001
40
0.062400
62
8
1

0
TEXT
8
PNTATTRS
10
7512580.515000
20
4691733.050002
40
0.062400
62
8
1

0
POINT
8
0
10
7512580.515000
20
4691733.284000
30
0.000000
0
TEXT
8
PNTNO
10
7512581.908000
20
4691734.986000
40
0.062400
62
8
1
177
0
TEXT
8
PNTELEV
10
7512581.908000
20
4691734.908001
40
0.062400
1
0.000
0
TEXT
8
PNTDESC
10
7512581.908000
20
4691734.830001
40
0.062400
62
8
1

0
TEXT
8
PNTATTRS
10
7512581.908000
20
4691734.752002
40
0.062400
62
8
1

0
POINT
8
0
10
7512581.908000
20
4691734.986000
30
0.000000
0
TEXT
8
PNTNO
10
7512582.218000
20
4691734.733000
40
0.062400
62
8
1
178
0
TEXT
8
PNTELEV
10
7512582.218000
20
4691734.655001
40
0.062400
1
0.000
0
TEXT
8
PNTDESC
10
7512582.218000
20
4691734.577001
40
0.062400
62
8
1

0
TEXT
8
PNTATTRS
10
7512582.218000
20
4691734.499002
40
0.062400
62
8
1

0
POINT
8
0
10
7512582.218000
20
4691734.733000
30
0.000000
0
TEXT
8
PNTNO
10
7512582.791000
20
4691735.433000
40
0.062400
62
8
1
179
0
TEXT
8
PNTELEV
10
7512582.791000
20
4691735.355001
40
0.062400
1
0.000
0
TEXT
8
PNTDESC
10
7512582.791000
20
4691735.277001
40
0.062400
62
8
1

0
TEXT
8
PNTATTRS
10
7512582.791000
20
4691735.199002
40
0.062400
62
8
1

0
POINT
8
0
10
7512582.791000
20
4691735.433000
30
0.000000
0
TEXT
8
PNTNO
10
7512582.481000
20
4691735.687000
40
0.062400
62
8
1
180
0
TEXT
8
PNTELEV
10
7512582.481000
20
4691735.609001
40
0.062400
1
0.000
0
TEXT
8
PNTDESC
10
7512582.481000
20
4691735.531001
40
0.062400
62
8
1

0
TEXT
8
PNTATTRS
10
7512582.481000
20
4691735.453002
40
0.062400
62
8
1

0
POINT
8
0
10
7512582.481000
20
4691735.687000
30
0.000000
0
TEXT
8
PNTNO
10
7512583.241000
20
4691736.615000
40
0.062400
62
8
1
181
0
TEXT
8
PNTELEV
10
7512583.241000
20
4691736.537001
40
0.062400
1
0.000
0
TEXT
8
PNTDESC
10
7512583.241000
20
4691736.459001
40
0.062400
62
8
1

0
TEXT
8
PNTATTRS
10
7512583.241000
20
4691736.381002
40
0.062400
62
8
1

0
POINT
8
0
10
7512583.241000
20
4691736.615000
30
0.000000
0
TEXT
8
PNTNO
10
7512583.551000
20
4691736.362000
40
0.062400
62
8
1
182
0
TEXT
8
PNTELEV
10
7512583.551000
20
4691736.284001
40
0.062400
1
0.000
0
TEXT
8
PNTDESC
10
7512583.551000
20
4691736.206001
40
0.062400
62
8
1

0
TEXT
8
PNTATTRS
10
7512583.551000
20
4691736.128002
40
0.062400
62
8
1

0
POINT
8
0
10
7512583.551000
20
4691736.362000
30
0.000000
0
TEXT
8
PNTNO
10
7512587.221000
20
4691740.847000
40
0.062400
62
8
1
183
0
TEXT
8
PNTELEV
10
7512587.221000
20
4691740.769001
40
0.062400
1
0.000
0
TEXT
8
PNTDESC
10
7512587.221000
20
4691740.691001
40
0.062400
62
8
1

0
TEXT
8
PNTATTRS
10
7512587.221000
20
4691740.613002
40
0.062400
62
8
1

0
POINT
8
0
10
7512587.221000
20
4691740.847000
30
0.000000
0
TEXT
8
PNTNO
10
7512586.911000
20
4691741.100000
40
0.062400
62
8
1
184
0
TEXT
8
PNTELEV
10
7512586.911000
20
4691741.022001
40
0.062400
1
0.000
0
TEXT
8
PNTDESC
10
7512586.911000
20
4691740.944001
40
0.062400
62
8
1

0
TEXT
8
PNTATTRS
10
7512586.911000
20
4691740.866002
40
0.062400
62
8
1

0
POINT
8
0
10
7512586.911000
20
4691741.100000
30
0.000000
0
TEXT
8
PNTNO
10
7512587.671000
20
4691742.029000
40
0.062400
62
8
1
185
0
TEXT
8
PNTELEV
10
7512587.671000
20
4691741.951001
40
0.062400
1
0.000
0
TEXT
8
PNTDESC
10
7512587.671000
20
4691741.873001
40
0.062400
62
8
1

0
TEXT
8
PNTATTRS
10
7512587.671000
20
4691741.795002
40
0.062400
62
8
1

0
POINT
8
0
10
7512587.671000
20
4691742.029000
30
0.000000
0
TEXT
8
PNTNO
10
7512587.981000
20
4691741.776000
40
0.062400
62
8
1
186
0
TEXT
8
PNTELEV
10
7512587.981000
20
4691741.698001
40
0.062400
1
0.000
0
TEXT
8
PNTDESC
10
7512587.981000
20
4691741.620001
40
0.062400
62
8
1

0
TEXT
8
PNTATTRS
10
7512587.981000
20
4691741.542002
40
0.062400
62
8
1

0
POINT
8
0
10
7512587.981000
20
4691741.776000
30
0.000000
0
TEXT
8
PNTNO
10
7512589.284000
20
4691743.368000
40
0.062400
62
8
1
187
0
TEXT
8
PNTELEV
10
7512589.284000
20
4691743.290001
40
0.062400
1
0.000
0
TEXT
8
PNTDESC
10
7512589.284000
20
4691743.212001
40
0.062400
62
8
1

0
TEXT
8
PNTATTRS
10
7512589.284000
20
4691743.134002
40
0.062400
62
8
1

0
POINT
8
0
10
7512589.284000
20
4691743.368000
30
0.000000
0
TEXT
8
PNTNO
10
7512588.974000
20
4691743.621000
40
0.062400
62
8
1
188
0
TEXT
8
PNTELEV
10
7512588.974000
20
4691743.543001
40
0.062400
1
0.000
0
TEXT
8
PNTDESC
10
7512588.974000
20
4691743.465001
40
0.062400
62
8
1

0
TEXT
8
PNTATTRS
10
7512588.974000
20
4691743.387002
40
0.062400
62
8
1

0
POINT
8
0
10
7512588.974000
20
4691743.621000
30
0.000000
0
TEXT
8
PNTNO
10
7512590.366000
20
4691745.322000
40
0.062400
62
8
1
189
0
TEXT
8
PNTELEV
10
7512590.366000
20
4691745.244001
40
0.062400
1
0.000
0
TEXT
8
PNTDESC
10
7512590.366000
20
4691745.166001
40
0.062400
62
8
1

0
TEXT
8
PNTATTRS
10
7512590.366000
20
4691745.088002
40
0.062400
62
8
1

0
POINT
8
0
10
7512590.366000
20
4691745.322000
30
0.000000
0
TEXT
8
PNTNO
10
7512590.675000
20
4691745.068000
40
0.062400
62
8
1
190
0
TEXT
8
PNTELEV
10
7512590.675000
20
4691744.990001
40
0.062400
1
0.000
0
TEXT
8
PNTDESC
10
7512590.675000
20
4691744.912001
40
0.062400
62
8
1

0
TEXT
8
PNTATTRS
10
7512590.675000
20
4691744.834002
40
0.062400
62
8
1

0
POINT
8
0
10
7512590.675000
20
4691745.068000
30
0.000000
0
TEXT
8
PNTNO
10
7512591.277000
20
4691745.804000
40
0.062400
62
8
1
191
0
TEXT
8
PNTELEV
10
7512591.277000
20
4691745.726001
40
0.062400
1
0.000
0
TEXT
8
PNTDESC
10
7512591.277000
20
4691745.648001
40
0.062400
62
8
1

0
TEXT
8
PNTATTRS
10
7512591.277000
20
4691745.570002
40
0.062400
62
8
1

0
POINT
8
0
10
7512591.277000
20
4691745.804000
30
0.000000
0
TEXT
8
PNTNO
10
7512590.967000
20
4691746.057000
40
0.062400
62
8
1
192
0
TEXT
8
PNTELEV
10
7512590.967000
20
4691745.979001
40
0.062400
1
0.000
0
TEXT
8
PNTDESC
10
7512590.967000
20
4691745.901001
40
0.062400
62
8
1

0
TEXT
8
PNTATTRS
10
7512590.967000
20
4691745.823002
40
0.062400
62
8
1

0
POINT
8
0
10
7512590.967000
20
4691746.057000
30
0.000000
0
TEXT
8
PNTNO
10
7512591.126000
20
4691746.250000
40
0.062400
62
8
1
193
0
TEXT
8
PNTELEV
10
7512591.126000
20
4691746.172001
40
0.062400
1
0.000
0
TEXT
8
PNTDESC
10
7512591.126000
20
4691746.094001
40
0.062400
62
8
1

0
TEXT
8
PNTATTRS
10
7512591.126000
20
4691746.016002
40
0.062400
62
8
1

0
POINT
8
0
10
7512591.126000
20
4691746.250000
30
0.000000
0
TEXT
8
PNTNO
10
7512591.435000
20
4691745.997000
40
0.062400
62
8
1
194
0
TEXT
8
PNTELEV
10
7512591.435000
20
4691745.919001
40
0.062400
1
0.000
0
TEXT
8
PNTDESC
10
7512591.435000
20
4691745.841001
40
0.062400
62
8
1

0
TEXT
8
PNTATTRS
10
7512591.435000
20
4691745.763002
40
0.062400
62
8
1

0
POINT
8
0
10
7512591.435000
20
4691745.997000
30
0.000000
0
ENDSEC
0
EOF
