0
SECTION
2
HEADER
9
$EXTMIN
10
7512536.564914
20
4691688.213021
30
0.000000
9
$EXTMAX
10
7512638.303000
20
4691746.259814
30
647.071000
9
$AUNITS
70
3
9
$INSUNITS
70
6
9
$CLAYER
8
0
9
$PDMODE
70
0
9
$PDSIZE
40
1.526071
0
ENDSEC
0
SECTION
2
TABLES
0
TABLE
2
LTYPE
70
5
0
LTYPE
2
DASHED
70
0
3
Dashed __ __ __ __ __ __ __ __ __ __ __ __ __ _
72
65
73
2
40
0.750000
49
0.500000
49
-0.250000
0
LTYPE
2
DOTTED
70
0
3
Dotted . . . . . . . . . . . . . . . . . . . .
72
65
73
2
40
0.100000
49
0
49
-0.100000
0
LTYPE
2
DASHDOTTED
70
0
3
DashDotted _ . _ . _ . _ . _ . _ . _ . _ . _
72
65
73
4
40
0.200000
49
0.100000
49
-0.050000
49
0
49
-0.050000
0
LTYPE
2
DASHDOTDOTTED
70
0
3
DashDotDotted _ .. _ .. _ .. _ .. _ .. _ .. _
72
65
73
6
40
0.250000
49
0.100000
49
-0.050000
49
0
49
-0.050000
49
0
49
-0.050000
0
LTYPE
2
DASHED_CUSTOM
70
0
3
Dashed_Custom (It depends on MINMAX values) _ _
72
65
73
2
40
1.000000
49
0.666667
49
-0.333333
0
ENDTAB
0
TABLE
2
LAYER
70
4
0
LAYER
2
0
70
64
62
8
6
Continuous
0
LAYER
62
6
2
PNTATTRS
70
64
6
Continuous
0
LAYER
62
1
2
PNTDESC
70
64
6
Continuous
0
LAYER
62
2
2
PNTELEV
70
64
6
Continuous
0
LAYER
62
3
2
PNTNO
70
64
6
Continuous
0
ENDTAB
0
TABLE
2
LAYER
0
ENDTAB
0
TABLE
2
STYLE
70
8
0
STYLE
2
STANDARD
70
0
40
0
41
1
50
0
71
0
42
4
3
txt
4

0
STYLE
2
PTXT
70
0
40
0
41
1
50
0
71
0
42
1
3
TXT
4

0
STYLE
2
PTXT
70
0
40
0
41
1
50
0
71
0
42
4
3
MONOTXT.SHX
4

0
ENDTAB
0
ENDSEC
0
SECTION
2
ENTITIES
0
TEXT
8
PNTNO
10
7512581.910000
20
4691734.990000
40
0.101738
62
8
1
1
0
TEXT
8
PNTELEV
10
7512581.910000
20
4691734.862827
40
0.101738
1
0.000
0
TEXT
8
PNTDESC
10
7512581.910000
20
4691734.735655
40
0.101738
62
8
1

0
TEXT
8
PNTATTRS
10
7512581.910000
20
4691734.608482
40
0.101738
62
8
1

0
POINT
8
0
10
7512581.910000
20
4691734.990000
30
0.000000
0
TEXT
8
PNTNO
10
7512582.181000
20
4691734.769000
40
0.101738
62
8
1
2
0
TEXT
8
PNTELEV
10
7512582.181000
20
4691734.641827
40
0.101738
1
0.000
0
TEXT
8
PNTDESC
10
7512582.181000
20
4691734.514655
40
0.101738
62
8
1

0
TEXT
8
PNTATTRS
10
7512582.181000
20
4691734.387482
40
0.101738
62
8
1

0
POINT
8
0
10
7512582.181000
20
4691734.769000
30
0.000000
0
TEXT
8
PNTNO
10
7512580.788000
20
4691733.066000
40
0.101738
62
8
1
3
0
TEXT
8
PNTELEV
10
7512580.788000
20
4691732.938827
40
0.101738
1
0.000
0
TEXT
8
PNTDESC
10
7512580.788000
20
4691732.811655
40
0.101738
62
8
1

0
TEXT
8
PNTATTRS
10
7512580.788000
20
4691732.684482
40
0.101738
62
8
1

0
POINT
8
0
10
7512580.788000
20
4691733.066000
30
0.000000
0
TEXT
8
PNTNO
10
7512580.518000
20
4691733.288000
40
0.101738
62
8
1
4
0
TEXT
8
PNTELEV
10
7512580.518000
20
4691733.160827
40
0.101738
1
0.000
0
TEXT
8
PNTDESC
10
7512580.518000
20
4691733.033655
40
0.101738
62
8
1

0
TEXT
8
PNTATTRS
10
7512580.518000
20
4691732.906482
40
0.101738
62
8
1

0
POINT
8
0
10
7512580.518000
20
4691733.288000
30
0.000000
0
TEXT
8
PNTNO
10
7512584.566000
20
4691731.526000
40
0.101738
62
8
1
5
0
TEXT
8
PNTELEV
10
7512584.566000
20
4691731.398827
40
0.101738
1
0.000
0
TEXT
8
PNTDESC
10
7512584.566000
20
4691731.271655
40
0.101738
62
8
1

0
TEXT
8
PNTATTRS
10
7512584.566000
20
4691731.144482
40
0.101738
62
8
1

0
POINT
8
0
10
7512584.566000
20
4691731.526000
30
0.000000
0
TEXT
8
PNTNO
10
7512584.817000
20
4691731.321000
40
0.101738
62
8
1
6
0
TEXT
8
PNTELEV
10
7512584.817000
20
4691731.193827
40
0.101738
1
0.000
0
TEXT
8
PNTDESC
10
7512584.817000
20
4691731.066655
40
0.101738
62
8
1

0
TEXT
8
PNTATTRS
10
7512584.817000
20
4691730.939482
40
0.101738
62
8
1

0
POINT
8
0
10
7512584.817000
20
4691731.321000
30
0.000000
0
TEXT
8
PNTNO
10
7512584.058000
20
4691730.392000
40
0.101738
62
8
1
7
0
TEXT
8
PNTELEV
10
7512584.058000
20
4691730.264827
40
0.101738
1
0.000
0
TEXT
8
PNTDESC
10
7512584.058000
20
4691730.137655
40
0.101738
62
8
1

0
TEXT
8
PNTATTRS
10
7512584.058000
20
4691730.010482
40
0.101738
62
8
1

0
POINT
8
0
10
7512584.058000
20
4691730.392000
30
0.000000
0
TEXT
8
PNTNO
10
7512583.806000
20
4691730.598000
40
0.101738
62
8
1
8
0
TEXT
8
PNTELEV
10
7512583.806000
20
4691730.470827
40
0.101738
1
0.000
0
TEXT
8
PNTDESC
10
7512583.806000
20
4691730.343655
40
0.101738
62
8
1

0
TEXT
8
PNTATTRS
10
7512583.806000
20
4691730.216482
40
0.101738
62
8
1

0
POINT
8
0
10
7512583.806000
20
4691730.598000
30
0.000000
0
TEXT
8
PNTNO
10
7512586.023000
20
4691732.795000
40
0.101738
62
8
1
9
0
TEXT
8
PNTELEV
10
7512586.023000
20
4691732.667827
40
0.101738
1
0.000
0
TEXT
8
PNTDESC
10
7512586.023000
20
4691732.540655
40
0.101738
62
8
1

0
TEXT
8
PNTATTRS
10
7512586.023000
20
4691732.413482
40
0.101738
62
8
1

0
POINT
8
0
10
7512586.023000
20
4691732.795000
30
0.000000
0
TEXT
8
PNTNO
10
7512585.772000
20
4691733.000000
40
0.101738
62
8
1
10
0
TEXT
8
PNTELEV
10
7512585.772000
20
4691732.872827
40
0.101738
1
0.000
0
TEXT
8
PNTDESC
10
7512585.772000
20
4691732.745655
40
0.101738
62
8
1

0
TEXT
8
PNTATTRS
10
7512585.772000
20
4691732.618482
40
0.101738
62
8
1

0
POINT
8
0
10
7512585.772000
20
4691733.000000
30
0.000000
0
TEXT
8
PNTNO
10
7512586.531000
20
4691733.929000
40
0.101738
62
8
1
11
0
TEXT
8
PNTELEV
10
7512586.531000
20
4691733.801827
40
0.101738
1
0.000
0
TEXT
8
PNTDESC
10
7512586.531000
20
4691733.674655
40
0.101738
62
8
1

0
TEXT
8
PNTATTRS
10
7512586.531000
20
4691733.547482
40
0.101738
62
8
1

0
POINT
8
0
10
7512586.531000
20
4691733.929000
30
0.000000
0
TEXT
8
PNTNO
10
7512586.783000
20
4691733.723000
40
0.101738
62
8
1
12
0
TEXT
8
PNTELEV
10
7512586.783000
20
4691733.595827
40
0.101738
1
0.000
0
TEXT
8
PNTDESC
10
7512586.783000
20
4691733.468655
40
0.101738
62
8
1

0
TEXT
8
PNTATTRS
10
7512586.783000
20
4691733.341482
40
0.101738
62
8
1

0
POINT
8
0
10
7512586.783000
20
4691733.723000
30
0.000000
0
TEXT
8
PNTNO
10
7512582.754000
20
4691735.469000
40
0.101738
62
8
1
13
0
TEXT
8
PNTELEV
10
7512582.754000
20
4691735.341827
40
0.101738
1
0.000
0
TEXT
8
PNTDESC
10
7512582.754000
20
4691735.214655
40
0.101738
62
8
1

0
TEXT
8
PNTATTRS
10
7512582.754000
20
4691735.087482
40
0.101738
62
8
1

0
POINT
8
0
10
7512582.754000
20
4691735.469000
30
0.000000
0
TEXT
8
PNTNO
10
7512582.483000
20
4691735.690000
40
0.101738
62
8
1
14
0
TEXT
8
PNTELEV
10
7512582.483000
20
4691735.562827
40
0.101738
1
0.000
0
TEXT
8
PNTDESC
10
7512582.483000
20
4691735.435655
40
0.101738
62
8
1

0
TEXT
8
PNTATTRS
10
7512582.483000
20
4691735.308482
40
0.101738
62
8
1

0
POINT
8
0
10
7512582.483000
20
4691735.690000
30
0.000000
0
TEXT
8
PNTNO
10
7512583.242000
20
4691736.619000
40
0.101738
62
8
1
15
0
TEXT
8
PNTELEV
10
7512583.242000
20
4691736.491827
40
0.101738
1
0.000
0
TEXT
8
PNTDESC
10
7512583.242000
20
4691736.364655
40
0.101738
62
8
1

0
TEXT
8
PNTATTRS
10
7512583.242000
20
4691736.237482
40
0.101738
62
8
1

0
POINT
8
0
10
7512583.242000
20
4691736.619000
30
0.000000
0
TEXT
8
PNTNO
10
7512583.513000
20
4691736.397000
40
0.101738
62
8
1
16
0
TEXT
8
PNTELEV
10
7512583.513000
20
4691736.269827
40
0.101738
1
0.000
0
TEXT
8
PNTDESC
10
7512583.513000
20
4691736.142655
40
0.101738
62
8
1

0
TEXT
8
PNTATTRS
10
7512583.513000
20
4691736.015482
40
0.101738
62
8
1

0
POINT
8
0
10
7512583.513000
20
4691736.397000
30
0.000000
0
TEXT
8
PNTNO
10
7512587.181000
20
4691740.882000
40
0.101738
62
8
1
17
0
TEXT
8
PNTELEV
10
7512587.181000
20
4691740.754827
40
0.101738
1
0.000
0
TEXT
8
PNTDESC
10
7512587.181000
20
4691740.627655
40
0.101738
62
8
1

0
TEXT
8
PNTATTRS
10
7512587.181000
20
4691740.500482
40
0.101738
62
8
1

0
POINT
8
0
10
7512587.181000
20
4691740.882000
30
0.000000
0
TEXT
8
PNTNO
10
7512586.910000
20
4691741.103000
40
0.101738
62
8
1
18
0
TEXT
8
PNTELEV
10
7512586.910000
20
4691740.975827
40
0.101738
1
0.000
0
TEXT
8
PNTDESC
10
7512586.910000
20
4691740.848655
40
0.101738
62
8
1

0
TEXT
8
PNTATTRS
10
7512586.910000
20
4691740.721482
40
0.101738
62
8
1

0
POINT
8
0
10
7512586.910000
20
4691741.103000
30
0.000000
0
TEXT
8
PNTNO
10
7512587.670000
20
4691742.032000
40
0.101738
62
8
1
19
0
TEXT
8
PNTELEV
10
7512587.670000
20
4691741.904827
40
0.101738
1
0.000
0
TEXT
8
PNTDESC
10
7512587.670000
20
4691741.777655
40
0.101738
62
8
1

0
TEXT
8
PNTATTRS
10
7512587.670000
20
4691741.650482
40
0.101738
62
8
1

0
POINT
8
0
10
7512587.670000
20
4691742.032000
30
0.000000
0
TEXT
8
PNTNO
10
7512587.941000
20
4691741.810000
40
0.101738
62
8
1
20
0
TEXT
8
PNTELEV
10
7512587.941000
20
4691741.682827
40
0.101738
1
0.000
0
TEXT
8
PNTDESC
10
7512587.941000
20
4691741.555655
40
0.101738
62
8
1

0
TEXT
8
PNTATTRS
10
7512587.941000
20
4691741.428482
40
0.101738
62
8
1

0
POINT
8
0
10
7512587.941000
20
4691741.810000
30
0.000000
0
TEXT
8
PNTNO
10
7512590.363000
20
4691745.325000
40
0.101738
62
8
1
21
0
TEXT
8
PNTELEV
10
7512590.363000
20
4691745.197827
40
0.101738
1
0.000
0
TEXT
8
PNTDESC
10
7512590.363000
20
4691745.070655
40
0.101738
62
8
1

0
TEXT
8
PNTATTRS
10
7512590.363000
20
4691744.943482
40
0.101738
62
8
1

0
POINT
8
0
10
7512590.363000
20
4691745.325000
30
0.000000
0
TEXT
8
PNTNO
10
7512590.634000
20
4691745.103000
40
0.101738
62
8
1
22
0
TEXT
8
PNTELEV
10
7512590.634000
20
4691744.975827
40
0.101738
1
0.000
0
TEXT
8
PNTDESC
10
7512590.634000
20
4691744.848655
40
0.101738
62
8
1

0
TEXT
8
PNTATTRS
10
7512590.634000
20
4691744.721482
40
0.101738
62
8
1

0
POINT
8
0
10
7512590.634000
20
4691745.103000
30
0.000000
0
TEXT
8
PNTNO
10
7512589.241000
20
4691743.401000
40
0.101738
62
8
1
23
0
TEXT
8
PNTELEV
10
7512589.241000
20
4691743.273827
40
0.101738
1
0.000
0
TEXT
8
PNTDESC
10
7512589.241000
20
4691743.146655
40
0.101738
62
8
1

0
TEXT
8
PNTATTRS
10
7512589.241000
20
4691743.019482
40
0.101738
62
8
1

0
POINT
8
0
10
7512589.241000
20
4691743.401000
30
0.000000
0
TEXT
8
PNTNO
10
7512588.971000
20
4691743.622000
40
0.101738
62
8
1
24
0
TEXT
8
PNTELEV
10
7512588.971000
20
4691743.494827
40
0.101738
1
0.000
0
TEXT
8
PNTDESC
10
7512588.971000
20
4691743.367655
40
0.101738
62
8
1

0
TEXT
8
PNTATTRS
10
7512588.971000
20
4691743.240482
40
0.101738
62
8
1

0
POINT
8
0
10
7512588.971000
20
4691743.622000
30
0.000000
0
TEXT
8
PNTNO
10
7512593.652000
20
4691742.635000
40
0.101738
62
8
1
25
0
TEXT
8
PNTELEV
10
7512593.652000
20
4691742.507827
40
0.101738
1
0.000
0
TEXT
8
PNTDESC
10
7512593.652000
20
4691742.380655
40
0.101738
62
8
1

0
TEXT
8
PNTATTRS
10
7512593.652000
20
4691742.253482
40
0.101738
62
8
1

0
POINT
8
0
10
7512593.652000
20
4691742.635000
30
0.000000
0
TEXT
8
PNTNO
10
7512593.903000
20
4691742.429000
40
0.101738
62
8
1
26
0
TEXT
8
PNTELEV
10
7512593.903000
20
4691742.301827
40
0.101738
1
0.000
0
TEXT
8
PNTDESC
10
7512593.903000
20
4691742.174655
40
0.101738
62
8
1

0
TEXT
8
PNTATTRS
10
7512593.903000
20
4691742.047482
40
0.101738
62
8
1

0
POINT
8
0
10
7512593.903000
20
4691742.429000
30
0.000000
0
TEXT
8
PNTNO
10
7512593.144000
20
4691741.500000
40
0.101738
62
8
1
27
0
TEXT
8
PNTELEV
10
7512593.144000
20
4691741.372827
40
0.101738
1
0.000
0
TEXT
8
PNTDESC
10
7512593.144000
20
4691741.245655
40
0.101738
62
8
1

0
TEXT
8
PNTATTRS
10
7512593.144000
20
4691741.118482
40
0.101738
62
8
1

0
POINT
8
0
10
7512593.144000
20
4691741.500000
30
0.000000
0
TEXT
8
PNTNO
10
7512592.892000
20
4691741.706000
40
0.101738
62
8
1
28
0
TEXT
8
PNTELEV
10
7512592.892000
20
4691741.578827
40
0.101738
1
0.000
0
TEXT
8
PNTDESC
10
7512592.892000
20
4691741.451655
40
0.101738
62
8
1

0
TEXT
8
PNTATTRS
10
7512592.892000
20
4691741.324482
40
0.101738
62
8
1

0
POINT
8
0
10
7512592.892000
20
4691741.706000
30
0.000000
0
TEXT
8
PNTNO
10
7512598.426000
20
4691738.729000
40
0.101738
62
8
1
29
0
TEXT
8
PNTELEV
10
7512598.426000
20
4691738.601827
40
0.101738
1
0.000
0
TEXT
8
PNTDESC
10
7512598.426000
20
4691738.474655
40
0.101738
62
8
1

0
TEXT
8
PNTATTRS
10
7512598.426000
20
4691738.347482
40
0.101738
62
8
1

0
POINT
8
0
10
7512598.426000
20
4691738.729000
30
0.000000
0
TEXT
8
PNTNO
10
7512598.697000
20
4691738.508000
40
0.101738
62
8
1
30
0
TEXT
8
PNTELEV
10
7512598.697000
20
4691738.380827
40
0.101738
1
0.000
0
TEXT
8
PNTDESC
10
7512598.697000
20
4691738.253655
40
0.101738
62
8
1

0
TEXT
8
PNTATTRS
10
7512598.697000
20
4691738.126482
40
0.101738
62
8
1

0
POINT
8
0
10
7512598.697000
20
4691738.508000
30
0.000000
0
TEXT
8
PNTNO
10
7512597.938000
20
4691737.579000
40
0.101738
62
8
1
31
0
TEXT
8
PNTELEV
10
7512597.938000
20
4691737.451827
40
0.101738
1
0.000
0
TEXT
8
PNTDESC
10
7512597.938000
20
4691737.324655
40
0.101738
62
8
1

0
TEXT
8
PNTATTRS
10
7512597.938000
20
4691737.197482
40
0.101738
62
8
1

0
POINT
8
0
10
7512597.938000
20
4691737.579000
30
0.000000
0
TEXT
8
PNTNO
10
7512597.667000
20
4691737.801000
40
0.101738
62
8
1
32
0
TEXT
8
PNTELEV
10
7512597.667000
20
4691737.673827
40
0.101738
1
0.000
0
TEXT
8
PNTDESC
10
7512597.667000
20
4691737.546655
40
0.101738
62
8
1

0
TEXT
8
PNTATTRS
10
7512597.667000
20
4691737.419482
40
0.101738
62
8
1

0
POINT
8
0
10
7512597.667000
20
4691737.801000
30
0.000000
0
TEXT
8
PNTNO
10
7512595.733000
20
4691735.437000
40
0.101738
62
8
1
33
0
TEXT
8
PNTELEV
10
7512595.733000
20
4691735.309827
40
0.101738
1
0.000
0
TEXT
8
PNTDESC
10
7512595.733000
20
4691735.182655
40
0.101738
62
8
1

0
TEXT
8
PNTATTRS
10
7512595.733000
20
4691735.055482
40
0.101738
62
8
1

0
POINT
8
0
10
7512595.733000
20
4691735.437000
30
0.000000
0
TEXT
8
PNTNO
10
7512596.004000
20
4691735.215000
40
0.101738
62
8
1
34
0
TEXT
8
PNTELEV
10
7512596.004000
20
4691735.087827
40
0.101738
1
0.000
0
TEXT
8
PNTDESC
10
7512596.004000
20
4691734.960655
40
0.101738
62
8
1

0
TEXT
8
PNTATTRS
10
7512596.004000
20
4691734.833482
40
0.101738
62
8
1

0
POINT
8
0
10
7512596.004000
20
4691735.215000
30
0.000000
0
TEXT
8
PNTNO
10
7512595.244000
20
4691734.287000
40
0.101738
62
8
1
35
0
TEXT
8
PNTELEV
10
7512595.244000
20
4691734.159827
40
0.101738
1
0.000
0
TEXT
8
PNTDESC
10
7512595.244000
20
4691734.032655
40
0.101738
62
8
1

0
TEXT
8
PNTATTRS
10
7512595.244000
20
4691733.905482
40
0.101738
62
8
1

0
POINT
8
0
10
7512595.244000
20
4691734.287000
30
0.000000
0
TEXT
8
PNTNO
10
7512594.974000
20
4691734.508000
40
0.101738
62
8
1
36
0
TEXT
8
PNTELEV
10
7512594.974000
20
4691734.380827
40
0.101738
1
0.000
0
TEXT
8
PNTDESC
10
7512594.974000
20
4691734.253655
40
0.101738
62
8
1

0
TEXT
8
PNTATTRS
10
7512594.974000
20
4691734.126482
40
0.101738
62
8
1

0
POINT
8
0
10
7512594.974000
20
4691734.508000
30
0.000000
0
TEXT
8
PNTNO
10
7512591.325000
20
4691730.008000
40
0.101738
62
8
1
37
0
TEXT
8
PNTELEV
10
7512591.325000
20
4691729.880827
40
0.101738
1
0.000
0
TEXT
8
PNTDESC
10
7512591.325000
20
4691729.753655
40
0.101738
62
8
1

0
TEXT
8
PNTATTRS
10
7512591.325000
20
4691729.626482
40
0.101738
62
8
1

0
POINT
8
0
10
7512591.325000
20
4691730.008000
30
0.000000
0
TEXT
8
PNTNO
10
7512591.577000
20
4691729.802000
40
0.101738
62
8
1
38
0
TEXT
8
PNTELEV
10
7512591.577000
20
4691729.674827
40
0.101738
1
0.000
0
TEXT
8
PNTDESC
10
7512591.577000
20
4691729.547655
40
0.101738
62
8
1

0
TEXT
8
PNTATTRS
10
7512591.577000
20
4691729.420482
40
0.101738
62
8
1

0
POINT
8
0
10
7512591.577000
20
4691729.802000
30
0.000000
0
TEXT
8
PNTNO
10
7512590.817000
20
4691728.874000
40
0.101738
62
8
1
39
0
TEXT
8
PNTELEV
10
7512590.817000
20
4691728.746827
40
0.101738
1
0.000
0
TEXT
8
PNTDESC
10
7512590.817000
20
4691728.619655
40
0.101738
62
8
1

0
TEXT
8
PNTATTRS
10
7512590.817000
20
4691728.492482
40
0.101738
62
8
1

0
POINT
8
0
10
7512590.817000
20
4691728.874000
30
0.000000
0
TEXT
8
PNTNO
10
7512590.566000
20
4691729.079000
40
0.101738
62
8
1
40
0
TEXT
8
PNTELEV
10
7512590.566000
20
4691728.951827
40
0.101738
1
0.000
0
TEXT
8
PNTDESC
10
7512590.566000
20
4691728.824655
40
0.101738
62
8
1

0
TEXT
8
PNTATTRS
10
7512590.566000
20
4691728.697482
40
0.101738
62
8
1

0
POINT
8
0
10
7512590.566000
20
4691729.079000
30
0.000000
0
TEXT
8
PNTNO
10
7512588.852000
20
4691726.471000
40
0.101738
62
8
1
41
0
TEXT
8
PNTELEV
10
7512588.852000
20
4691726.343827
40
0.101738
1
0.000
0
TEXT
8
PNTDESC
10
7512588.852000
20
4691726.216655
40
0.101738
62
8
1

0
TEXT
8
PNTATTRS
10
7512588.852000
20
4691726.089482
40
0.101738
62
8
1

0
POINT
8
0
10
7512588.852000
20
4691726.471000
30
0.000000
0
TEXT
8
PNTNO
10
7512588.600000
20
4691726.677000
40
0.101738
62
8
1
42
0
TEXT
8
PNTELEV
10
7512588.600000
20
4691726.549827
40
0.101738
1
0.000
0
TEXT
8
PNTDESC
10
7512588.600000
20
4691726.422655
40
0.101738
62
8
1

0
TEXT
8
PNTATTRS
10
7512588.600000
20
4691726.295482
40
0.101738
62
8
1

0
POINT
8
0
10
7512588.600000
20
4691726.677000
30
0.000000
0
TEXT
8
PNTNO
10
7512589.360000
20
4691727.605000
40
0.101738
62
8
1
43
0
TEXT
8
PNTELEV
10
7512589.360000
20
4691727.477827
40
0.101738
1
0.000
0
TEXT
8
PNTDESC
10
7512589.360000
20
4691727.350655
40
0.101738
62
8
1

0
TEXT
8
PNTATTRS
10
7512589.360000
20
4691727.223482
40
0.101738
62
8
1

0
POINT
8
0
10
7512589.360000
20
4691727.605000
30
0.000000
0
TEXT
8
PNTNO
10
7512589.611000
20
4691727.399000
40
0.101738
62
8
1
44
0
TEXT
8
PNTELEV
10
7512589.611000
20
4691727.271827
40
0.101738
1
0.000
0
TEXT
8
PNTDESC
10
7512589.611000
20
4691727.144655
40
0.101738
62
8
1

0
TEXT
8
PNTATTRS
10
7512589.611000
20
4691727.017482
40
0.101738
62
8
1

0
POINT
8
0
10
7512589.611000
20
4691727.399000
30
0.000000
0
TEXT
8
PNTNO
10
7512603.301000
20
4691734.742000
40
0.101738
62
8
1
45
0
TEXT
8
PNTELEV
10
7512603.301000
20
4691734.614827
40
0.101738
1
0.000
0
TEXT
8
PNTDESC
10
7512603.301000
20
4691734.487655
40
0.101738
62
8
1

0
TEXT
8
PNTATTRS
10
7512603.301000
20
4691734.360482
40
0.101738
62
8
1

0
POINT
8
0
10
7512603.301000
20
4691734.742000
30
0.000000
0
TEXT
8
PNTNO
10
7512603.553000
20
4691734.536000
40
0.101738
62
8
1
46
0
TEXT
8
PNTELEV
10
7512603.553000
20
4691734.408827
40
0.101738
1
0.000
0
TEXT
8
PNTDESC
10
7512603.553000
20
4691734.281655
40
0.101738
62
8
1

0
TEXT
8
PNTATTRS
10
7512603.553000
20
4691734.154482
40
0.101738
62
8
1

0
POINT
8
0
10
7512603.553000
20
4691734.536000
30
0.000000
0
TEXT
8
PNTNO
10
7512602.793000
20
4691733.607000
40
0.101738
62
8
1
47
0
TEXT
8
PNTELEV
10
7512602.793000
20
4691733.479827
40
0.101738
1
0.000
0
TEXT
8
PNTDESC
10
7512602.793000
20
4691733.352655
40
0.101738
62
8
1

0
TEXT
8
PNTATTRS
10
7512602.793000
20
4691733.225482
40
0.101738
62
8
1

0
POINT
8
0
10
7512602.793000
20
4691733.607000
30
0.000000
0
TEXT
8
PNTNO
10
7512602.542000
20
4691733.813000
40
0.101738
62
8
1
48
0
TEXT
8
PNTELEV
10
7512602.542000
20
4691733.685827
40
0.101738
1
0.000
0
TEXT
8
PNTDESC
10
7512602.542000
20
4691733.558655
40
0.101738
62
8
1

0
TEXT
8
PNTATTRS
10
7512602.542000
20
4691733.431482
40
0.101738
62
8
1

0
POINT
8
0
10
7512602.542000
20
4691733.813000
30
0.000000
0
TEXT
8
PNTNO
10
7512606.629000
20
4691732.020000
40
0.101738
62
8
1
49
0
TEXT
8
PNTELEV
10
7512606.629000
20
4691731.892827
40
0.101738
1
0.000
0
TEXT
8
PNTDESC
10
7512606.629000
20
4691731.765655
40
0.101738
62
8
1

0
TEXT
8
PNTATTRS
10
7512606.629000
20
4691731.638482
40
0.101738
62
8
1

0
POINT
8
0
10
7512606.629000
20
4691732.020000
30
0.000000
0
TEXT
8
PNTNO
10
7512606.900000
20
4691731.799000
40
0.101738
62
8
1
50
0
TEXT
8
PNTELEV
10
7512606.900000
20
4691731.671827
40
0.101738
1
0.000
0
TEXT
8
PNTDESC
10
7512606.900000
20
4691731.544655
40
0.101738
62
8
1

0
TEXT
8
PNTATTRS
10
7512606.900000
20
4691731.417482
40
0.101738
62
8
1

0
POINT
8
0
10
7512606.900000
20
4691731.799000
30
0.000000
0
TEXT
8
PNTNO
10
7512606.140000
20
4691730.870000
40
0.101738
62
8
1
51
0
TEXT
8
PNTELEV
10
7512606.140000
20
4691730.742827
40
0.101738
1
0.000
0
TEXT
8
PNTDESC
10
7512606.140000
20
4691730.615655
40
0.101738
62
8
1

0
TEXT
8
PNTATTRS
10
7512606.140000
20
4691730.488482
40
0.101738
62
8
1

0
POINT
8
0
10
7512606.140000
20
4691730.870000
30
0.000000
0
TEXT
8
PNTNO
10
7512605.869000
20
4691731.092000
40
0.101738
62
8
1
52
0
TEXT
8
PNTELEV
10
7512605.869000
20
4691730.964827
40
0.101738
1
0.000
0
TEXT
8
PNTDESC
10
7512605.869000
20
4691730.837655
40
0.101738
62
8
1

0
TEXT
8
PNTATTRS
10
7512605.869000
20
4691730.710482
40
0.101738
62
8
1

0
POINT
8
0
10
7512605.869000
20
4691731.092000
30
0.000000
0
TEXT
8
PNTNO
10
7512611.257000
20
4691728.235000
40
0.101738
62
8
1
53
0
TEXT
8
PNTELEV
10
7512611.257000
20
4691728.107827
40
0.101738
1
0.000
0
TEXT
8
PNTDESC
10
7512611.257000
20
4691727.980655
40
0.101738
62
8
1

0
TEXT
8
PNTATTRS
10
7512611.257000
20
4691727.853482
40
0.101738
62
8
1

0
POINT
8
0
10
7512611.257000
20
4691728.235000
30
0.000000
0
TEXT
8
PNTNO
10
7512611.528000
20
4691728.013000
40
0.101738
62
8
1
54
0
TEXT
8
PNTELEV
10
7512611.528000
20
4691727.885827
40
0.101738
1
0.000
0
TEXT
8
PNTDESC
10
7512611.528000
20
4691727.758655
40
0.101738
62
8
1

0
TEXT
8
PNTATTRS
10
7512611.528000
20
4691727.631482
40
0.101738
62
8
1

0
POINT
8
0
10
7512611.528000
20
4691728.013000
30
0.000000
0
TEXT
8
PNTNO
10
7512610.768000
20
4691727.084000
40
0.101738
62
8
1
55
0
TEXT
8
PNTELEV
10
7512610.768000
20
4691726.956827
40
0.101738
1
0.000
0
TEXT
8
PNTDESC
10
7512610.768000
20
4691726.829655
40
0.101738
62
8
1

0
TEXT
8
PNTATTRS
10
7512610.768000
20
4691726.702482
40
0.101738
62
8
1

0
POINT
8
0
10
7512610.768000
20
4691727.084000
30
0.000000
0
TEXT
8
PNTNO
10
7512610.498000
20
4691727.306000
40
0.101738
62
8
1
56
0
TEXT
8
PNTELEV
10
7512610.498000
20
4691727.178827
40
0.101738
1
0.000
0
TEXT
8
PNTDESC
10
7512610.498000
20
4691727.051655
40
0.101738
62
8
1

0
TEXT
8
PNTATTRS
10
7512610.498000
20
4691726.924482
40
0.101738
62
8
1

0
POINT
8
0
10
7512610.498000
20
4691727.306000
30
0.000000
0
TEXT
8
PNTNO
10
7512613.424000
20
4691723.621000
40
0.101738
62
8
1
57
0
TEXT
8
PNTELEV
10
7512613.424000
20
4691723.493827
40
0.101738
1
0.000
0
TEXT
8
PNTDESC
10
7512613.424000
20
4691723.366655
40
0.101738
62
8
1

0
TEXT
8
PNTATTRS
10
7512613.424000
20
4691723.239482
40
0.101738
62
8
1

0
POINT
8
0
10
7512613.424000
20
4691723.621000
30
0.000000
0
TEXT
8
PNTNO
10
7512613.153000
20
4691723.842000
40
0.101738
62
8
1
58
0
TEXT
8
PNTELEV
10
7512613.153000
20
4691723.714827
40
0.101738
1
0.000
0
TEXT
8
PNTDESC
10
7512613.153000
20
4691723.587655
40
0.101738
62
8
1

0
TEXT
8
PNTATTRS
10
7512613.153000
20
4691723.460482
40
0.101738
62
8
1

0
POINT
8
0
10
7512613.153000
20
4691723.842000
30
0.000000
0
TEXT
8
PNTNO
10
7512614.546000
20
4691725.545000
40
0.101738
62
8
1
59
0
TEXT
8
PNTELEV
10
7512614.546000
20
4691725.417827
40
0.101738
1
0.000
0
TEXT
8
PNTDESC
10
7512614.546000
20
4691725.290655
40
0.101738
62
8
1

0
TEXT
8
PNTATTRS
10
7512614.546000
20
4691725.163482
40
0.101738
62
8
1

0
POINT
8
0
10
7512614.546000
20
4691725.545000
30
0.000000
0
TEXT
8
PNTNO
10
7512614.817000
20
4691725.323000
40
0.101738
62
8
1
60
0
TEXT
8
PNTELEV
10
7512614.817000
20
4691725.195827
40
0.101738
1
0.000
0
TEXT
8
PNTDESC
10
7512614.817000
20
4691725.068655
40
0.101738
62
8
1

0
TEXT
8
PNTATTRS
10
7512614.817000
20
4691724.941482
40
0.101738
62
8
1

0
POINT
8
0
10
7512614.817000
20
4691725.323000
30
0.000000
0
TEXT
8
PNTNO
10
7512611.853000
20
4691722.252000
40
0.101738
62
8
1
61
0
TEXT
8
PNTELEV
10
7512611.853000
20
4691722.124827
40
0.101738
1
0.000
0
TEXT
8
PNTDESC
10
7512611.853000
20
4691721.997655
40
0.101738
62
8
1

0
TEXT
8
PNTATTRS
10
7512611.853000
20
4691721.870482
40
0.101738
62
8
1

0
POINT
8
0
10
7512611.853000
20
4691722.252000
30
0.000000
0
TEXT
8
PNTNO
10
7512612.124000
20
4691722.030000
40
0.101738
62
8
1
62
0
TEXT
8
PNTELEV
10
7512612.124000
20
4691721.902827
40
0.101738
1
0.000
0
TEXT
8
PNTDESC
10
7512612.124000
20
4691721.775655
40
0.101738
62
8
1

0
TEXT
8
PNTATTRS
10
7512612.124000
20
4691721.648482
40
0.101738
62
8
1

0
POINT
8
0
10
7512612.124000
20
4691722.030000
30
0.000000
0
TEXT
8
PNTNO
10
7512611.364000
20
4691721.102000
40
0.101738
62
8
1
63
0
TEXT
8
PNTELEV
10
7512611.364000
20
4691720.974827
40
0.101738
1
0.000
0
TEXT
8
PNTDESC
10
7512611.364000
20
4691720.847655
40
0.101738
62
8
1

0
TEXT
8
PNTATTRS
10
7512611.364000
20
4691720.720482
40
0.101738
62
8
1

0
POINT
8
0
10
7512611.364000
20
4691721.102000
30
0.000000
0
TEXT
8
PNTNO
10
7512611.093000
20
4691721.323000
40
0.101738
62
8
1
64
0
TEXT
8
PNTELEV
10
7512611.093000
20
4691721.195827
40
0.101738
1
0.000
0
TEXT
8
PNTDESC
10
7512611.093000
20
4691721.068655
40
0.101738
62
8
1

0
TEXT
8
PNTATTRS
10
7512611.093000
20
4691720.941482
40
0.101738
62
8
1

0
POINT
8
0
10
7512611.093000
20
4691721.323000
30
0.000000
0
TEXT
8
PNTNO
10
7512608.075000
20
4691723.792000
40
0.101738
62
8
1
65
0
TEXT
8
PNTELEV
10
7512608.075000
20
4691723.664827
40
0.101738
1
0.000
0
TEXT
8
PNTDESC
10
7512608.075000
20
4691723.537655
40
0.101738
62
8
1

0
TEXT
8
PNTATTRS
10
7512608.075000
20
4691723.410482
40
0.101738
62
8
1

0
POINT
8
0
10
7512608.075000
20
4691723.792000
30
0.000000
0
TEXT
8
PNTNO
10
7512607.379000
20
4691724.361000
40
0.101738
62
8
1
66
0
TEXT
8
PNTELEV
10
7512607.379000
20
4691724.233827
40
0.101738
1
0.000
0
TEXT
8
PNTDESC
10
7512607.379000
20
4691724.106655
40
0.101738
62
8
1

0
TEXT
8
PNTATTRS
10
7512607.379000
20
4691723.979482
40
0.101738
62
8
1

0
POINT
8
0
10
7512607.379000
20
4691724.361000
30
0.000000
0
TEXT
8
PNTNO
10
7512607.695000
20
4691724.748000
40
0.101738
62
8
1
67
0
TEXT
8
PNTELEV
10
7512607.695000
20
4691724.620827
40
0.101738
1
0.000
0
TEXT
8
PNTDESC
10
7512607.695000
20
4691724.493655
40
0.101738
62
8
1

0
TEXT
8
PNTATTRS
10
7512607.695000
20
4691724.366482
40
0.101738
62
8
1

0
POINT
8
0
10
7512607.695000
20
4691724.748000
30
0.000000
0
TEXT
8
PNTNO
10
7512608.392000
20
4691724.179000
40
0.101738
62
8
1
68
0
TEXT
8
PNTELEV
10
7512608.392000
20
4691724.051827
40
0.101738
1
0.000
0
TEXT
8
PNTDESC
10
7512608.392000
20
4691723.924655
40
0.101738
62
8
1

0
TEXT
8
PNTATTRS
10
7512608.392000
20
4691723.797482
40
0.101738
62
8
1

0
POINT
8
0
10
7512608.392000
20
4691724.179000
30
0.000000
0
TEXT
8
PNTNO
10
7512603.428000
20
4691727.593000
40
0.101738
62
8
1
69
0
TEXT
8
PNTELEV
10
7512603.428000
20
4691727.465827
40
0.101738
1
0.000
0
TEXT
8
PNTDESC
10
7512603.428000
20
4691727.338655
40
0.101738
62
8
1

0
TEXT
8
PNTATTRS
10
7512603.428000
20
4691727.211482
40
0.101738
62
8
1

0
POINT
8
0
10
7512603.428000
20
4691727.593000
30
0.000000
0
TEXT
8
PNTNO
10
7512602.731000
20
4691728.163000
40
0.101738
62
8
1
70
0
TEXT
8
PNTELEV
10
7512602.731000
20
4691728.035827
40
0.101738
1
0.000
0
TEXT
8
PNTDESC
10
7512602.731000
20
4691727.908655
40
0.101738
62
8
1

0
TEXT
8
PNTATTRS
10
7512602.731000
20
4691727.781482
40
0.101738
62
8
1

0
POINT
8
0
10
7512602.731000
20
4691728.163000
30
0.000000
0
TEXT
8
PNTNO
10
7512603.049000
20
4691728.551000
40
0.101738
62
8
1
71
0
TEXT
8
PNTELEV
10
7512603.049000
20
4691728.423827
40
0.101738
1
0.000
0
TEXT
8
PNTDESC
10
7512603.049000
20
4691728.296655
40
0.101738
62
8
1

0
TEXT
8
PNTATTRS
10
7512603.049000
20
4691728.169482
40
0.101738
62
8
1

0
POINT
8
0
10
7512603.049000
20
4691728.551000
30
0.000000
0
TEXT
8
PNTNO
10
7512603.746000
20
4691727.982000
40
0.101738
62
8
1
72
0
TEXT
8
PNTELEV
10
7512603.746000
20
4691727.854827
40
0.101738
1
0.000
0
TEXT
8
PNTDESC
10
7512603.746000
20
4691727.727655
40
0.101738
62
8
1

0
TEXT
8
PNTATTRS
10
7512603.746000
20
4691727.600482
40
0.101738
62
8
1

0
POINT
8
0
10
7512603.746000
20
4691727.982000
30
0.000000
0
TEXT
8
PNTNO
10
7512600.255000
20
4691730.188000
40
0.101738
62
8
1
73
0
TEXT
8
PNTELEV
10
7512600.255000
20
4691730.060827
40
0.101738
1
0.000
0
TEXT
8
PNTDESC
10
7512600.255000
20
4691729.933655
40
0.101738
62
8
1

0
TEXT
8
PNTATTRS
10
7512600.255000
20
4691729.806482
40
0.101738
62
8
1

0
POINT
8
0
10
7512600.255000
20
4691730.188000
30
0.000000
0
TEXT
8
PNTNO
10
7512599.636000
20
4691730.695000
40
0.101738
62
8
1
74
0
TEXT
8
PNTELEV
10
7512599.636000
20
4691730.567827
40
0.101738
1
0.000
0
TEXT
8
PNTDESC
10
7512599.636000
20
4691730.440655
40
0.101738
62
8
1

0
TEXT
8
PNTATTRS
10
7512599.636000
20
4691730.313482
40
0.101738
62
8
1

0
POINT
8
0
10
7512599.636000
20
4691730.695000
30
0.000000
0
TEXT
8
PNTNO
10
7512599.952000
20
4691731.081000
40
0.101738
62
8
1
75
0
TEXT
8
PNTELEV
10
7512599.952000
20
4691730.953827
40
0.101738
1
0.000
0
TEXT
8
PNTDESC
10
7512599.952000
20
4691730.826655
40
0.101738
62
8
1

0
TEXT
8
PNTATTRS
10
7512599.952000
20
4691730.699482
40
0.101738
62
8
1

0
POINT
8
0
10
7512599.952000
20
4691731.081000
30
0.000000
0
TEXT
8
PNTNO
10
7512600.571000
20
4691730.575000
40
0.101738
62
8
1
76
0
TEXT
8
PNTELEV
10
7512600.571000
20
4691730.447827
40
0.101738
1
0.000
0
TEXT
8
PNTDESC
10
7512600.571000
20
4691730.320655
40
0.101738
62
8
1

0
TEXT
8
PNTATTRS
10
7512600.571000
20
4691730.193482
40
0.101738
62
8
1

0
POINT
8
0
10
7512600.571000
20
4691730.575000
30
0.000000
0
TEXT
8
PNTNO
10
7512603.582000
20
4691720.824000
40
0.101738
62
8
1
77
0
TEXT
8
PNTELEV
10
7512603.582000
20
4691720.696827
40
0.101738
1
0.000
0
TEXT
8
PNTDESC
10
7512603.582000
20
4691720.569655
40
0.101738
62
8
1

0
TEXT
8
PNTATTRS
10
7512603.582000
20
4691720.442482
40
0.101738
62
8
1

0
POINT
8
0
10
7512603.582000
20
4691720.824000
30
0.000000
0
TEXT
8
PNTNO
10
7512604.820000
20
4691719.812000
40
0.101738
62
8
1
78
0
TEXT
8
PNTELEV
10
7512604.820000
20
4691719.684827
40
0.101738
1
0.000
0
TEXT
8
PNTDESC
10
7512604.820000
20
4691719.557655
40
0.101738
62
8
1

0
TEXT
8
PNTATTRS
10
7512604.820000
20
4691719.430482
40
0.101738
62
8
1

0
POINT
8
0
10
7512604.820000
20
4691719.812000
30
0.000000
0
TEXT
8
PNTNO
10
7512604.598000
20
4691719.541000
40
0.101738
62
8
1
79
0
TEXT
8
PNTELEV
10
7512604.598000
20
4691719.413827
40
0.101738
1
0.000
0
TEXT
8
PNTDESC
10
7512604.598000
20
4691719.286655
40
0.101738
62
8
1

0
TEXT
8
PNTATTRS
10
7512604.598000
20
4691719.159482
40
0.101738
62
8
1

0
POINT
8
0
10
7512604.598000
20
4691719.541000
30
0.000000
0
TEXT
8
PNTNO
10
7512603.360000
20
4691720.553000
40
0.101738
62
8
1
80
0
TEXT
8
PNTELEV
10
7512603.360000
20
4691720.425827
40
0.101738
1
0.000
0
TEXT
8
PNTDESC
10
7512603.360000
20
4691720.298655
40
0.101738
62
8
1

0
TEXT
8
PNTATTRS
10
7512603.360000
20
4691720.171482
40
0.101738
62
8
1

0
POINT
8
0
10
7512603.360000
20
4691720.553000
30
0.000000
0
TEXT
8
PNTNO
10
7512607.996000
20
4691717.536000
40
0.101738
62
8
1
81
0
TEXT
8
PNTELEV
10
7512607.996000
20
4691717.408827
40
0.101738
1
0.000
0
TEXT
8
PNTDESC
10
7512607.996000
20
4691717.281655
40
0.101738
62
8
1

0
TEXT
8
PNTATTRS
10
7512607.996000
20
4691717.154482
40
0.101738
62
8
1

0
POINT
8
0
10
7512607.996000
20
4691717.536000
30
0.000000
0
TEXT
8
PNTNO
10
7512608.267000
20
4691717.315000
40
0.101738
62
8
1
82
0
TEXT
8
PNTELEV
10
7512608.267000
20
4691717.187827
40
0.101738
1
0.000
0
TEXT
8
PNTDESC
10
7512608.267000
20
4691717.060655
40
0.101738
62
8
1

0
TEXT
8
PNTATTRS
10
7512608.267000
20
4691716.933482
40
0.101738
62
8
1

0
POINT
8
0
10
7512608.267000
20
4691717.315000
30
0.000000
0
TEXT
8
PNTNO
10
7512607.507000
20
4691716.386000
40
0.101738
62
8
1
83
0
TEXT
8
PNTELEV
10
7512607.507000
20
4691716.258827
40
0.101738
1
0.000
0
TEXT
8
PNTDESC
10
7512607.507000
20
4691716.131655
40
0.101738
62
8
1

0
TEXT
8
PNTATTRS
10
7512607.507000
20
4691716.004482
40
0.101738
62
8
1

0
POINT
8
0
10
7512607.507000
20
4691716.386000
30
0.000000
0
TEXT
8
PNTNO
10
7512607.237000
20
4691716.608000
40
0.101738
62
8
1
84
0
TEXT
8
PNTELEV
10
7512607.237000
20
4691716.480827
40
0.101738
1
0.000
0
TEXT
8
PNTDESC
10
7512607.237000
20
4691716.353655
40
0.101738
62
8
1

0
TEXT
8
PNTATTRS
10
7512607.237000
20
4691716.226482
40
0.101738
62
8
1

0
POINT
8
0
10
7512607.237000
20
4691716.608000
30
0.000000
0
TEXT
8
PNTNO
10
7512605.224000
20
4691711.305000
40
0.101738
62
8
1
85
0
TEXT
8
PNTELEV
10
7512605.224000
20
4691711.177827
40
0.101738
1
0.000
0
TEXT
8
PNTDESC
10
7512605.224000
20
4691711.050655
40
0.101738
62
8
1

0
TEXT
8
PNTATTRS
10
7512605.224000
20
4691710.923482
40
0.101738
62
8
1

0
POINT
8
0
10
7512605.224000
20
4691711.305000
30
0.000000
0
TEXT
8
PNTNO
10
7512605.495000
20
4691711.084000
40
0.101738
62
8
1
86
0
TEXT
8
PNTELEV
10
7512605.495000
20
4691710.956827
40
0.101738
1
0.000
0
TEXT
8
PNTDESC
10
7512605.495000
20
4691710.829655
40
0.101738
62
8
1

0
TEXT
8
PNTATTRS
10
7512605.495000
20
4691710.702482
40
0.101738
62
8
1

0
POINT
8
0
10
7512605.495000
20
4691711.084000
30
0.000000
0
TEXT
8
PNTNO
10
7512604.735000
20
4691710.155000
40
0.101738
62
8
1
87
0
TEXT
8
PNTELEV
10
7512604.735000
20
4691710.027827
40
0.101738
1
0.000
0
TEXT
8
PNTDESC
10
7512604.735000
20
4691709.900655
40
0.101738
62
8
1

0
TEXT
8
PNTATTRS
10
7512604.735000
20
4691709.773482
40
0.101738
62
8
1

0
POINT
8
0
10
7512604.735000
20
4691710.155000
30
0.000000
0
TEXT
8
PNTNO
10
7512604.464000
20
4691710.377000
40
0.101738
62
8
1
88
0
TEXT
8
PNTELEV
10
7512604.464000
20
4691710.249827
40
0.101738
1
0.000
0
TEXT
8
PNTDESC
10
7512604.464000
20
4691710.122655
40
0.101738
62
8
1

0
TEXT
8
PNTATTRS
10
7512604.464000
20
4691709.995482
40
0.101738
62
8
1

0
POINT
8
0
10
7512604.464000
20
4691710.377000
30
0.000000
0
TEXT
8
PNTNO
10
7512603.850000
20
4691709.626000
40
0.101738
62
8
1
89
0
TEXT
8
PNTELEV
10
7512603.850000
20
4691709.498827
40
0.101738
1
0.000
0
TEXT
8
PNTDESC
10
7512603.850000
20
4691709.371655
40
0.101738
62
8
1

0
TEXT
8
PNTATTRS
10
7512603.850000
20
4691709.244482
40
0.101738
62
8
1

0
POINT
8
0
10
7512603.850000
20
4691709.626000
30
0.000000
0
TEXT
8
PNTNO
10
7512604.121000
20
4691709.404000
40
0.101738
62
8
1
90
0
TEXT
8
PNTELEV
10
7512604.121000
20
4691709.276827
40
0.101738
1
0.000
0
TEXT
8
PNTDESC
10
7512604.121000
20
4691709.149655
40
0.101738
62
8
1

0
TEXT
8
PNTATTRS
10
7512604.121000
20
4691709.022482
40
0.101738
62
8
1

0
POINT
8
0
10
7512604.121000
20
4691709.404000
30
0.000000
0
TEXT
8
PNTNO
10
7512602.729000
20
4691707.702000
40
0.101738
62
8
1
91
0
TEXT
8
PNTELEV
10
7512602.729000
20
4691707.574827
40
0.101738
1
0.000
0
TEXT
8
PNTDESC
10
7512602.729000
20
4691707.447655
40
0.101738
62
8
1

0
TEXT
8
PNTATTRS
10
7512602.729000
20
4691707.320482
40
0.101738
62
8
1

0
POINT
8
0
10
7512602.729000
20
4691707.702000
30
0.000000
0
TEXT
8
PNTNO
10
7512602.458000
20
4691707.924000
40
0.101738
62
8
1
92
0
TEXT
8
PNTELEV
10
7512602.458000
20
4691707.796827
40
0.101738
1
0.000
0
TEXT
8
PNTDESC
10
7512602.458000
20
4691707.669655
40
0.101738
62
8
1

0
TEXT
8
PNTATTRS
10
7512602.458000
20
4691707.542482
40
0.101738
62
8
1

0
POINT
8
0
10
7512602.458000
20
4691707.924000
30
0.000000
0
TEXT
8
PNTNO
10
7512597.080000
20
4691712.323000
40
0.101738
62
8
1
93
0
TEXT
8
PNTELEV
10
7512597.080000
20
4691712.195827
40
0.101738
1
0.000
0
TEXT
8
PNTDESC
10
7512597.080000
20
4691712.068655
40
0.101738
62
8
1

0
TEXT
8
PNTATTRS
10
7512597.080000
20
4691711.941482
40
0.101738
62
8
1

0
POINT
8
0
10
7512597.080000
20
4691712.323000
30
0.000000
0
TEXT
8
PNTNO
10
7512596.809000
20
4691712.544000
40
0.101738
62
8
1
94
0
TEXT
8
PNTELEV
10
7512596.809000
20
4691712.416827
40
0.101738
1
0.000
0
TEXT
8
PNTDESC
10
7512596.809000
20
4691712.289655
40
0.101738
62
8
1

0
TEXT
8
PNTATTRS
10
7512596.809000
20
4691712.162482
40
0.101738
62
8
1

0
POINT
8
0
10
7512596.809000
20
4691712.544000
30
0.000000
0
TEXT
8
PNTNO
10
7512597.568000
20
4691713.473000
40
0.101738
62
8
1
95
0
TEXT
8
PNTELEV
10
7512597.568000
20
4691713.345827
40
0.101738
1
0.000
0
TEXT
8
PNTDESC
10
7512597.568000
20
4691713.218655
40
0.101738
62
8
1

0
TEXT
8
PNTATTRS
10
7512597.568000
20
4691713.091482
40
0.101738
62
8
1

0
POINT
8
0
10
7512597.568000
20
4691713.473000
30
0.000000
0
TEXT
8
PNTNO
10
7512597.839000
20
4691713.251000
40
0.101738
62
8
1
96
0
TEXT
8
PNTELEV
10
7512597.839000
20
4691713.123827
40
0.101738
1
0.000
0
TEXT
8
PNTDESC
10
7512597.839000
20
4691712.996655
40
0.101738
62
8
1

0
TEXT
8
PNTATTRS
10
7512597.839000
20
4691712.869482
40
0.101738
62
8
1

0
POINT
8
0
10
7512597.839000
20
4691713.251000
30
0.000000
0
TEXT
8
PNTNO
10
7512591.972000
20
4691716.500000
40
0.101738
62
8
1
97
0
TEXT
8
PNTELEV
10
7512591.972000
20
4691716.372827
40
0.101738
1
0.000
0
TEXT
8
PNTDESC
10
7512591.972000
20
4691716.245655
40
0.101738
62
8
1

0
TEXT
8
PNTATTRS
10
7512591.972000
20
4691716.118482
40
0.101738
62
8
1

0
POINT
8
0
10
7512591.972000
20
4691716.500000
30
0.000000
0
TEXT
8
PNTNO
10
7512591.702000
20
4691716.721000
40
0.101738
62
8
1
98
0
TEXT
8
PNTELEV
10
7512591.702000
20
4691716.593827
40
0.101738
1
0.000
0
TEXT
8
PNTDESC
10
7512591.702000
20
4691716.466655
40
0.101738
62
8
1

0
TEXT
8
PNTATTRS
10
7512591.702000
20
4691716.339482
40
0.101738
62
8
1

0
POINT
8
0
10
7512591.702000
20
4691716.721000
30
0.000000
0
TEXT
8
PNTNO
10
7512592.461000
20
4691717.650000
40
0.101738
62
8
1
99
0
TEXT
8
PNTELEV
10
7512592.461000
20
4691717.522827
40
0.101738
1
0.000
0
TEXT
8
PNTDESC
10
7512592.461000
20
4691717.395655
40
0.101738
62
8
1

0
TEXT
8
PNTATTRS
10
7512592.461000
20
4691717.268482
40
0.101738
62
8
1

0
POINT
8
0
10
7512592.461000
20
4691717.650000
30
0.000000
0
TEXT
8
PNTNO
10
7512592.732000
20
4691717.429000
40
0.101738
62
8
1
100
0
TEXT
8
PNTELEV
10
7512592.732000
20
4691717.301827
40
0.101738
1
0.000
0
TEXT
8
PNTDESC
10
7512592.732000
20
4691717.174655
40
0.101738
62
8
1

0
TEXT
8
PNTATTRS
10
7512592.732000
20
4691717.047482
40
0.101738
62
8
1

0
POINT
8
0
10
7512592.732000
20
4691717.429000
30
0.000000
0
TEXT
8
PNTNO
10
7512588.877000
20
4691719.032000
40
0.101738
62
8
1
101
0
TEXT
8
PNTELEV
10
7512588.877000
20
4691718.904827
40
0.101738
1
0.000
0
TEXT
8
PNTDESC
10
7512588.877000
20
4691718.777655
40
0.101738
62
8
1

0
TEXT
8
PNTATTRS
10
7512588.877000
20
4691718.650482
40
0.101738
62
8
1

0
POINT
8
0
10
7512588.877000
20
4691719.032000
30
0.000000
0
TEXT
8
PNTNO
10
7512588.568000
20
4691719.285000
40
0.101738
62
8
1
102
0
TEXT
8
PNTELEV
10
7512588.568000
20
4691719.157827
40
0.101738
1
0.000
0
TEXT
8
PNTDESC
10
7512588.568000
20
4691719.030655
40
0.101738
62
8
1

0
TEXT
8
PNTATTRS
10
7512588.568000
20
4691718.903482
40
0.101738
62
8
1

0
POINT
8
0
10
7512588.568000
20
4691719.285000
30
0.000000
0
TEXT
8
PNTNO
10
7512589.580000
20
4691720.523000
40
0.101738
62
8
1
103
0
TEXT
8
PNTELEV
10
7512589.580000
20
4691720.395827
40
0.101738
1
0.000
0
TEXT
8
PNTDESC
10
7512589.580000
20
4691720.268655
40
0.101738
62
8
1

0
TEXT
8
PNTATTRS
10
7512589.580000
20
4691720.141482
40
0.101738
62
8
1

0
POINT
8
0
10
7512589.580000
20
4691720.523000
30
0.000000
0
TEXT
8
PNTNO
10
7512589.890000
20
4691720.270000
40
0.101738
62
8
1
104
0
TEXT
8
PNTELEV
10
7512589.890000
20
4691720.142827
40
0.101738
1
0.000
0
TEXT
8
PNTDESC
10
7512589.890000
20
4691720.015655
40
0.101738
62
8
1

0
TEXT
8
PNTATTRS
10
7512589.890000
20
4691719.888482
40
0.101738
62
8
1

0
POINT
8
0
10
7512589.890000
20
4691720.270000
30
0.000000
0
TEXT
8
PNTNO
10
7512590.845000
20
4691721.516000
40
0.101738
62
8
1
105
0
TEXT
8
PNTELEV
10
7512590.845000
20
4691721.388827
40
0.101738
1
0.000
0
TEXT
8
PNTDESC
10
7512590.845000
20
4691721.261655
40
0.101738
62
8
1

0
TEXT
8
PNTATTRS
10
7512590.845000
20
4691721.134482
40
0.101738
62
8
1

0
POINT
8
0
10
7512590.845000
20
4691721.516000
30
0.000000
0
TEXT
8
PNTNO
10
7512590.574000
20
4691721.738000
40
0.101738
62
8
1
106
0
TEXT
8
PNTELEV
10
7512590.574000
20
4691721.610827
40
0.101738
1
0.000
0
TEXT
8
PNTDESC
10
7512590.574000
20
4691721.483655
40
0.101738
62
8
1

0
TEXT
8
PNTATTRS
10
7512590.574000
20
4691721.356482
40
0.101738
62
8
1

0
POINT
8
0
10
7512590.574000
20
4691721.738000
30
0.000000
0
TEXT
8
PNTNO
10
7512591.334000
20
4691722.667000
40
0.101738
62
8
1
107
0
TEXT
8
PNTELEV
10
7512591.334000
20
4691722.539827
40
0.101738
1
0.000
0
TEXT
8
PNTDESC
10
7512591.334000
20
4691722.412655
40
0.101738
62
8
1

0
TEXT
8
PNTATTRS
10
7512591.334000
20
4691722.285482
40
0.101738
62
8
1

0
POINT
8
0
10
7512591.334000
20
4691722.667000
30
0.000000
0
TEXT
8
PNTNO
10
7512591.604000
20
4691722.445000
40
0.101738
62
8
1
108
0
TEXT
8
PNTELEV
10
7512591.604000
20
4691722.317827
40
0.101738
1
0.000
0
TEXT
8
PNTDESC
10
7512591.604000
20
4691722.190655
40
0.101738
62
8
1

0
TEXT
8
PNTATTRS
10
7512591.604000
20
4691722.063482
40
0.101738
62
8
1

0
POINT
8
0
10
7512591.604000
20
4691722.445000
30
0.000000
0
TEXT
8
PNTNO
10
7512594.468000
20
4691720.103000
40
0.101738
62
8
1
109
0
TEXT
8
PNTELEV
10
7512594.468000
20
4691719.975827
40
0.101738
1
0.000
0
TEXT
8
PNTDESC
10
7512594.468000
20
4691719.848655
40
0.101738
62
8
1

0
TEXT
8
PNTATTRS
10
7512594.468000
20
4691719.721482
40
0.101738
62
8
1

0
POINT
8
0
10
7512594.468000
20
4691720.103000
30
0.000000
0
TEXT
8
PNTNO
10
7512594.738000
20
4691719.882000
40
0.101738
62
8
1
110
0
TEXT
8
PNTELEV
10
7512594.738000
20
4691719.754827
40
0.101738
1
0.000
0
TEXT
8
PNTDESC
10
7512594.738000
20
4691719.627655
40
0.101738
62
8
1

0
TEXT
8
PNTATTRS
10
7512594.738000
20
4691719.500482
40
0.101738
62
8
1

0
POINT
8
0
10
7512594.738000
20
4691719.882000
30
0.000000
0
TEXT
8
PNTNO
10
7512593.979000
20
4691718.953000
40
0.101738
62
8
1
111
0
TEXT
8
PNTELEV
10
7512593.979000
20
4691718.825827
40
0.101738
1
0.000
0
TEXT
8
PNTDESC
10
7512593.979000
20
4691718.698655
40
0.101738
62
8
1

0
TEXT
8
PNTATTRS
10
7512593.979000
20
4691718.571482
40
0.101738
62
8
1

0
POINT
8
0
10
7512593.979000
20
4691718.953000
30
0.000000
0
TEXT
8
PNTNO
10
7512593.708000
20
4691719.175000
40
0.101738
62
8
1
112
0
TEXT
8
PNTELEV
10
7512593.708000
20
4691719.047827
40
0.101738
1
0.000
0
TEXT
8
PNTDESC
10
7512593.708000
20
4691718.920655
40
0.101738
62
8
1

0
TEXT
8
PNTATTRS
10
7512593.708000
20
4691718.793482
40
0.101738
62
8
1

0
POINT
8
0
10
7512593.708000
20
4691719.175000
30
0.000000
0
TEXT
8
PNTNO
10
7512599.575000
20
4691715.926000
40
0.101738
62
8
1
113
0
TEXT
8
PNTELEV
10
7512599.575000
20
4691715.798827
40
0.101738
1
0.000
0
TEXT
8
PNTDESC
10
7512599.575000
20
4691715.671655
40
0.101738
62
8
1

0
TEXT
8
PNTATTRS
10
7512599.575000
20
4691715.544482
40
0.101738
62
8
1

0
POINT
8
0
10
7512599.575000
20
4691715.926000
30
0.000000
0
TEXT
8
PNTNO
10
7512599.846000
20
4691715.704000
40
0.101738
62
8
1
114
0
TEXT
8
PNTELEV
10
7512599.846000
20
4691715.576827
40
0.101738
1
0.000
0
TEXT
8
PNTDESC
10
7512599.846000
20
4691715.449655
40
0.101738
62
8
1

0
TEXT
8
PNTATTRS
10
7512599.846000
20
4691715.322482
40
0.101738
62
8
1

0
POINT
8
0
10
7512599.846000
20
4691715.704000
30
0.000000
0
TEXT
8
PNTNO
10
7512599.086000
20
4691714.776000
40
0.101738
62
8
1
115
0
TEXT
8
PNTELEV
10
7512599.086000
20
4691714.648827
40
0.101738
1
0.000
0
TEXT
8
PNTDESC
10
7512599.086000
20
4691714.521655
40
0.101738
62
8
1

0
TEXT
8
PNTATTRS
10
7512599.086000
20
4691714.394482
40
0.101738
62
8
1

0
POINT
8
0
10
7512599.086000
20
4691714.776000
30
0.000000
0
TEXT
8
PNTNO
10
7512598.815000
20
4691714.997000
40
0.101738
62
8
1
116
0
TEXT
8
PNTELEV
10
7512598.815000
20
4691714.869827
40
0.101738
1
0.000
0
TEXT
8
PNTDESC
10
7512598.815000
20
4691714.742655
40
0.101738
62
8
1

0
TEXT
8
PNTATTRS
10
7512598.815000
20
4691714.615482
40
0.101738
62
8
1

0
POINT
8
0
10
7512598.815000
20
4691714.997000
30
0.000000
0
TEXT
8
PNTNO
10
7512594.811000
20
4691728.822000
40
0.101738
62
8
1
117
0
TEXT
8
PNTELEV
10
7512594.811000
20
4691728.694827
40
0.101738
1
0.000
0
TEXT
8
PNTDESC
10
7512594.811000
20
4691728.567655
40
0.101738
62
8
1

0
TEXT
8
PNTATTRS
10
7512594.811000
20
4691728.440482
40
0.101738
62
8
1

0
POINT
8
0
10
7512594.811000
20
4691728.822000
30
0.000000
0
TEXT
8
PNTNO
10
7512590.988000
20
4691724.149000
40
0.101738
62
8
1
118
0
TEXT
8
PNTELEV
10
7512590.988000
20
4691724.021827
40
0.101738
1
0.000
0
TEXT
8
PNTDESC
10
7512590.988000
20
4691723.894655
40
0.101738
62
8
1

0
TEXT
8
PNTATTRS
10
7512590.988000
20
4691723.767482
40
0.101738
62
8
1

0
POINT
8
0
10
7512590.988000
20
4691724.149000
30
0.000000
0
TEXT
8
PNTNO
10
7512593.310000
20
4691722.250000
40
0.101738
62
8
1
119
0
TEXT
8
PNTELEV
10
7512593.310000
20
4691722.122827
40
0.101738
1
0.000
0
TEXT
8
PNTDESC
10
7512593.310000
20
4691721.995655
40
0.101738
62
8
1

0
TEXT
8
PNTATTRS
10
7512593.310000
20
4691721.868482
40
0.101738
62
8
1

0
POINT
8
0
10
7512593.310000
20
4691722.250000
30
0.000000
0
TEXT
8
PNTNO
10
7512597.133000
20
4691726.924000
40
0.101738
62
8
1
120
0
TEXT
8
PNTELEV
10
7512597.133000
20
4691726.796827
40
0.101738
1
0.000
0
TEXT
8
PNTDESC
10
7512597.133000
20
4691726.669655
40
0.101738
62
8
1

0
TEXT
8
PNTATTRS
10
7512597.133000
20
4691726.542482
40
0.101738
62
8
1

0
POINT
8
0
10
7512597.133000
20
4691726.924000
30
0.000000
0
TEXT
8
PNTNO
10
7512597.326000
20
4691726.765000
40
0.101738
62
8
1
121
0
TEXT
8
PNTELEV
10
7512597.326000
20
4691726.637827
40
0.101738
1
0.000
0
TEXT
8
PNTDESC
10
7512597.326000
20
4691726.510655
40
0.101738
62
8
1

0
TEXT
8
PNTATTRS
10
7512597.326000
20
4691726.383482
40
0.101738
62
8
1

0
POINT
8
0
10
7512597.326000
20
4691726.765000
30
0.000000
0
TEXT
8
PNTNO
10
7512595.431000
20
4691724.448000
40
0.101738
62
8
1
122
0
TEXT
8
PNTELEV
10
7512595.431000
20
4691724.320827
40
0.101738
1
0.000
0
TEXT
8
PNTDESC
10
7512595.431000
20
4691724.193655
40
0.101738
62
8
1

0
TEXT
8
PNTATTRS
10
7512595.431000
20
4691724.066482
40
0.101738
62
8
1

0
POINT
8
0
10
7512595.431000
20
4691724.448000
30
0.000000
0
TEXT
8
PNTNO
10
7512598.062000
20
4691722.296000
40
0.101738
62
8
1
123
0
TEXT
8
PNTELEV
10
7512598.062000
20
4691722.168827
40
0.101738
1
0.000
0
TEXT
8
PNTDESC
10
7512598.062000
20
4691722.041655
40
0.101738
62
8
1

0
TEXT
8
PNTATTRS
10
7512598.062000
20
4691721.914482
40
0.101738
62
8
1

0
POINT
8
0
10
7512598.062000
20
4691722.296000
30
0.000000
0
TEXT
8
PNTNO
10
7512599.960000
20
4691724.617000
40
0.101738
62
8
1
124
0
TEXT
8
PNTELEV
10
7512599.960000
20
4691724.489827
40
0.101738
1
0.000
0
TEXT
8
PNTDESC
10
7512599.960000
20
4691724.362655
40
0.101738
62
8
1

0
TEXT
8
PNTATTRS
10
7512599.960000
20
4691724.235482
40
0.101738
62
8
1

0
POINT
8
0
10
7512599.960000
20
4691724.617000
30
0.000000
0
TEXT
8
PNTNO
10
7512600.154000
20
4691724.459000
40
0.101738
62
8
1
125
0
TEXT
8
PNTELEV
10
7512600.154000
20
4691724.331827
40
0.101738
1
0.000
0
TEXT
8
PNTDESC
10
7512600.154000
20
4691724.204655
40
0.101738
62
8
1

0
TEXT
8
PNTATTRS
10
7512600.154000
20
4691724.077482
40
0.101738
62
8
1

0
POINT
8
0
10
7512600.154000
20
4691724.459000
30
0.000000
0
TEXT
8
PNTNO
10
7512598.097000
20
4691721.944000
40
0.101738
62
8
1
126
0
TEXT
8
PNTELEV
10
7512598.097000
20
4691721.816827
40
0.101738
1
0.000
0
TEXT
8
PNTDESC
10
7512598.097000
20
4691721.689655
40
0.101738
62
8
1

0
TEXT
8
PNTATTRS
10
7512598.097000
20
4691721.562482
40
0.101738
62
8
1

0
POINT
8
0
10
7512598.097000
20
4691721.944000
30
0.000000
0
TEXT
8
PNTNO
10
7512595.272000
20
4691724.254000
40
0.101738
62
8
1
127
0
TEXT
8
PNTELEV
10
7512595.272000
20
4691724.126827
40
0.101738
1
0.000
0
TEXT
8
PNTDESC
10
7512595.272000
20
4691723.999655
40
0.101738
62
8
1

0
TEXT
8
PNTATTRS
10
7512595.272000
20
4691723.872482
40
0.101738
62
8
1

0
POINT
8
0
10
7512595.272000
20
4691724.254000
30
0.000000
0
TEXT
8
PNTNO
10
7512593.345000
20
4691721.898000
40
0.101738
62
8
1
128
0
TEXT
8
PNTELEV
10
7512593.345000
20
4691721.770827
40
0.101738
1
0.000
0
TEXT
8
PNTDESC
10
7512593.345000
20
4691721.643655
40
0.101738
62
8
1

0
TEXT
8
PNTATTRS
10
7512593.345000
20
4691721.516482
40
0.101738
62
8
1

0
POINT
8
0
10
7512593.345000
20
4691721.898000
30
0.000000
0
TEXT
8
PNTNO
10
7512590.637000
20
4691724.113000
40
0.101738
62
8
1
129
0
TEXT
8
PNTELEV
10
7512590.637000
20
4691723.985827
40
0.101738
1
0.000
0
TEXT
8
PNTDESC
10
7512590.637000
20
4691723.858655
40
0.101738
62
8
1

0
TEXT
8
PNTATTRS
10
7512590.637000
20
4691723.731482
40
0.101738
62
8
1

0
POINT
8
0
10
7512590.637000
20
4691724.113000
30
0.000000
0
TEXT
8
PNTNO
10
7512594.618000
20
4691728.981000
40
0.101738
62
8
1
130
0
TEXT
8
PNTELEV
10
7512594.618000
20
4691728.853827
40
0.101738
1
0.000
0
TEXT
8
PNTDESC
10
7512594.618000
20
4691728.726655
40
0.101738
62
8
1

0
TEXT
8
PNTATTRS
10
7512594.618000
20
4691728.599482
40
0.101738
62
8
1

0
POINT
8
0
10
7512594.618000
20
4691728.981000
30
0.000000
0
TEXT
8
PNTNO
10
7512590.516000
20
4691738.800000
40
0.101738
62
8
1
131
0
TEXT
8
PNTELEV
10
7512590.516000
20
4691738.672827
40
0.101738
1
0.000
0
TEXT
8
PNTDESC
10
7512590.516000
20
4691738.545655
40
0.101738
62
8
1

0
TEXT
8
PNTATTRS
10
7512590.516000
20
4691738.418482
40
0.101738
62
8
1

0
POINT
8
0
10
7512590.516000
20
4691738.800000
30
0.000000
0
TEXT
8
PNTNO
10
7512591.132000
20
4691738.296000
40
0.101738
62
8
1
132
0
TEXT
8
PNTELEV
10
7512591.132000
20
4691738.168827
40
0.101738
1
0.000
0
TEXT
8
PNTDESC
10
7512591.132000
20
4691738.041655
40
0.101738
62
8
1

0
TEXT
8
PNTATTRS
10
7512591.132000
20
4691737.914482
40
0.101738
62
8
1

0
POINT
8
0
10
7512591.132000
20
4691738.296000
30
0.000000
0
TEXT
8
PNTNO
10
7512590.816000
20
4691737.909000
40
0.101738
62
8
1
133
0
TEXT
8
PNTELEV
10
7512590.816000
20
4691737.781827
40
0.101738
1
0.000
0
TEXT
8
PNTDESC
10
7512590.816000
20
4691737.654655
40
0.101738
62
8
1

0
TEXT
8
PNTATTRS
10
7512590.816000
20
4691737.527482
40
0.101738
62
8
1

0
POINT
8
0
10
7512590.816000
20
4691737.909000
30
0.000000
0
TEXT
8
PNTNO
10
7512590.199000
20
4691738.413000
40
0.101738
62
8
1
134
0
TEXT
8
PNTELEV
10
7512590.199000
20
4691738.285827
40
0.101738
1
0.000
0
TEXT
8
PNTDESC
10
7512590.199000
20
4691738.158655
40
0.101738
62
8
1

0
TEXT
8
PNTATTRS
10
7512590.199000
20
4691738.031482
40
0.101738
62
8
1

0
POINT
8
0
10
7512590.199000
20
4691738.413000
30
0.000000
0
TEXT
8
PNTNO
10
7512608.787000
20
4691715.662000
40
0.101738
62
8
1
135
0
TEXT
8
PNTELEV
10
7512608.787000
20
4691715.534827
40
0.101738
1
0.000
0
TEXT
8
PNTDESC
10
7512608.787000
20
4691715.407655
40
0.101738
62
8
1

0
TEXT
8
PNTATTRS
10
7512608.787000
20
4691715.280482
40
0.101738
62
8
1

0
POINT
8
0
10
7512608.787000
20
4691715.662000
30
0.000000
0
TEXT
8
PNTNO
10
7512609.058000
20
4691715.441000
40
0.101738
62
8
1
136
0
TEXT
8
PNTELEV
10
7512609.058000
20
4691715.313827
40
0.101738
1
0.000
0
TEXT
8
PNTDESC
10
7512609.058000
20
4691715.186655
40
0.101738
62
8
1

0
TEXT
8
PNTATTRS
10
7512609.058000
20
4691715.059482
40
0.101738
62
8
1

0
POINT
8
0
10
7512609.058000
20
4691715.441000
30
0.000000
0
TEXT
8
PNTNO
10
7512607.666000
20
4691713.738000
40
0.101738
62
8
1
137
0
TEXT
8
PNTELEV
10
7512607.666000
20
4691713.610827
40
0.101738
1
0.000
0
TEXT
8
PNTDESC
10
7512607.666000
20
4691713.483655
40
0.101738
62
8
1

0
TEXT
8
PNTATTRS
10
7512607.666000
20
4691713.356482
40
0.101738
62
8
1

0
POINT
8
0
10
7512607.666000
20
4691713.738000
30
0.000000
0
TEXT
8
PNTNO
10
7512607.395000
20
4691713.960000
40
0.101738
62
8
1
138
0
TEXT
8
PNTELEV
10
7512607.395000
20
4691713.832827
40
0.101738
1
0.000
0
TEXT
8
PNTDESC
10
7512607.395000
20
4691713.705655
40
0.101738
62
8
1

0
TEXT
8
PNTATTRS
10
7512607.395000
20
4691713.578482
40
0.101738
62
8
1

0
POINT
8
0
10
7512607.395000
20
4691713.960000
30
0.000000
0
TEXT
8
PNTNO
10
7512582.757000
20
4691736.384000
40
0.101738
62
8
1
P1
0
TEXT
8
PNTELEV
10
7512582.757000
20
4691736.256827
40
0.101738
1
647.071
0
TEXT
8
PNTDESC
10
7512582.757000
20
4691736.129655
40
0.101738
62
8
1

0
TEXT
8
PNTATTRS
10
7512582.757000
20
4691736.002482
40
0.101738
62
8
1

0
POINT
8
0
10
7512582.757000
20
4691736.384000
30
647.071000
0
TEXT
8
PNTNO
10
7512638.303000
20
4691739.721000
40
0.101738
62
8
1
P2
0
TEXT
8
PNTELEV
10
7512638.303000
20
4691739.593827
40
0.101738
1
646.382
0
TEXT
8
PNTDESC
10
7512638.303000
20
4691739.466655
40
0.101738
62
8
1

0
TEXT
8
PNTATTRS
10
7512638.303000
20
4691739.339482
40
0.101738
62
8
1

0
POINT
8
0
10
7512638.303000
20
4691739.721000
30
646.382000
0
TEXT
8
PNTNO
10
7512594.316707
20
4691714.121853
40
0.101738
62
8
1
K1-FS1
0
TEXT
8
PNTELEV
10
7512594.316707
20
4691713.994680
40
0.101738
1
616.397
0
TEXT
8
PNTDESC
10
7512594.316707
20
4691713.867508
40
0.101738
62
8
1

0
TEXT
8
PNTATTRS
10
7512594.316707
20
4691713.740335
40
0.101738
62
8
1

0
POINT
8
0
10
7512594.316707
20
4691714.121853
30
616.396796
0
TEXT
8
PNTNO
10
7512579.663117
20
4691732.227670
40
0.101738
62
8
1
200
0
TEXT
8
PNTELEV
10
7512579.663117
20
4691732.100497
40
0.101738
1
616.688
0
TEXT
8
PNTDESC
10
7512579.663117
20
4691731.973325
40
0.101738
62
8
1
KATI1
0
TEXT
8
PNTATTRS
10
7512579.663117
20
4691731.846152
40
0.101738
62
8
1

0
POINT
8
0
10
7512579.663117
20
4691732.227670
30
616.688024
0
TEXT
8
PNTNO
10
7512582.896704
20
4691729.543607
40
0.101738
62
8
1
201
0
TEXT
8
PNTELEV
10
7512582.896704
20
4691729.416434
40
0.101738
1
616.705
0
TEXT
8
PNTDESC
10
7512582.896704
20
4691729.289261
40
0.101738
62
8
1
KATI1
0
TEXT
8
PNTATTRS
10
7512582.896704
20
4691729.162089
40
0.101738
62
8
1

0
POINT
8
0
10
7512582.896704
20
4691729.543607
30
616.705232
0
TEXT
8
PNTNO
10
7512582.694687
20
4691729.264242
40
0.101738
62
8
1
202
0
TEXT
8
PNTELEV
10
7512582.694687
20
4691729.137069
40
0.101738
1
616.676
0
TEXT
8
PNTDESC
10
7512582.694687
20
4691729.009897
40
0.101738
62
8
1
KATI1
0
TEXT
8
PNTATTRS
10
7512582.694687
20
4691728.882724
40
0.101738
62
8
1

0
POINT
8
0
10
7512582.694687
20
4691729.264242
30
616.676412
0
TEXT
8
PNTNO
10
7512587.750588
20
4691725.108203
40
0.101738
62
8
1
203
0
TEXT
8
PNTELEV
10
7512587.750588
20
4691724.981030
40
0.101738
1
616.695
0
TEXT
8
PNTDESC
10
7512587.750588
20
4691724.853858
40
0.101738
62
8
1
KATI1
0
TEXT
8
PNTATTRS
10
7512587.750588
20
4691724.726685
40
0.101738
62
8
1

0
POINT
8
0
10
7512587.750588
20
4691725.108203
30
616.695109
0
TEXT
8
PNTNO
10
7512587.991235
20
4691725.365532
40
0.101738
62
8
1
204
0
TEXT
8
PNTELEV
10
7512587.991235
20
4691725.238360
40
0.101738
1
616.719
0
TEXT
8
PNTDESC
10
7512587.991235
20
4691725.111187
40
0.101738
62
8
1
KATI1
0
TEXT
8
PNTATTRS
10
7512587.991235
20
4691724.984015
40
0.101738
62
8
1

0
POINT
8
0
10
7512587.991235
20
4691725.365532
30
616.719054
0
TEXT
8
PNTNO
10
7512590.354417
20
4691723.448818
40
0.101738
62
8
1
205
0
TEXT
8
PNTELEV
10
7512590.354417
20
4691723.321645
40
0.101738
1
616.728
0
TEXT
8
PNTDESC
10
7512590.354417
20
4691723.194472
40
0.101738
62
8
1
KATI1
0
TEXT
8
PNTATTRS
10
7512590.354417
20
4691723.067300
40
0.101738
62
8
1

0
POINT
8
0
10
7512590.354417
20
4691723.448818
30
616.728373
0
TEXT
8
PNTNO
10
7512590.820125
20
4691723.962755
40
0.101738
62
8
1
206
0
TEXT
8
PNTELEV
10
7512590.820125
20
4691723.835582
40
0.101738
1
616.714
0
TEXT
8
PNTDESC
10
7512590.820125
20
4691723.708409
40
0.101738
62
8
1
KATI1
0
TEXT
8
PNTATTRS
10
7512590.820125
20
4691723.581237
40
0.101738
62
8
1

0
POINT
8
0
10
7512590.820125
20
4691723.962755
30
616.714459
0
TEXT
8
PNTNO
10
7512591.751370
20
4691723.186809
40
0.101738
62
8
1
207
0
TEXT
8
PNTELEV
10
7512591.751370
20
4691723.059636
40
0.101738
1
616.728
0
TEXT
8
PNTDESC
10
7512591.751370
20
4691722.932463
40
0.101738
62
8
1
KATI1
0
TEXT
8
PNTATTRS
10
7512591.751370
20
4691722.805291
40
0.101738
62
8
1

0
POINT
8
0
10
7512591.751370
20
4691723.186809
30
616.728178
0
TEXT
8
PNTNO
10
7512588.262169
20
4691718.931838
40
0.101738
62
8
1
208
0
TEXT
8
PNTELEV
10
7512588.262169
20
4691718.804666
40
0.101738
1
616.729
0
TEXT
8
PNTDESC
10
7512588.262169
20
4691718.677493
40
0.101738
62
8
1
KATI1
0
TEXT
8
PNTATTRS
10
7512588.262169
20
4691718.550320
40
0.101738
62
8
1

0
POINT
8
0
10
7512588.262169
20
4691718.931838
30
616.729464
0
TEXT
8
PNTNO
10
7512590.416826
20
4691717.177263
40
0.101738
62
8
1
209
0
TEXT
8
PNTELEV
10
7512590.416826
20
4691717.050090
40
0.101738
1
616.717
0
TEXT
8
PNTDESC
10
7512590.416826
20
4691716.922918
40
0.101738
62
8
1
KATI1
0
TEXT
8
PNTATTRS
10
7512590.416826
20
4691716.795745
40
0.101738
62
8
1

0
POINT
8
0
10
7512590.416826
20
4691717.177263
30
616.717140
0
TEXT
8
PNTNO
10
7512589.862298
20
4691716.468479
40
0.101738
62
8
1
210
0
TEXT
8
PNTELEV
10
7512589.862298
20
4691716.341306
40
0.101738
1
616.713
0
TEXT
8
PNTDESC
10
7512589.862298
20
4691716.214133
40
0.101738
62
8
1
KATI1
0
TEXT
8
PNTATTRS
10
7512589.862298
20
4691716.086961
40
0.101738
62
8
1

0
POINT
8
0
10
7512589.862298
20
4691716.468479
30
616.712900
0
TEXT
8
PNTNO
10
7512601.841735
20
4691706.651458
40
0.101738
62
8
1
211
0
TEXT
8
PNTELEV
10
7512601.841735
20
4691706.524285
40
0.101738
1
616.705
0
TEXT
8
PNTDESC
10
7512601.841735
20
4691706.397113
40
0.101738
62
8
1
KATI1
0
TEXT
8
PNTATTRS
10
7512601.841735
20
4691706.269940
40
0.101738
62
8
1

0
POINT
8
0
10
7512601.841735
20
4691706.651458
30
616.705459
0
TEXT
8
PNTNO
10
7512609.106359
20
4691715.496559
40
0.101738
62
8
1
212
0
TEXT
8
PNTELEV
10
7512609.106359
20
4691715.369386
40
0.101738
1
616.698
0
TEXT
8
PNTDESC
10
7512609.106359
20
4691715.242213
40
0.101738
62
8
1
KATI1
0
TEXT
8
PNTATTRS
10
7512609.106359
20
4691715.115041
40
0.101738
62
8
1

0
POINT
8
0
10
7512609.106359
20
4691715.496559
30
616.697548
0
TEXT
8
PNTNO
10
7512607.713831
20
4691716.581188
40
0.101738
62
8
1
213
0
TEXT
8
PNTELEV
10
7512607.713831
20
4691716.454015
40
0.101738
1
616.697
0
TEXT
8
PNTDESC
10
7512607.713831
20
4691716.326843
40
0.101738
62
8
1
KATI1
0
TEXT
8
PNTATTRS
10
7512607.713831
20
4691716.199670
40
0.101738
62
8
1

0
POINT
8
0
10
7512607.713831
20
4691716.581188
30
616.697279
0
TEXT
8
PNTNO
10
7512615.602774
20
4691726.199623
40
0.101738
62
8
1
214
0
TEXT
8
PNTELEV
10
7512615.602774
20
4691726.072451
40
0.101738
1
616.697
0
TEXT
8
PNTDESC
10
7512615.602774
20
4691725.945278
40
0.101738
62
8
1
KATI1
0
TEXT
8
PNTATTRS
10
7512615.602774
20
4691725.818106
40
0.101738
62
8
1

0
POINT
8
0
10
7512615.602774
20
4691726.199623
30
616.697460
0
TEXT
8
PNTNO
10
7512591.016123
20
4691746.259814
40
0.101738
62
8
1
215
0
TEXT
8
PNTELEV
10
7512591.016123
20
4691746.132641
40
0.101738
1
616.670
0
TEXT
8
PNTDESC
10
7512591.016123
20
4691746.005469
40
0.101738
62
8
1
KATI1
0
TEXT
8
PNTATTRS
10
7512591.016123
20
4691745.878296
40
0.101738
62
8
1

0
POINT
8
0
10
7512591.016123
20
4691746.259814
30
616.670272
0
TEXT
8
PNTNO
10
7512536.564914
20
4691721.615245
40
0.101738
62
8
1
P3
0
TEXT
8
PNTELEV
10
7512536.564914
20
4691721.488072
40
0.101738
1
610.714
0
TEXT
8
PNTDESC
10
7512536.564914
20
4691721.360900
40
0.101738
62
8
1

0
TEXT
8
PNTATTRS
10
7512536.564914
20
4691721.233727
40
0.101738
62
8
1

0
POINT
8
0
10
7512536.564914
20
4691721.615245
30
610.714448
0
TEXT
8
PNTNO
10
7512536.564918
20
4691721.615529
40
0.101738
62
8
1
P4
0
TEXT
8
PNTELEV
10
7512536.564918
20
4691721.488356
40
0.101738
1
610.715
0
TEXT
8
PNTDESC
10
7512536.564918
20
4691721.361184
40
0.101738
62
8
1

0
TEXT
8
PNTATTRS
10
7512536.564918
20
4691721.234011
40
0.101738
62
8
1

0
POINT
8
0
10
7512536.564918
20
4691721.615529
30
610.714731
0
TEXT
8
PNTNO
10
7512558.221288
20
4691702.659675
40
0.101738
62
8
1
P5
0
TEXT
8
PNTELEV
10
7512558.221288
20
4691702.532503
40
0.101738
1
610.715
0
TEXT
8
PNTDESC
10
7512558.221288
20
4691702.405330
40
0.101738
62
8
1

0
TEXT
8
PNTATTRS
10
7512558.221288
20
4691702.278157
40
0.101738
62
8
1

0
POINT
8
0
10
7512558.221288
20
4691702.659675
30
610.715164
0
TEXT
8
PNTNO
10
7512605.604372
20
4691688.213021
40
0.101738
62
8
1
P6
0
TEXT
8
PNTELEV
10
7512605.604372
20
4691688.085848
40
0.101738
1
611.495
0
TEXT
8
PNTDESC
10
7512605.604372
20
4691687.958676
40
0.101738
62
8
1

0
TEXT
8
PNTATTRS
10
7512605.604372
20
4691687.831503
40
0.101738
62
8
1

0
POINT
8
0
10
7512605.604372
20
4691688.213021
30
611.495069
0
TEXT
8
PNTNO
10
7512580.827632
20
4691732.983570
40
0.101738
62
8
1
216
0
TEXT
8
PNTELEV
10
7512580.827632
20
4691732.856397
40
0.101738
1
614.096
0
TEXT
8
PNTDESC
10
7512580.827632
20
4691732.729225
40
0.101738
62
8
1
SHTYLLA
0
TEXT
8
PNTATTRS
10
7512580.827632
20
4691732.602052
40
0.101738
62
8
1

0
POINT
8
0
10
7512580.827632
20
4691732.983570
30
614.096380
0
TEXT
8
PNTNO
10
7512583.707752
20
4691730.605748
40
0.101738
62
8
1
217
0
TEXT
8
PNTELEV
10
7512583.707752
20
4691730.478576
40
0.101738
1
614.278
0
TEXT
8
PNTDESC
10
7512583.707752
20
4691730.351403
40
0.101738
62
8
1
SHTYLLA
0
TEXT
8
PNTATTRS
10
7512583.707752
20
4691730.224230
40
0.101738
62
8
1

0
POINT
8
0
10
7512583.707752
20
4691730.605748
30
614.278371
0
TEXT
8
PNTNO
10
7512581.557049
20
4691714.262042
40
0.101738
62
8
1
P-FS1
0
TEXT
8
PNTELEV
10
7512581.557049
20
4691714.134869
40
0.101738
1
611.920
0
TEXT
8
PNTDESC
10
7512581.557049
20
4691714.007696
40
0.101738
62
8
1

0
TEXT
8
PNTATTRS
10
7512581.557049
20
4691713.880524
40
0.101738
62
8
1

0
POINT
8
0
10
7512581.557049
20
4691714.262042
30
611.920249
0
TEXT
8
PNTNO
10
7512580.487386
20
4691733.261907
40
0.101738
62
8
1
218
0
TEXT
8
PNTELEV
10
7512580.487386
20
4691733.134735
40
0.101738
1
614.301
0
TEXT
8
PNTDESC
10
7512580.487386
20
4691733.007562
40
0.101738
62
8
1
PERDHESA
0
TEXT
8
PNTATTRS
10
7512580.487386
20
4691732.880390
40
0.101738
62
8
1

0
POINT
8
0
10
7512580.487386
20
4691733.261907
30
614.301493
0
TEXT
8
PNTNO
10
7512579.620566
20
4691732.216448
40
0.101738
62
8
1
219
0
TEXT
8
PNTELEV
10
7512579.620566
20
4691732.089276
40
0.101738
1
612.185
0
TEXT
8
PNTDESC
10
7512579.620566
20
4691731.962103
40
0.101738
62
8
1
PERDHESA
0
TEXT
8
PNTATTRS
10
7512579.620566
20
4691731.834930
40
0.101738
62
8
1

0
POINT
8
0
10
7512579.620566
20
4691732.216448
30
612.185496
0
TEXT
8
PNTNO
10
7512591.355516
20
4691722.712239
40
0.101738
62
8
1
220
0
TEXT
8
PNTELEV
10
7512591.355516
20
4691722.585067
40
0.101738
1
612.169
0
TEXT
8
PNTDESC
10
7512591.355516
20
4691722.457894
40
0.101738
62
8
1
PERDHESA
0
TEXT
8
PNTATTRS
10
7512591.355516
20
4691722.330722
40
0.101738
62
8
1

0
POINT
8
0
10
7512591.355516
20
4691722.712239
30
612.168972
0
TEXT
8
PNTNO
10
7512584.074531
20
4691730.317535
40
0.101738
62
8
1
221
0
TEXT
8
PNTELEV
10
7512584.074531
20
4691730.190363
40
0.101738
1
613.587
0
TEXT
8
PNTDESC
10
7512584.074531
20
4691730.063190
40
0.101738
62
8
1
SHTYLLA
0
TEXT
8
PNTATTRS
10
7512584.074531
20
4691729.936017
40
0.101738
62
8
1

0
POINT
8
0
10
7512584.074531
20
4691730.317535
30
613.586836
0
TEXT
8
PNTNO
10
7512583.724814
20
4691730.604861
40
0.101738
62
8
1
222
0
TEXT
8
PNTELEV
10
7512583.724814
20
4691730.477688
40
0.101738
1
613.747
0
TEXT
8
PNTDESC
10
7512583.724814
20
4691730.350516
40
0.101738
62
8
1
SHTYLLA
0
TEXT
8
PNTATTRS
10
7512583.724814
20
4691730.223343
40
0.101738
62
8
1

0
POINT
8
0
10
7512583.724814
20
4691730.604861
30
613.746727
0
TEXT
8
PNTNO
10
7512588.528019
20
4691726.674452
40
0.101738
62
8
1
223
0
TEXT
8
PNTELEV
10
7512588.528019
20
4691726.547279
40
0.101738
1
613.406
0
TEXT
8
PNTDESC
10
7512588.528019
20
4691726.420107
40
0.101738
62
8
1
SHTYLLA
0
TEXT
8
PNTATTRS
10
7512588.528019
20
4691726.292934
40
0.101738
62
8
1

0
POINT
8
0
10
7512588.528019
20
4691726.674452
30
613.405743
0
TEXT
8
PNTNO
10
7512588.852143
20
4691726.382361
40
0.101738
62
8
1
224
0
TEXT
8
PNTELEV
10
7512588.852143
20
4691726.255189
40
0.101738
1
613.386
0
TEXT
8
PNTDESC
10
7512588.852143
20
4691726.128016
40
0.101738
62
8
1
SHTYLLA
0
TEXT
8
PNTATTRS
10
7512588.852143
20
4691726.000844
40
0.101738
62
8
1

0
POINT
8
0
10
7512588.852143
20
4691726.382361
30
613.385560
0
TEXT
8
PNTNO
10
7512592.060231
20
4691725.915997
40
0.101738
62
8
1
225
0
TEXT
8
PNTELEV
10
7512592.060231
20
4691725.788825
40
0.101738
1
613.665
0
TEXT
8
PNTDESC
10
7512592.060231
20
4691725.661652
40
0.101738
62
8
1
SHTYLLA
0
TEXT
8
PNTATTRS
10
7512592.060231
20
4691725.534479
40
0.101738
62
8
1

0
POINT
8
0
10
7512592.060231
20
4691725.915997
30
613.664982
0
TEXT
8
PNTNO
10
7512590.611596
20
4691724.119634
40
0.101738
62
8
1
226
0
TEXT
8
PNTELEV
10
7512590.611596
20
4691723.992461
40
0.101738
1
613.434
0
TEXT
8
PNTDESC
10
7512590.611596
20
4691723.865289
40
0.101738
62
8
1
SHTYLLA
0
TEXT
8
PNTATTRS
10
7512590.611596
20
4691723.738116
40
0.101738
62
8
1

0
POINT
8
0
10
7512590.611596
20
4691724.119634
30
613.433890
0
TEXT
8
PNTNO
10
7512593.343784
20
4691721.850000
40
0.101738
62
8
1
227
0
TEXT
8
PNTELEV
10
7512593.343784
20
4691721.722827
40
0.101738
1
613.303
0
TEXT
8
PNTDESC
10
7512593.343784
20
4691721.595655
40
0.101738
62
8
1
SHTYLLA
0
TEXT
8
PNTATTRS
10
7512593.343784
20
4691721.468482
40
0.101738
62
8
1

0
POINT
8
0
10
7512593.343784
20
4691721.850000
30
613.303252
0
TEXT
8
PNTNO
10
7512588.547378
20
4691719.266018
40
0.101738
62
8
1
228
0
TEXT
8
PNTELEV
10
7512588.547378
20
4691719.138845
40
0.101738
1
612.203
0
TEXT
8
PNTDESC
10
7512588.547378
20
4691719.011672
40
0.101738
62
8
1
SHTYLLA
0
TEXT
8
PNTATTRS
10
7512588.547378
20
4691718.884500
40
0.101738
62
8
1

0
POINT
8
0
10
7512588.547378
20
4691719.266018
30
612.203041
0
TEXT
8
PNTNO
10
7512587.990256
20
4691718.579689
40
0.101738
62
8
1
229
0
TEXT
8
PNTELEV
10
7512587.990256
20
4691718.452516
40
0.101738
1
612.165
0
TEXT
8
PNTDESC
10
7512587.990256
20
4691718.325344
40
0.101738
62
8
1
PERDHESA
0
TEXT
8
PNTATTRS
10
7512587.990256
20
4691718.198171
40
0.101738
62
8
1

0
POINT
8
0
10
7512587.990256
20
4691718.579689
30
612.165269
0
TEXT
8
PNTNO
10
7512602.129908
20
4691706.937965
40
0.101738
62
8
1
230
0
TEXT
8
PNTELEV
10
7512602.129908
20
4691706.810793
40
0.101738
1
612.749
0
TEXT
8
PNTDESC
10
7512602.129908
20
4691706.683620
40
0.101738
62
8
1
PERDHESA
0
TEXT
8
PNTATTRS
10
7512602.129908
20
4691706.556447
40
0.101738
62
8
1

0
POINT
8
0
10
7512602.129908
20
4691706.937965
30
612.748504
0
TEXT
8
PNTNO
10
7512602.729360
20
4691707.654440
40
0.101738
62
8
1
231
0
TEXT
8
PNTELEV
10
7512602.729360
20
4691707.527267
40
0.101738
1
612.907
0
TEXT
8
PNTDESC
10
7512602.729360
20
4691707.400095
40
0.101738
62
8
1
SHTYLLA
0
TEXT
8
PNTATTRS
10
7512602.729360
20
4691707.272922
40
0.101738
62
8
1

0
POINT
8
0
10
7512602.729360
20
4691707.654440
30
612.907426
0
TEXT
8
PNTNO
10
7512602.385270
20
4691707.929768
40
0.101738
62
8
1
232
0
TEXT
8
PNTELEV
10
7512602.385270
20
4691707.802596
40
0.101738
1
612.923
0
TEXT
8
PNTDESC
10
7512602.385270
20
4691707.675423
40
0.101738
62
8
1
SHTYLLA
0
TEXT
8
PNTATTRS
10
7512602.385270
20
4691707.548250
40
0.101738
62
8
1

0
POINT
8
0
10
7512602.385270
20
4691707.929768
30
612.923343
0
TEXT
8
PNTNO
10
7512607.712711
20
4691713.720139
40
0.101738
62
8
1
233
0
TEXT
8
PNTELEV
10
7512607.712711
20
4691713.592966
40
0.101738
1
614.490
0
TEXT
8
PNTDESC
10
7512607.712711
20
4691713.465794
40
0.101738
62
8
1
SHTYLLA
0
TEXT
8
PNTATTRS
10
7512607.712711
20
4691713.338621
40
0.101738
62
8
1

0
POINT
8
0
10
7512607.712711
20
4691713.720139
30
614.490216
0
TEXT
8
PNTNO
10
7512607.385920
20
4691713.984056
40
0.101738
62
8
1
234
0
TEXT
8
PNTELEV
10
7512607.385920
20
4691713.856883
40
0.101738
1
614.498
0
TEXT
8
PNTDESC
10
7512607.385920
20
4691713.729711
40
0.101738
62
8
1
SHTYLLA
0
TEXT
8
PNTATTRS
10
7512607.385920
20
4691713.602538
40
0.101738
62
8
1

0
POINT
8
0
10
7512607.385920
20
4691713.984056
30
614.497703
0
TEXT
8
PNTNO
10
7512607.465084
20
4691716.979008
40
0.101738
62
8
1
235
0
TEXT
8
PNTELEV
10
7512607.465084
20
4691716.851836
40
0.101738
1
614.084
0
TEXT
8
PNTDESC
10
7512607.465084
20
4691716.724663
40
0.101738
62
8
1
SHTYLLA
0
TEXT
8
PNTATTRS
10
7512607.465084
20
4691716.597490
40
0.101738
62
8
1

0
POINT
8
0
10
7512607.465084
20
4691716.979008
30
614.084448
0
TEXT
8
PNTNO
10
7512607.928435
20
4691717.545491
40
0.101738
62
8
1
236
0
TEXT
8
PNTELEV
10
7512607.928435
20
4691717.418319
40
0.101738
1
614.219
0
TEXT
8
PNTDESC
10
7512607.928435
20
4691717.291146
40
0.101738
62
8
1
SHTYLLA
0
TEXT
8
PNTATTRS
10
7512607.928435
20
4691717.163973
40
0.101738
62
8
1

0
POINT
8
0
10
7512607.928435
20
4691717.545491
30
614.219052
0
TEXT
8
PNTNO
10
7512613.530972
20
4691724.373066
40
0.101738
62
8
1
237
0
TEXT
8
PNTELEV
10
7512613.530972
20
4691724.245894
40
0.101738
1
613.672
0
TEXT
8
PNTDESC
10
7512613.530972
20
4691724.118721
40
0.101738
62
8
1
SHTYLLA
0
TEXT
8
PNTATTRS
10
7512613.530972
20
4691723.991549
40
0.101738
62
8
1

0
POINT
8
0
10
7512613.530972
20
4691724.373066
30
613.672087
0
TEXT
8
PNTNO
10
7512614.523078
20
4691725.562255
40
0.101738
62
8
1
238
0
TEXT
8
PNTELEV
10
7512614.523078
20
4691725.435082
40
0.101738
1
612.804
0
TEXT
8
PNTDESC
10
7512614.523078
20
4691725.307910
40
0.101738
62
8
1
SHTYLLA
0
TEXT
8
PNTATTRS
10
7512614.523078
20
4691725.180737
40
0.101738
62
8
1

0
POINT
8
0
10
7512614.523078
20
4691725.562255
30
612.804367
0
TEXT
8
PNTNO
10
7512615.567577
20
4691726.242401
40
0.101738
62
8
1
239
0
TEXT
8
PNTELEV
10
7512615.567577
20
4691726.115229
40
0.101738
1
612.286
0
TEXT
8
PNTDESC
10
7512615.567577
20
4691725.988056
40
0.101738
62
8
1
SHTYLLA
0
TEXT
8
PNTATTRS
10
7512615.567577
20
4691725.860884
40
0.101738
62
8
1

0
POINT
8
0
10
7512615.567577
20
4691726.242401
30
612.286009
0
TEXT
8
PNTNO
10
7512615.567636
20
4691726.242237
40
0.101738
62
8
1
240
0
TEXT
8
PNTELEV
10
7512615.567636
20
4691726.115064
40
0.101738
1
612.286
0
TEXT
8
PNTDESC
10
7512615.567636
20
4691725.987891
40
0.101738
62
8
1
PERDHESA
0
TEXT
8
PNTATTRS
10
7512615.567636
20
4691725.860719
40
0.101738
62
8
1

0
POINT
8
0
10
7512615.567636
20
4691726.242237
30
612.286009
0
TEXT
8
PNTNO
10
7512591.108896
20
4691746.234637
40
0.101738
62
8
1
241
0
TEXT
8
PNTELEV
10
7512591.108896
20
4691746.107464
40
0.101738
1
612.297
0
TEXT
8
PNTDESC
10
7512591.108896
20
4691745.980291
40
0.101738
62
8
1
PERDHESA
0
TEXT
8
PNTATTRS
10
7512591.108896
20
4691745.853119
40
0.101738
62
8
1

0
POINT
8
0
10
7512591.108896
20
4691746.234637
30
612.297369
0
TEXT
8
PNTNO
10
7512590.657608
20
4691745.075585
40
0.101738
62
8
1
242
0
TEXT
8
PNTELEV
10
7512590.657608
20
4691744.948412
40
0.101738
1
612.361
0
TEXT
8
PNTDESC
10
7512590.657608
20
4691744.821240
40
0.101738
62
8
1
SHTYLLA
0
TEXT
8
PNTATTRS
10
7512590.657608
20
4691744.694067
40
0.101738
62
8
1

0
POINT
8
0
10
7512590.657608
20
4691745.075585
30
612.360633
0
ENDSEC
0
EOF
